<?xml version="1.0" standalone="no"?>
<!DOCTYPE svg PUBLIC "-//W3C//DTD SVG 20010904//EN"
 "http://www.w3.org/TR/2001/REC-SVG-20010904/DTD/svg10.dtd">
<svg version="1.0" xmlns="http://www.w3.org/2000/svg"
 width="600.000000pt" height="357.000000pt" viewBox="0 0 600.000000 357.000000"
 preserveAspectRatio="xMidYMid meet">

<g transform="translate(0.000000,357.000000) scale(0.100000,-0.100000)"
fill="#000000" stroke="none">
<path d="M3305 3326 c-214 -67 -272 -289 -97 -374 51 -24 68 -27 162 -27 114
0 161 16 223 74 58 53 73 128 41 197 -22 47 -104 118 -152 132 -50 15 -125 14
-177 -2z m160 -15 c44 -20 105 -68 105 -82 0 -5 -12 -6 -26 -3 -15 4 -57 1
-95 -6 -57 -11 -73 -11 -101 1 -18 8 -61 13 -96 13 l-63 -2 23 25 c62 67 173
91 253 54z m-124 -128 c14 -14 5 -43 -22 -71 -20 -23 -72 -30 -97 -14 -20 13
-28 82 -11 93 18 12 116 6 130 -8z m234 -7 c17 -12 18 -16 4 -52 -13 -34 -19
-39 -51 -42 -27 -2 -43 3 -57 17 -27 27 -38 71 -20 82 22 14 103 11 124 -5z
m-355 -114 c53 -21 106 -7 135 36 14 20 25 42 25 49 0 25 16 13 28 -20 20 -56
55 -81 114 -81 44 0 54 4 74 30 29 35 31 26 4 -25 -43 -85 -131 -128 -245
-119 -143 12 -247 123 -208 224 5 14 11 6 23 -31 13 -39 23 -52 50 -63z"/>
<path d="M3295 3150 c-3 -6 1 -13 10 -16 19 -8 30 0 20 15 -8 14 -22 14 -30 1z"/>
<path d="M3520 3135 c0 -8 7 -15 15 -15 8 0 15 7 15 15 0 8 -7 15 -15 15 -8 0
-15 -7 -15 -15z"/>
<path d="M3302 3008 c8 -23 54 -39 79 -29 23 9 22 10 -7 10 -17 1 -37 8 -44
16 -15 18 -33 20 -28 3z"/>
<path d="M4340 3061 c-48 -15 -105 -49 -137 -83 -130 -135 -34 -293 177 -292
180 1 300 120 246 247 -18 44 -96 113 -142 126 -44 12 -107 13 -144 2z m111
-11 c86 -24 170 -138 155 -211 -24 -122 -194 -181 -330 -115 -60 29 -81 52
-96 107 -22 76 52 184 147 213 59 18 78 19 124 6z"/>
<path d="M4353 2903 c-8 -3 -5 -11 8 -24 20 -20 39 -25 39 -11 0 14 -34 40
-47 35z"/>
<path d="M4492 2870 c15 -24 43 -27 34 -4 -3 9 -6 18 -6 20 0 2 -9 4 -20 4
-18 0 -19 -2 -8 -20z"/>
<path d="M4286 2795 c6 -15 77 -39 97 -32 7 2 -4 7 -24 11 -21 3 -42 13 -49
21 -16 19 -31 19 -24 0z"/>
<path d="M1494 2869 c-91 -35 -174 -126 -174 -192 0 -21 -8 -25 -75 -41 -199
-47 -313 -165 -369 -382 -21 -80 -21 -87 2 -75 11 6 23 30 29 58 32 135 103
261 177 312 49 34 127 64 192 75 l39 6 25 -51 c22 -46 33 -57 94 -88 66 -34
73 -36 170 -36 94 0 105 2 155 30 30 17 67 48 83 69 73 102 -1 272 -141 322
-53 19 -148 16 -207 -7z m201 -18 c78 -35 146 -128 147 -200 1 -100 -100 -180
-228 -181 -107 0 -220 58 -250 128 -67 158 159 332 331 253z"/>
<path d="M1625 2773 c4 -10 10 -28 12 -40 7 -29 33 -30 33 -2 0 29 -18 59 -36
59 -12 0 -14 -5 -9 -17z"/>
<path d="M1720 2786 c0 -19 34 -76 43 -73 14 5 11 45 -4 64 -10 12 -39 19 -39
9z"/>
<path d="M1545 2640 c-15 -25 67 -80 119 -80 14 0 26 5 26 12 0 6 -3 9 -6 5
-10 -10 -76 21 -105 49 -18 17 -29 22 -34 14z"/>
<path d="M3358 2885 c-2 -3 4 -55 14 -117 26 -155 13 -378 -22 -378 -21 0 -80
63 -91 97 -12 36 -8 172 7 256 5 30 4 37 -9 37 -17 0 -21 -16 -37 -130 -20
-137 10 -225 88 -268 36 -20 41 -27 36 -48 -8 -32 13 -32 28 1 7 15 20 25 32
25 36 1 131 45 208 97 99 68 135 85 159 78 11 -4 33 -1 49 5 25 10 35 9 79
-17 47 -26 51 -31 46 -58 -16 -95 -54 -439 -49 -447 3 -5 -19 -35 -49 -68 -69
-74 -100 -149 -100 -240 -1 -123 56 -204 188 -270 161 -80 315 -86 494 -21
188 69 301 197 301 342 0 33 2 59 5 59 4 0 19 -7 35 -15 43 -22 68 -75 35 -75
-12 0 -14 -14 -10 -79 l4 -79 -43 -26 c-80 -47 -83 -122 -7 -173 110 -74 289
49 230 159 -14 26 -68 48 -119 48 l-40 0 0 46 0 45 48 -6 c26 -4 70 -10 99
-14 49 -7 52 -7 58 17 3 13 4 26 1 29 -4 4 -124 22 -156 23 -8 0 -22 18 -31
39 -13 30 -27 44 -65 62 -41 19 -53 31 -76 78 -15 31 -48 78 -73 105 -25 27
-44 50 -42 51 10 8 163 -17 183 -30 38 -25 80 -101 110 -201 l28 -93 48 -6
c53 -8 96 -1 151 22 40 17 52 40 15 28 -90 -28 -124 -34 -151 -27 -27 7 -33
16 -52 77 -28 91 -75 184 -106 207 -29 21 -111 38 -186 38 -42 0 -71 8 -127
36 -41 19 -103 40 -139 47 -57 9 -67 14 -72 35 -3 13 -4 26 -1 29 2 3 66 -3
140 -12 131 -17 137 -17 156 0 11 10 20 26 20 35 0 23 -32 50 -58 50 -27 0
-28 16 -2 30 25 13 56 -1 65 -29 7 -25 35 -17 35 10 0 35 -64 51 -114 28 -25
-12 -143 0 -228 22 -36 9 -38 12 -38 48 0 57 17 135 44 202 18 45 20 59 10 59
-30 0 -70 -101 -84 -213 -4 -38 -10 -70 -12 -73 -8 -7 -111 31 -115 43 -9 22
45 100 102 149 30 27 55 51 55 56 0 34 -104 -49 -156 -126 l-35 -51 7 86 c7
86 6 87 -20 104 -16 11 -35 15 -51 11 -15 -4 -37 0 -55 9 -16 8 -56 18 -89 21
-53 6 -65 4 -107 -21 -46 -27 -49 -27 -116 -16 -39 6 -82 18 -98 26 -28 15
-84 73 -92 97 -4 11 -8 11 -20 0 -14 -11 -18 -7 -27 38 -6 28 -11 60 -11 70 0
18 -19 27 -32 15z m153 -235 c21 -11 72 -25 113 -32 68 -10 75 -14 88 -42 l15
-30 -61 -38 c-165 -103 -198 -120 -237 -125 -41 -6 -42 -5 -36 18 20 72 29
161 25 245 l-4 94 29 -35 c16 -20 46 -44 68 -55z m410 -17 c7 -7 -6 -8 -43 -1
-82 14 -88 17 -25 14 32 -1 62 -7 68 -13z m-122 -29 c18 -23 19 -54 1 -54 -17
0 -60 43 -60 61 0 28 35 24 59 -7z m132 -20 c11 -10 19 -28 19 -41 l0 -25 -34
21 c-18 12 -41 21 -50 21 -11 0 -16 9 -16 29 0 28 1 29 31 21 18 -5 40 -17 50
-26z m113 17 c4 -5 -8 -127 -26 -270 -32 -257 -33 -261 -60 -281 l-28 -21 0
27 c0 30 57 497 65 532 5 22 38 31 49 13z m104 -237 c81 -25 88 -37 17 -29
-102 10 -105 12 -105 46 0 27 2 29 15 15 9 -8 41 -23 73 -32z m161 -79 c249
-31 251 -31 251 -51 0 -13 -7 -15 -27 -11 -16 3 -130 18 -255 33 -168 20 -228
31 -228 41 0 18 21 17 259 -12z m-159 -46 c87 -11 87 -11 98 -45 l10 -33 -57
-12 c-49 -10 -95 -25 -164 -54 -15 -6 -17 -4 -13 16 3 13 8 50 11 82 4 31 11
57 18 57 6 0 50 -5 97 -11z m225 -132 c51 -19 140 -83 190 -139 61 -67 87
-125 93 -208 3 -54 0 -75 -20 -120 -44 -100 -140 -176 -268 -214 -62 -19 -209
-23 -239 -6 -11 5 -27 10 -36 10 -26 0 -180 78 -203 103 -57 61 -86 162 -71
242 43 230 343 410 554 332z m633 -417 c1 0 2 -7 2 -16 0 -13 -7 -15 -37 -11
-21 3 -66 9 -101 13 -61 6 -79 15 -68 32 4 7 82 0 204 -18z m-106 -139 c22 -7
40 -21 44 -34 29 -87 -57 -180 -137 -147 -38 16 -79 65 -79 94 0 46 70 105
118 101 9 -1 34 -7 54 -14z"/>
<path d="M4285 2058 c-2 -7 -7 -35 -10 -63 -4 -27 -13 -67 -20 -88 -7 -20 -9
-40 -4 -42 13 -9 36 45 44 100 3 28 9 62 11 78 6 27 -13 40 -21 15z"/>
<path d="M3997 1850 c22 -5 60 -18 83 -30 55 -28 74 -20 24 10 -25 15 -58 24
-94 26 -54 3 -54 3 -13 -6z"/>
<path d="M4545 1845 c-22 -7 -72 -23 -111 -35 -39 -11 -80 -27 -90 -35 -18
-14 -18 -14 3 -15 12 0 24 4 27 9 3 4 31 16 63 25 32 9 82 24 111 33 28 8 50
19 46 24 -3 5 -6 9 -7 8 -1 0 -20 -7 -42 -14z"/>
<path d="M4182 1788 c-27 -13 -39 -53 -22 -73 27 -32 110 -6 110 35 0 19 -35
51 -55 49 -5 0 -20 -5 -33 -11z m53 -43 c0 -23 -5 -30 -19 -30 -24 0 -41 27
-33 49 4 11 15 16 29 14 18 -2 23 -9 23 -33z"/>
<path d="M4028 1672 c-59 -34 -123 -90 -114 -99 3 -4 21 7 39 24 17 16 53 42
79 57 45 25 69 46 51 46 -4 -1 -29 -13 -55 -28z"/>
<path d="M4294 1692 c4 -7 13 -12 19 -12 24 0 133 -58 156 -84 24 -25 51 -35
51 -18 0 16 -46 51 -107 82 -70 34 -131 50 -119 32z"/>
<path d="M4184 1623 c2 -15 -3 -50 -10 -78 -17 -61 -17 -68 -2 -63 29 10 52
168 24 168 -10 0 -14 -9 -12 -27z"/>
<path d="M4812 1488 c-7 -7 -12 -22 -12 -35 0 -18 6 -23 24 -23 37 0 56 10 56
31 0 10 -9 23 -19 29 -25 13 -34 13 -49 -2z m42 -24 c4 -9 4 -19 2 -22 -10 -9
-36 8 -36 23 0 20 26 19 34 -1z"/>
<path d="M1229 2533 c-5 -14 -10 -69 -10 -120 -1 -80 3 -102 23 -141 35 -70
78 -87 268 -107 273 -28 279 -32 93 -59 -201 -29 -284 -18 -349 48 -57 56 -74
117 -74 264 0 103 -2 113 -17 110 -16 -3 -18 -17 -18 -128 1 -153 18 -212 75
-264 21 -19 58 -40 82 -47 65 -18 219 -14 354 10 67 11 133 21 147 21 14 0 28
4 31 9 8 12 -81 27 -269 46 -83 9 -166 20 -186 25 -45 12 -85 43 -105 81 -20
39 -28 139 -16 217 7 50 6 62 -5 62 -7 0 -18 -12 -24 -27z"/>
<path d="M3299 2263 c-12 -31 -56 -205 -89 -355 -21 -94 -22 -98 -48 -98 -15
0 -78 -18 -141 -40 -84 -29 -130 -40 -180 -41 -111 -1 -111 2 -5 -118 74 -84
99 -108 115 -104 10 3 19 10 19 16 0 5 -34 50 -74 98 l-75 87 52 7 c29 4 95
23 147 42 52 19 115 36 140 37 25 2 48 4 51 5 9 2 26 63 59 224 18 82 40 174
51 204 23 67 23 63 4 63 -9 0 -20 -12 -26 -27z"/>
<path d="M3366 2103 c5 -87 9 -281 9 -431 l0 -274 65 7 c89 9 232 34 239 41 6
6 -27 4 -202 -12 l-68 -7 7 139 c6 126 -9 565 -22 657 -4 24 -11 37 -21 37
-13 0 -14 -20 -7 -157z"/>
<path d="M1864 2109 c-21 -23 -21 -23 59 -86 l28 -22 -3 -122 -3 -122 -72 2
c-70 2 -72 2 -79 -24 -3 -14 -5 -27 -3 -29 2 -2 51 -5 109 -7 l105 -4 3 170 2
170 -60 48 c-32 26 -61 47 -63 47 -2 0 -12 -9 -23 -21z"/>
<path d="M868 2105 c-3 -3 5 -40 18 -81 47 -146 66 -299 70 -554 6 -294 6
-298 47 -314 43 -18 184 -30 192 -17 7 12 -18 18 -105 25 -46 3 -68 10 -77 22
-10 13 -13 67 -13 198 0 208 -13 370 -41 506 -34 168 -65 241 -91 215z"/>
<path d="M770 2078 c-5 -13 -19 -61 -30 -108 -58 -237 -111 -362 -186 -436
-48 -49 -113 -83 -156 -84 -15 0 -30 -5 -33 -11 -12 -18 66 0 132 32 131 63
200 186 277 495 14 56 29 109 32 118 10 26 -25 19 -36 -6z"/>
<path d="M1741 1468 c-142 -153 -189 -197 -214 -202 -109 -22 -98 -159 13
-159 29 0 48 7 66 24 23 21 25 30 21 70 l-6 46 165 176 165 177 77 -7 c42 -3
79 -8 82 -10 2 -2 6 -73 8 -158 l4 -154 -36 -34 c-43 -41 -45 -65 -10 -106 21
-26 33 -31 68 -31 87 0 127 82 66 133 l-30 26 0 195 0 196 -38 0 c-22 0 -79 3
-129 6 l-89 7 -183 -195z m-171 -309 c0 -13 -17 -19 -34 -13 -16 6 -22 45 -10
57 7 7 44 -30 44 -44z m598 32 c11 -6 10 -11 -3 -25 -19 -19 -20 -19 -46 -5
-16 8 -18 13 -8 25 13 16 37 18 57 5z"/>
<path d="M5082 1533 c-9 -3 -4 -13 14 -30 22 -21 26 -30 21 -64 -4 -30 -2 -39
9 -39 30 0 38 76 12 108 -16 19 -41 30 -56 25z"/>
<path d="M5027 1503 c-3 -5 -2 -15 4 -23 18 -29 10 -88 -13 -104 -26 -19 -19
-21 16 -5 34 16 51 61 39 102 -8 30 -35 48 -46 30z"/>
<path d="M313 1402 c-20 -12 -43 -78 -43 -120 0 -63 63 -122 130 -122 32 0 23
17 -15 30 -43 14 -85 63 -85 98 0 15 9 47 20 71 11 24 20 45 20 47 0 6 -14 4
-27 -4z"/>
<path d="M340 935 c0 -28 4 -35 20 -35 19 0 20 -7 20 -175 0 -175 0 -176 -23
-184 -18 -7 -24 -16 -23 -37 l2 -28 104 -2 105 -2 -30 25 c-26 22 -27 23 -5
13 14 -7 32 -18 40 -25 21 -18 73 -8 65 13 -4 12 -3 13 10 2 20 -17 52 -5 36
14 -8 10 -5 15 15 24 33 16 38 15 22 -2 -7 -8 -17 -11 -22 -8 -5 3 -6 -1 -1
-8 6 -10 14 -7 32 14 23 27 31 56 15 56 -5 0 -17 7 -28 16 -20 16 -13 16 32
-2 13 -6 15 -1 11 30 -6 47 -31 84 -62 92 -14 3 -25 8 -25 11 0 2 14 18 30 35
25 24 30 38 30 75 0 39 -5 50 -34 78 -19 18 -49 35 -66 39 -53 10 -232 7 -225
-4 3 -5 1 -10 -4 -10 -6 0 -11 5 -11 10 0 6 -7 10 -15 10 -10 0 -15 -11 -15
-35z m216 12 c5 -4 1 -5 -8 -2 -9 4 -18 2 -21 -3 -4 -4 16 -22 43 -38 40 -24
48 -33 45 -54 -2 -14 -4 -28 -4 -31 -1 -3 -10 -15 -21 -27 -16 -16 -32 -22
-66 -22 l-45 0 3 63 3 62 44 -2 44 -2 -54 33 -53 34 41 -2 c23 0 45 -5 49 -9z
m39 3 c3 -6 -1 -7 -9 -4 -18 7 -21 14 -7 14 6 0 13 -4 16 -10z m84 -33 c6 -8
8 -17 4 -20 -3 -4 -2 -7 4 -7 5 0 10 -14 11 -30 l1 -30 -30 17 c-25 15 -27 19
-12 26 14 9 13 12 -8 29 -22 17 -22 18 -2 9 31 -16 41 -13 19 4 -11 8 -15 15
-9 15 6 0 16 -6 22 -13z m-198 -7 c-7 -4 -12 -11 -11 -16 1 -5 -4 -10 -12 -13
-7 -2 -10 0 -6 4 4 5 4 13 -1 19 -6 7 -1 12 16 13 16 0 21 -2 14 -7z m-69 -48
c-10 -3 -10 -7 -1 -18 10 -12 9 -13 -5 -8 -9 3 -16 15 -16 25 0 13 5 17 17 12
11 -4 13 -8 5 -11z m55 -22 c-1 -11 -6 -20 -12 -20 -5 0 -3 -5 5 -11 12 -8 12
-10 1 -7 -16 5 -24 38 -10 38 6 0 7 5 4 10 -3 6 -2 10 4 10 5 0 9 -9 8 -20z
m178 -20 c3 -5 1 -10 -5 -10 -6 0 -8 -5 -4 -12 4 -7 3 -8 -4 -4 -7 4 -12 2
-12 -4 0 -6 -5 -8 -12 -4 -8 5 -6 11 5 19 9 7 14 15 10 18 -3 4 -1 7 5 7 6 0
14 -4 17 -10z m35 -30 c-12 -22 -21 -26 -17 -7 2 10 17 26 25 27 1 0 -2 -9 -8
-20z m-244 -11 c42 -26 44 -35 4 -14 -17 9 -34 14 -39 11 -4 -3 -8 1 -8 9 0
19 3 19 43 -6z m159 -19 c3 -6 -1 -7 -9 -4 -18 7 -21 14 -7 14 6 0 13 -4 16
-10z m-71 -15 c11 -8 24 -15 30 -15 5 0 1 7 -10 15 -10 8 -14 15 -8 15 6 0 17
-7 24 -15 7 -8 9 -15 5 -15 -4 0 -2 -6 4 -13 6 -8 7 -17 3 -21 -4 -5 0 -7 8
-6 27 4 40 0 40 -13 0 -6 14 -18 31 -26 16 -7 28 -15 25 -18 -2 -2 -14 0 -25
7 -14 7 -21 7 -21 0 0 -5 5 -10 10 -10 6 0 3 -11 -5 -24 -14 -21 -14 -24 -1
-29 10 -4 14 0 11 14 -4 20 9 26 20 9 3 -5 0 -10 -7 -10 -9 0 -9 -3 2 -10 11
-7 11 -10 2 -10 -7 0 -11 -4 -8 -9 3 -5 -5 -8 -19 -8 -15 0 -22 4 -18 10 4 7
0 8 -13 2 -10 -5 -43 -11 -71 -13 l-53 -4 0 59 c0 55 -2 60 -27 71 l-28 12 28
-5 c15 -3 27 -1 27 5 0 5 9 10 21 10 11 0 17 5 14 10 -9 14 8 13 23 -2 6 -6
14 -9 18 -6 3 3 -14 18 -38 32 -24 14 -36 26 -28 26 8 -1 24 -7 34 -15z m-117
-12 c-4 -3 -2 -12 5 -20 8 -11 7 -12 -6 -7 -9 3 -16 9 -16 13 0 9 11 21 18 21
3 0 2 -3 -1 -7z m302 -47 c9 -10 9 -16 1 -21 -8 -5 -5 -11 7 -21 28 -21 9 -17
-31 7 -38 22 -50 37 -16 19 28 -15 49 -1 25 17 -11 7 -14 13 -8 13 6 0 16 -6
22 -14z m-292 -28 c-7 -4 -16 -8 -22 -8 -5 0 -3 5 5 10 10 6 11 10 3 10 -7 0
-13 5 -13 10 0 6 8 5 20 -2 14 -9 16 -14 7 -20z m48 -18 c3 -5 2 -10 -4 -10
-5 0 -13 5 -16 10 -3 6 -2 10 4 10 5 0 13 -4 16 -10z m-35 -44 c0 -2 -9 -2
-20 1 -11 3 -20 9 -20 15 0 5 9 4 20 -2 11 -6 20 -12 20 -14z m37 -16 c-1 -11
-5 -20 -10 -20 -4 0 -5 -5 -2 -10 4 -6 -10 -3 -29 7 -20 9 -36 21 -36 25 0 5
9 4 19 -2 21 -11 54 -3 45 11 -3 5 -1 9 5 9 5 0 9 -9 8 -20z m-31 -41 c42 -25
45 -35 5 -14 -17 8 -37 12 -45 9 -16 -6 -22 7 -9 19 9 10 12 9 49 -14z m219
-37 c-3 -3 -11 0 -18 7 -9 10 -8 11 6 5 10 -3 15 -9 12 -12z m-60 -10 c-3 -3
-11 0 -18 7 -9 10 -8 11 6 5 10 -3 15 -9 12 -12z"/>
<path d="M665 870 c-3 -6 1 -7 9 -4 18 7 21 14 7 14 -6 0 -13 -4 -16 -10z"/>
<path d="M867 963 c-4 -3 -7 -19 -7 -35 0 -21 5 -28 20 -28 23 0 27 -29 8 -48
-9 -9 -8 -15 6 -25 17 -13 17 -14 2 -20 -10 -4 -15 -3 -11 3 3 6 3 10 -2 10
-11 0 -75 -189 -68 -201 4 -5 12 -9 18 -9 7 0 6 4 -3 10 -11 7 -11 10 -2 10 7
0 10 5 6 12 -4 6 -3 8 4 5 5 -4 9 -15 7 -25 -2 -9 -4 -21 -4 -25 -1 -4 -10 -3
-21 3 -29 15 -27 -12 3 -34 16 -13 17 -16 4 -12 -10 3 -16 2 -12 -3 3 -5 -1
-12 -7 -15 -7 -3 -2 -4 12 -1 14 3 19 2 12 -1 -6 -3 -9 -10 -6 -16 4 -6 -3 -5
-15 1 -12 7 -27 9 -34 6 -6 -4 -4 0 6 8 30 25 19 39 -13 15 -21 -15 -30 -30
-30 -50 0 -15 4 -28 9 -28 4 0 7 11 6 24 -2 18 1 23 12 19 11 -4 12 -8 3 -13
-21 -13 -2 -28 32 -25 49 4 50 4 43 15 -3 6 -2 10 4 10 5 0 13 -4 16 -10 3 -5
17 -10 31 -10 20 0 24 5 24 29 0 18 -8 34 -21 42 -34 23 -15 49 36 49 23 0 62
3 87 6 44 6 45 6 51 -26 5 -24 11 -31 22 -26 9 3 13 2 10 -3 -3 -6 3 -15 12
-21 16 -10 16 -11 -2 -5 -34 11 -40 10 -37 -4 2 -9 -3 -11 -14 -7 -14 5 -15 4
-4 -9 11 -13 10 -14 -4 -9 -23 9 -20 31 6 37 12 4 19 9 16 13 -4 3 -16 3 -27
-1 -16 -5 -21 -15 -21 -39 l0 -32 98 -1 98 0 1 34 c1 27 -3 34 -23 39 -17 4
-27 19 -39 52 -10 31 -24 52 -43 62 -30 18 -66 15 -55 -3 4 -7 -5 -4 -20 6
-16 11 -46 17 -79 17 -29 0 -60 5 -68 11 -13 9 -13 10 2 6 23 -8 32 23 12 38
-16 11 -16 12 0 18 10 4 15 3 11 -3 -3 -6 -2 -10 3 -10 5 0 15 21 22 46 11 39
11 47 -1 56 -11 8 -10 9 4 4 10 -3 17 0 17 8 0 21 26 26 47 10 17 -14 17 -15
-6 -8 -20 5 -23 3 -18 -12 3 -11 16 -54 29 -96 12 -43 27 -78 31 -78 5 0 6 4
2 10 -7 12 46 5 74 -9 l20 -11 -19 47 c-10 27 -35 93 -55 148 -20 55 -40 104
-44 108 -5 5 -30 7 -57 5 l-49 -3 33 -18 c19 -10 32 -21 29 -24 -7 -6 -67 29
-67 39 0 10 -44 11 -53 1z m43 -43 c14 -11 20 -20 14 -20 -7 0 -22 9 -35 20
-31 25 -12 26 21 0z m130 11 c0 -6 -4 -12 -8 -15 -5 -3 -9 1 -9 9 0 8 4 15 9
15 4 0 8 -4 8 -9z m6 -46 c10 -8 15 -14 9 -14 -5 0 -19 6 -29 14 -11 8 -15 15
-10 15 6 0 19 -7 30 -15z m-121 -15 c3 -5 1 -10 -4 -10 -6 0 -11 5 -11 10 0 6
2 10 4 10 3 0 8 -4 11 -10z m140 -31 c-4 -5 -1 -9 4 -9 6 0 11 -5 11 -10 0 -7
-6 -7 -17 -2 -22 11 -46 4 -37 -10 4 -7 2 -8 -5 -4 -6 4 -9 11 -6 16 3 4 2 10
-2 13 -5 2 -2 2 5 1 19 -5 43 7 35 19 -3 6 -1 7 6 3 6 -4 9 -12 6 -17z m-121
-44 c-4 -8 -11 -12 -16 -9 -6 4 -5 10 3 15 19 12 19 11 13 -6z m141 -5 c3 -6
-1 -7 -9 -4 -18 7 -21 14 -7 14 6 0 13 -4 16 -10z m-40 -10 c3 -6 -1 -7 -9 -4
-18 7 -21 14 -7 14 6 0 13 -4 16 -10z m60 -40 c3 -5 2 -10 -4 -10 -5 0 -13 5
-16 10 -3 6 -2 10 4 10 5 0 13 -4 16 -10z m-235 -19 c0 -6 -4 -12 -8 -15 -5
-3 -9 1 -9 9 0 8 4 15 9 15 4 0 8 -4 8 -9z m205 -19 c-7 -8 -35 7 -35 18 0 6
7 6 20 -2 10 -7 17 -14 15 -16z m-195 -43 l25 -20 -32 16 c-18 8 -33 18 -33
20 0 10 16 4 40 -16z m101 -25 c17 -8 28 -18 25 -21 -3 -3 -20 4 -38 16 -39
24 -30 28 13 5z m155 1 c14 -10 15 -14 5 -15 -11 0 -9 -4 5 -15 14 -10 15 -14
5 -15 -11 0 -10 -4 5 -15 17 -15 16 -15 -11 -1 -16 8 -39 22 -50 30 -19 15
-19 16 -1 9 13 -4 17 -3 12 5 -5 8 -1 10 11 6 16 -5 16 -4 -1 10 -25 20 -7 21
20 1z m-31 -63 c-3 -3 -11 0 -18 7 -9 10 -8 11 6 5 10 -3 15 -9 12 -12z m-198
-54 c-2 -12 -9 -23 -16 -24 -8 -2 -8 -1 0 3 8 4 7 8 -2 14 -11 7 -11 9 -1 9 7
0 10 5 7 10 -3 6 -1 10 4 10 6 0 9 -10 8 -22z m308 12 c3 -5 2 -10 -4 -10 -5
0 -13 5 -16 10 -3 6 -2 10 4 10 5 0 13 -4 16 -10z"/>
<path d="M1115 600 c3 -5 11 -10 16 -10 6 0 7 5 4 10 -3 6 -11 10 -16 10 -6 0
-7 -4 -4 -10z"/>
<path d="M1250 936 c0 -32 2 -35 43 -42 50 -9 58 -10 74 -12 6 -1 11 -11 10
-21 0 -11 -5 -17 -9 -15 -5 3 -6 10 -3 15 4 5 3 9 -2 10 -4 0 -20 3 -35 5 -16
3 -28 1 -29 -3 0 -4 -2 -25 -5 -45 -4 -32 -1 -38 13 -38 15 0 16 2 3 10 -13 9
-13 10 0 10 13 0 13 1 0 10 -13 8 -13 10 2 10 9 0 20 -4 23 -10 3 -5 2 -10 -4
-10 -13 0 -7 -30 9 -40 7 -4 20 -6 28 -2 10 3 13 1 8 -6 -3 -6 -2 -13 4 -17 6
-4 10 7 11 27 0 18 1 51 2 73 l2 40 57 3 c49 3 58 0 72 -20 19 -26 21 -69 4
-86 -8 -8 -8 -15 3 -29 13 -16 12 -17 -3 -5 -10 8 -23 10 -30 6 -7 -5 -22 -7
-33 -6 -20 3 -20 2 -1 -13 11 -8 15 -15 9 -15 -7 0 -18 6 -25 13 -7 8 -21 11
-31 8 -13 -5 4 -19 67 -56 69 -41 81 -51 65 -57 -10 -4 -26 -5 -35 -1 -14 5
-14 3 1 -26 9 -18 14 -39 11 -47 -3 -7 -1 -16 4 -19 6 -4 10 3 10 15 0 20 1
20 30 5 31 -16 42 -32 14 -21 -8 3 -24 1 -34 -4 -13 -7 -21 -7 -25 0 -8 12
-25 13 -25 2 0 -5 9 -13 19 -18 17 -8 17 -11 5 -22 -12 -11 -14 -10 -14 5 0
15 -2 15 -9 3 -15 -23 -4 -29 47 -25 26 2 53 4 61 4 11 1 10 5 -5 17 -18 14
-18 15 4 4 12 -6 22 -14 22 -19 0 -4 7 -8 15 -8 20 0 19 6 -2 24 -13 11 -10
10 9 -1 15 -9 29 -16 32 -16 10 0 -2 32 -15 41 -11 7 -11 9 4 9 10 0 16 4 12
10 -3 5 -12 7 -20 4 -16 -7 -51 44 -60 88 -4 15 -15 34 -26 42 -22 15 -21 58
2 64 11 3 11 1 -1 -7 -9 -6 -10 -11 -3 -11 13 0 53 47 53 62 0 5 -10 18 -22
29 l-23 19 28 -10 29 -10 -7 42 c-11 64 -30 85 -90 103 -59 17 -190 21 -165 5
13 -8 12 -10 -2 -10 -10 0 -18 5 -18 10 0 6 -25 10 -55 10 l-55 0 0 -34z m213
12 c-7 -12 12 -9 24 3 8 8 16 8 30 0 17 -11 17 -12 -3 -6 -14 4 -21 1 -21 -10
0 -9 6 -14 14 -11 8 3 11 1 8 -4 -9 -14 -15 -13 -60 14 -36 22 -37 24 -13 23
14 -1 24 -5 21 -9z m-138 -38 c4 -6 -10 -3 -29 7 -20 9 -36 20 -36 25 0 10 56
-18 65 -32z m275 4 c0 -2 -9 0 -20 6 -11 6 -20 13 -20 16 0 2 9 0 20 -6 11 -6
20 -13 20 -16z m-186 -4 c3 -3 -5 -6 -19 -5 -13 0 -26 2 -29 5 -3 3 5 6 19 5
13 0 26 -2 29 -5z m41 -8 c-3 -3 -11 0 -18 7 -9 10 -8 11 6 5 10 -3 15 -9 12
-12z m163 -22 c5 -13 -18 -3 -53 24 -18 15 -17 15 15 2 19 -8 36 -19 38 -26z
m-11 -35 c15 -9 19 -13 8 -10 -11 4 -29 8 -40 10 -34 4 -35 5 -35 14 0 13 32
6 67 -14z m-225 -42 c-6 -2 -10 -9 -6 -14 3 -5 1 -9 -5 -9 -5 0 -12 4 -15 9
-6 9 10 19 29 19 6 0 4 -2 -3 -5z m188 -13 c0 -5 -2 -10 -4 -10 -3 0 -8 5 -11
10 -3 6 -1 10 4 10 6 0 11 -4 11 -10z m44 -25 c-4 -8 -11 -12 -17 -8 -8 5 -7
8 1 11 7 2 9 9 6 14 -4 7 -2 8 4 4 6 -4 9 -13 6 -21z m-34 -105 c8 -5 12 -11
9 -14 -3 -3 -14 1 -25 9 -21 16 -8 20 16 5z m25 -60 c3 -6 -1 -7 -9 -4 -18 7
-21 14 -7 14 6 0 13 -4 16 -10z m-60 -10 c3 -5 1 -10 -4 -10 -6 0 -11 5 -11
10 0 6 2 10 4 10 3 0 8 -4 11 -10z"/>
<path d="M1718 964 c-5 -4 -8 -20 -8 -36 0 -22 5 -28 21 -28 12 0 17 4 13 11
-4 7 2 7 17 -1 33 -17 37 -22 15 -18 -10 1 -21 -3 -23 -9 -3 -7 2 -13 11 -13
8 0 18 -5 22 -12 5 -8 2 -9 -11 -4 -15 5 -16 4 -6 -8 9 -11 9 -16 0 -22 -8 -4
-9 -3 -5 4 4 7 3 12 -3 12 -6 0 -9 -16 -7 -37 2 -27 8 -38 26 -45 12 -5 25 -6
27 -4 3 2 -5 7 -16 11 -11 3 -19 14 -18 24 1 12 6 17 15 14 10 -4 11 -8 2 -13
-13 -8 16 -25 38 -21 6 1 12 -3 12 -9 0 -5 -3 -9 -7 -9 -24 4 -25 -4 -3 -22
21 -17 22 -19 3 -10 -27 14 -36 14 -28 1 3 -6 -1 -7 -10 -3 -12 4 -13 8 -5 13
8 5 7 9 -5 14 -30 11 -39 -6 -14 -26 14 -12 17 -18 8 -15 -13 4 -18 -2 -21
-22 -5 -35 0 -51 17 -51 21 0 27 -17 9 -24 -8 -3 -12 -2 -9 4 3 6 1 10 -4 10
-6 0 -11 -13 -11 -30 0 -21 -8 -35 -26 -46 -18 -12 -24 -24 -22 -43 3 -26 3
-26 93 -25 l90 0 3 35 c2 19 0 31 -3 27 -4 -4 -15 -3 -25 2 -13 7 -18 24 -19
70 -1 54 1 60 20 60 11 0 18 4 14 9 -7 13 58 -20 67 -33 5 -8 8 -7 8 1 0 7
-13 19 -30 28 -16 9 -30 18 -30 21 0 2 13 -2 30 -11 34 -18 44 -19 35 -4 -4 6
16 -1 44 -15 36 -19 49 -22 45 -11 -3 8 -9 14 -12 13 -4 -1 -25 8 -47 20 -46
24 -30 30 17 6 22 -11 28 -12 22 -2 -14 21 -13 37 1 32 13 -5 46 34 58 69 6
15 3 17 -16 12 -15 -4 -18 -3 -8 3 11 8 11 10 0 15 -11 4 -11 6 1 6 9 1 3 9
-14 20 -37 24 -42 47 -11 46 13 0 27 -4 32 -9 5 -5 3 -6 -4 -2 -7 4 -20 3 -29
-2 -15 -8 -15 -10 0 -15 11 -4 15 -3 10 4 -4 8 1 9 15 4 37 -11 25 23 -14 39
-19 8 -35 18 -35 21 0 3 9 1 21 -5 11 -7 23 -9 26 -7 3 3 -10 14 -29 24 -26
14 -62 18 -173 21 -77 2 -143 0 -147 -4z m195 -21 c-2 -7 20 -25 47 -40 28
-15 50 -32 50 -36 0 -5 -6 -5 -12 -2 -7 4 -4 -1 6 -9 11 -9 23 -16 28 -16 4 0
8 -5 8 -10 0 -7 -6 -7 -20 0 -26 14 -28 -6 -2 -27 16 -14 16 -14 0 -9 -11 3
-22 -2 -29 -15 -10 -19 -8 -20 13 -15 12 3 17 3 10 0 -6 -3 -10 -10 -6 -15 7
-12 -10 -11 -22 1 -8 8 -19 8 -38 0 -15 -5 -33 -7 -39 -3 -7 3 -3 -4 8 -17 21
-25 5 -20 -29 9 -10 9 -21 15 -24 13 -4 -1 -8 29 -10 68 l-4 70 27 0 c23 0 26
2 15 15 -11 13 -10 14 6 9 15 -5 16 -4 8 5 -6 7 -29 19 -50 27 l-39 14 50 -3
c31 -2 49 -7 48 -14z m-73 -123 c0 -5 -2 -10 -4 -10 -3 0 -8 5 -11 10 -3 6 -1
10 4 10 6 0 11 -4 11 -10z m225 -50 c3 -5 1 -10 -4 -10 -6 0 -11 5 -11 10 0 6
2 10 4 10 3 0 8 -4 11 -10z m-217 -94 c-7 -8 -17 -12 -22 -9 -4 3 -2 9 5 14
22 13 31 11 17 -5z m-63 -26 c3 -5 2 -10 -4 -10 -5 0 -13 5 -16 10 -3 6 -2 10
4 10 5 0 13 -4 16 -10z m55 -41 c0 -4 -7 -6 -15 -3 -8 4 -15 10 -15 15 0 4 7
6 15 3 8 -4 15 -10 15 -15z m0 -19 c13 -8 13 -10 -2 -10 -9 0 -20 5 -23 10 -8
13 5 13 25 0z m-34 -55 c2 -12 -2 -15 -14 -10 -21 9 -32 9 -57 1 -11 -4 -5 1
13 11 18 11 29 23 25 27 -4 5 1 4 11 -1 11 -6 21 -18 22 -28z m79 -15 c3 -5 0
-10 -7 -10 -10 0 -9 -3 2 -11 12 -8 12 -10 1 -7 -8 2 -15 12 -17 21 -2 19 11
23 21 7z m-140 -20 c3 -5 2 -10 -4 -10 -5 0 -13 5 -16 10 -3 6 -2 10 4 10 5 0
13 -4 16 -10z m110 -10 c3 -6 -1 -7 -9 -4 -18 7 -21 14 -7 14 6 0 13 -4 16
-10z"/>
<path d="M1910 900 c0 -5 10 -10 23 -10 18 0 19 2 7 10 -19 13 -30 13 -30 0z"/>
<path d="M2170 960 c0 -5 18 -19 39 -30 48 -24 65 -45 24 -29 -15 5 -33 15
-39 20 -8 6 -13 5 -17 -5 -4 -10 2 -16 16 -18 19 -3 22 -9 23 -58 2 -83 3 -90
14 -90 12 0 9 22 -5 32 -15 12 7 10 25 -2 8 -5 10 -10 3 -10 -6 0 -10 -8 -8
-17 2 -10 4 -18 5 -18 1 0 3 -8 5 -17 2 -10 -1 -18 -6 -18 -6 0 -7 -4 -4 -10
3 -5 2 -10 -4 -10 -5 0 -13 5 -16 10 -3 6 -1 10 5 10 6 0 8 5 5 10 -3 6 0 10
7 10 9 0 9 3 -2 10 -11 7 -16 4 -21 -13 -8 -32 0 -53 24 -66 l22 -12 -22 5
c-16 3 -23 -2 -28 -21 -3 -14 -5 -26 -3 -27 2 -1 16 -8 31 -16 16 -8 24 -16
18 -18 -6 -2 -9 -7 -6 -12 3 -4 -2 -10 -10 -14 -8 -3 -17 -1 -20 5 -4 5 1 12
10 15 13 6 14 8 3 15 -18 12 -31 11 -23 -1 3 -5 -6 -17 -20 -26 -19 -12 -25
-24 -23 -43 3 -26 3 -26 93 -25 l90 0 3 32 c2 24 -1 34 -15 39 -21 8 -70 53
-57 53 5 0 2 5 -6 11 -12 9 -11 10 7 6 15 -3 23 1 27 17 9 32 7 36 -13 36 -11
0 -23 5 -26 10 -4 7 3 9 22 5 25 -5 26 -4 6 4 -25 11 -32 27 -8 17 8 -3 16 0
16 7 5 40 2 53 -16 64 -15 9 -16 12 -5 13 11 0 10 3 -4 11 -15 9 -16 13 -5 20
8 5 19 9 24 9 6 0 3 -5 -5 -10 -12 -7 -12 -10 -1 -10 7 0 11 -6 7 -15 -3 -8
-1 -15 5 -15 5 0 8 12 5 28 -2 15 -5 32 -5 38 -1 7 -11 14 -23 18 -22 5 -22 6
-3 20 19 14 19 15 1 22 -16 6 -16 8 -3 16 8 4 22 5 31 2 13 -5 12 -9 -4 -27
-11 -11 -17 -23 -14 -26 3 -3 11 2 18 12 7 9 21 17 30 17 12 0 16 9 16 35 l0
35 -95 0 c-55 0 -95 -4 -95 -10z m177 -15 c0 -8 -4 -12 -9 -9 -5 3 -6 10 -3
15 9 13 12 11 12 -6z m-92 -105 c3 -6 -1 -7 -9 -4 -18 7 -21 14 -7 14 6 0 13
-4 16 -10z m51 -108 c-4 -3 -14 2 -24 12 -16 18 -16 18 6 6 13 -6 21 -14 18
-18z m-1 -82 c3 -5 2 -10 -4 -10 -5 0 -13 5 -16 10 -3 6 -2 10 4 10 5 0 13 -4
16 -10z m-63 -27 c-10 -4 -9 -8 5 -19 20 -15 6 -19 -16 -5 -15 10 -7 31 12 30
8 0 8 -2 -1 -6z m-40 -108 c0 -5 -5 -10 -11 -12 -8 -1 -7 0 0 4 8 4 7 8 -2 15
-11 8 -11 9 -1 6 8 -2 14 -8 14 -13z m137 6 c9 -6 10 -14 4 -25 -9 -16 -11
-16 -23 -1 -11 13 -10 15 6 9 18 -5 18 -5 0 10 -21 17 -11 22 13 7z"/>
<path d="M2407 963 c-4 -3 -7 -19 -7 -35 0 -21 5 -28 19 -28 21 0 32 -45 28
-105 -3 -36 9 -65 26 -65 9 0 8 3 -1 9 -8 4 -11 19 -8 34 2 15 -1 28 -7 31 -7
2 -4 5 5 5 9 1 20 -3 23 -9 3 -5 14 -10 24 -10 10 0 18 -7 18 -15 0 -13 -3
-13 -23 0 -30 19 -31 19 -30 -5 0 -10 10 -26 21 -35 19 -14 19 -15 1 -8 -13 4
-17 3 -12 -5 9 -15 1 -15 -24 -2 -16 9 -19 6 -18 -20 1 -19 6 -30 15 -30 12 0
12 -3 -1 -16 -10 -9 -16 -33 -16 -61 0 -36 -4 -46 -20 -50 -28 -8 -29 -73 -1
-73 31 0 51 11 44 24 -5 8 -3 8 8 0 8 -6 29 -12 47 -12 l33 -1 -37 30 c-36 29
-61 38 -49 19 3 -5 2 -10 -4 -10 -5 0 -13 5 -16 10 -3 6 -1 10 5 10 6 0 8 5 5
10 -11 18 13 11 42 -13 45 -37 87 -61 107 -62 16 -2 14 3 -10 22 -26 22 -26
24 -4 13 14 -7 31 -18 39 -24 14 -11 120 -16 122 -6 9 43 4 67 -15 83 -20 17
-20 18 -1 15 11 -2 21 4 23 13 2 12 -6 18 -32 21 -39 4 -56 -6 -56 -34 0 -15
-9 -18 -65 -18 l-65 0 0 59 c0 48 -3 61 -17 65 -15 4 -15 5 2 4 98 -2 185 4
185 13 0 6 -10 8 -22 5 -13 -3 -17 -3 -10 0 10 5 10 9 0 22 -12 13 -10 14 10
3 20 -11 22 -10 22 14 0 25 -1 25 -85 25 l-86 0 3 58 3 57 60 3 c44 2 65 -2
80 -13 17 -14 18 -16 2 -11 -10 3 -16 2 -12 -3 3 -5 -1 -12 -7 -14 -7 -3 7 -6
32 -6 44 -1 46 0 45 30 0 20 -8 37 -25 50 -20 16 -21 18 -4 10 24 -12 34 -6
34 21 0 17 -12 18 -162 18 -108 0 -158 -4 -148 -10 8 -5 22 -7 32 -4 9 2 19 0
23 -5 4 -7 -1 -8 -11 -4 -12 4 -15 3 -10 -5 9 -15 1 -15 -25 -2 -25 14 -22 -9
4 -28 19 -14 23 -32 7 -32 -5 0 -9 3 -7 8 1 4 -8 17 -20 29 -13 13 -20 29 -17
38 6 16 2 20 -9 8z m182 -17 c0 -5 12 -17 27 -27 l28 -18 -35 1 c-19 1 -28 3
-21 6 8 2 -1 14 -25 28 l-38 23 33 -2 c18 -1 32 -6 31 -11z m46 4 c3 -6 -1 -7
-9 -4 -18 7 -21 14 -7 14 6 0 13 -4 16 -10z m-95 -61 c0 -4 -6 -11 -12 -15 -7
-4 -10 -4 -6 1 4 4 -3 16 -15 26 l-22 19 28 -11 c15 -7 27 -16 27 -20z m187
-1 c14 -11 5 -41 -9 -32 -6 4 -5 10 3 15 8 5 9 9 3 9 -5 0 -19 7 -30 15 -19
15 -19 15 1 8 11 -3 25 -10 32 -15z m-102 -138 c3 -6 -1 -7 -9 -4 -18 7 -21
14 -7 14 6 0 13 -4 16 -10z m-99 -115 c1 -8 -2 -15 -6 -15 -5 0 -8 9 -7 20 1
21 10 18 13 -5z m174 -45 c-10 -6 -9 -9 1 -12 15 -5 3 -28 -14 -28 -8 0 -7 3
2 9 9 6 10 10 2 12 -7 3 -9 12 -6 22 4 9 12 14 17 11 6 -4 6 -9 -2 -14z m-190
-24 c0 -3 -13 1 -30 7 -16 6 -30 15 -30 19 0 5 14 2 30 -7 17 -9 30 -17 30
-19z m240 24 c0 -5 -2 -10 -4 -10 -3 0 -8 5 -11 10 -3 6 -1 10 4 10 6 0 11 -4
11 -10z m-105 -51 c10 -15 -15 -20 -35 -6 -20 14 -20 15 5 15 14 0 28 -4 30
-9z m101 -19 c-1 -33 -4 -35 -26 -20 -13 9 -13 12 2 24 10 7 15 16 11 19 -3 4
-2 7 4 7 6 0 10 -13 9 -30z m-311 0 c3 -6 -1 -7 -9 -4 -18 7 -21 14 -7 14 6 0
13 -4 16 -10z"/>
<path d="M2805 947 c-8 -32 0 -47 26 -47 10 0 19 -4 19 -10 0 -5 5 -10 11 -10
5 0 7 5 3 12 -4 6 -3 8 4 4 6 -3 8 -18 6 -33 -3 -15 0 -30 8 -34 10 -6 8 -9
-6 -9 -14 0 -17 6 -14 25 3 14 1 25 -3 25 -5 0 -9 -17 -9 -37 -1 -101 -2 -200
-1 -219 1 -12 12 -26 27 -33 15 -6 24 -14 21 -17 -3 -3 -14 -1 -25 5 -16 9
-21 7 -25 -8 -3 -13 0 -18 8 -15 7 3 15 1 18 -3 3 -5 -11 -9 -31 -8 -33 0 -37
-3 -40 -26 -4 -31 17 -43 53 -29 16 6 25 6 25 0 0 -5 16 -9 35 -8 19 1 32 5
29 10 -3 5 -12 7 -18 5 -7 -3 -13 1 -13 8 0 15 24 9 48 -12 20 -17 29 -8 29
29 0 22 -5 28 -21 28 -12 0 -23 8 -26 20 -3 11 -10 20 -17 20 -6 0 -4 5 4 10
8 5 10 10 4 10 -5 0 -19 7 -30 16 -19 15 -12 15 29 -1 15 -6 18 -3 15 21 -3
27 0 29 35 32 22 2 35 7 31 13 -3 6 19 -4 50 -21 30 -17 61 -28 67 -24 7 4 9
3 5 -4 -3 -6 2 -15 11 -21 25 -14 7 -14 -20 0 -12 7 -30 13 -42 13 -11 1 -19
7 -17 14 1 7 -2 12 -8 12 -13 0 -13 -3 5 -48 9 -21 26 -43 38 -48 12 -6 15 -9
7 -7 -10 2 -8 -2 5 -13 20 -16 20 -16 -4 -9 -16 5 -21 4 -17 -4 9 -14 -26 -2
-36 13 -4 6 -8 -6 -8 -26 0 -38 0 -38 41 -38 38 0 40 2 28 17 -13 15 -12 15 8
5 27 -15 36 -15 28 -2 -3 5 -2 10 4 10 5 0 13 -4 16 -10 3 -5 20 -10 36 -10
28 0 30 2 27 32 -2 22 -9 32 -22 34 -10 1 -22 8 -26 14 -4 7 -10 11 -14 10 -4
-1 -12 1 -19 3 -7 3 -5 6 5 6 15 1 15 5 -4 49 -11 26 -26 53 -34 61 -11 12 -8
19 23 46 31 27 37 38 41 86 4 52 3 55 -19 56 -17 2 -20 0 -10 -7 8 -4 16 -15
17 -24 2 -12 -2 -14 -16 -6 -10 5 -17 18 -15 27 1 10 -7 26 -19 36 -21 18 -20
18 11 3 49 -24 51 -19 10 19 -21 20 -42 33 -48 30 -5 -4 -6 -11 -3 -17 4 -5
-4 -4 -17 2 -35 18 -38 23 -9 16 19 -6 21 -5 10 3 -8 6 -49 11 -90 11 -41 0
-69 -4 -62 -8 7 -5 32 -7 57 -6 45 2 66 -8 44 -22 -8 -4 -9 -3 -5 4 4 7 3 12
-3 12 -30 0 -15 -22 34 -50 50 -29 73 -49 42 -37 -9 3 -12 -5 -9 -29 6 -51
-20 -84 -64 -84 -26 0 -35 -4 -31 -14 4 -9 -12 -5 -44 11 -52 26 -64 39 -26
28 21 -7 21 -6 3 7 -17 14 -17 15 -2 21 12 5 15 3 10 -6 -4 -7 -3 -9 2 -4 5 5
9 27 9 50 l0 42 54 3 55 3 -43 26 c-23 13 -54 26 -69 28 -14 1 -28 8 -30 14
-2 6 -22 11 -43 11 -30 0 -38 -3 -32 -12 14 -23 12 -40 -4 -34 -8 3 -17 6 -19
6 -2 0 -4 4 -4 10 0 5 8 7 18 4 10 -4 13 -2 7 3 -5 4 -13 12 -17 17 -4 5 -10
-3 -13 -17z m125 -47 c12 -7 12 -12 2 -22 -9 -9 -15 -9 -24 1 -11 10 -9 11 7
6 20 -7 20 -6 1 9 -21 17 -11 22 14 6z m195 -68 c-3 -3 -11 0 -18 7 -9 10 -8
11 6 5 10 -3 15 -9 12 -12z m-241 -31 c3 -5 0 -11 -7 -14 -8 -3 -14 1 -14 9 0
16 13 19 21 5z m241 -1 c3 -5 1 -10 -5 -10 -6 0 -8 -4 -5 -10 4 -6 -1 -7 -11
-3 -11 4 -13 8 -6 11 7 2 10 8 6 13 -3 5 -1 9 5 9 5 0 13 -4 16 -10z m55 0 c0
-5 -7 -7 -15 -4 -8 4 -15 8 -15 10 0 2 7 4 15 4 8 0 15 -4 15 -10z m-16 -29
c3 -5 0 -11 -7 -14 -8 -3 -14 1 -14 9 0 16 13 19 21 5z m-244 -57 c0 -2 -13 2
-30 11 -16 9 -30 20 -30 26 0 6 14 1 30 -11 17 -12 30 -23 30 -26z m124 11
c11 -8 15 -15 10 -15 -6 0 -19 7 -30 15 -10 8 -14 14 -9 14 6 0 19 -6 29 -14z
m-44 -31 c0 -2 -9 0 -20 6 -11 6 -20 13 -20 16 0 2 9 0 20 -6 11 -6 20 -13 20
-16z m95 16 c3 -5 0 -10 -7 -10 -7 0 2 -9 21 -21 18 -11 31 -23 28 -26 -10 -9
-64 35 -64 51 0 18 13 21 22 6z m-215 -60 c13 -8 13 -10 -2 -10 -9 0 -20 5
-23 10 -8 13 5 13 25 0z m5 -50 c3 -5 2 -10 -4 -10 -5 0 -13 5 -16 10 -3 6 -2
10 4 10 5 0 13 -4 16 -10z m231 -25 c18 -13 18 -14 -4 -8 -12 3 -25 9 -28 14
-8 14 10 11 32 -6z m-142 -56 c20 -19 -1 -17 -29 2 -28 19 -28 20 -5 14 14 -4
29 -11 34 -16z m-134 1 c8 -5 11 -10 5 -10 -5 0 -17 5 -25 10 -8 5 -10 10 -5
10 6 0 17 -5 25 -10z m373 -2 c-2 -5 1 -8 6 -8 6 0 11 -5 11 -10 0 -6 -13 -4
-30 5 -36 19 -38 23 -6 21 13 0 22 -4 19 -8z m-128 -18 c3 -6 -1 -7 -9 -4 -18
7 -21 14 -7 14 6 0 13 -4 16 -10z"/>
<path d="M4033 936 c-2 -29 1 -35 20 -38 19 -3 22 -9 23 -48 1 -24 6 -46 11
-47 6 -2 18 -9 27 -16 16 -12 16 -13 -3 -13 -11 0 -17 4 -15 8 3 4 0 8 -5 8
-20 0 -11 -27 12 -39 22 -11 22 -11 -3 -6 -24 5 -24 5 3 -10 32 -19 30 -33 -2
-15 -19 9 -21 8 -21 -13 0 -15 8 -28 23 -35 12 -6 16 -11 9 -11 -7 -1 -10 -5
-7 -11 3 -5 2 -10 -4 -10 -15 0 -23 17 -11 23 6 3 5 4 -2 3 -7 -2 -11 -11 -10
-21 2 -10 1 -38 -3 -62 -5 -34 -10 -43 -26 -43 -15 0 -19 -7 -19 -33 l0 -32
96 0 c78 0 99 3 107 16 16 26 1 52 -28 47 -25 -5 -35 7 -35 41 0 10 -12 24
-27 31 -16 7 -23 15 -15 17 6 3 10 9 7 14 -4 5 1 6 10 2 12 -4 13 -8 5 -13 -8
-5 -7 -9 5 -14 9 -3 18 -6 19 -6 10 0 -10 68 -23 77 -10 7 -11 12 -4 13 6 0
15 -4 18 -10 8 -14 75 -13 75 1 0 6 -7 8 -16 5 -8 -3 -13 -2 -10 3 3 5 -1 12
-10 15 -9 4 -14 9 -11 12 9 9 68 -26 62 -36 -7 -11 54 -14 79 -4 18 7 22 34 5
34 -5 0 -8 -4 -4 -9 3 -5 2 -12 -3 -15 -4 -2 -8 6 -8 20 0 16 4 23 13 20 8 -3
13 2 13 12 0 15 -11 17 -87 17 l-88 0 -1 66 c-2 63 -1 66 20 62 20 -5 20 -5 2
9 -18 14 -18 15 -1 22 10 3 20 4 23 1 3 -3 0 -5 -7 -5 -9 0 -8 -4 3 -15 8 -8
31 -15 53 -14 21 0 31 3 23 6 -8 3 -34 19 -59 35 -58 37 -26 37 37 1 54 -32
102 -42 81 -17 -10 12 -9 13 5 8 11 -4 16 -2 14 6 -2 7 4 15 12 17 13 4 13 3
0 -6 -13 -10 -13 -11 0 -11 13 0 13 -1 0 -10 -10 -6 -11 -10 -2 -10 6 0 12 -4
12 -10 0 -5 -8 -7 -17 -3 -15 5 -14 3 2 -10 11 -9 15 -17 8 -17 -6 0 -14 4
-18 9 -11 18 -43 7 -48 -16 -4 -21 0 -23 34 -23 43 0 48 9 47 88 l0 42 -70 0
c-62 0 -69 -2 -58 -15 11 -13 10 -14 -4 -9 -9 3 -16 10 -16 15 0 5 -28 9 -61
9 -54 0 -60 -2 -49 -15 11 -13 10 -14 -4 -9 -9 3 -16 10 -16 15 0 5 -19 9 -42
9 -42 0 -43 -1 -45 -34z m31 -12 c3 -8 2 -12 -4 -9 -6 3 -10 10 -10 16 0 14 7
11 14 -7z m186 -14 c13 -8 13 -10 -2 -10 -9 0 -20 5 -23 10 -8 13 5 13 25 0z
m-135 -20 c3 -6 -1 -7 -9 -4 -18 7 -21 14 -7 14 6 0 13 -4 16 -10z m42 -25 c0
-17 -13 -20 -21 -6 -4 5 0 12 6 14 7 3 13 6 14 6 0 1 1 -6 1 -14z m98 -123
c-3 -3 -11 0 -18 7 -9 10 -8 11 6 5 10 -3 15 -9 12 -12z m-140 -142 c3 -5 2
-10 -4 -10 -5 0 -13 5 -16 10 -3 6 -2 10 4 10 5 0 13 -4 16 -10z m42 -25 c0
-17 -13 -20 -21 -6 -4 5 0 12 6 14 7 3 13 6 14 6 0 1 1 -6 1 -14z m-42 -11
c20 -16 20 -16 -1 -10 -14 4 -21 2 -21 -8 0 -8 7 -12 16 -9 9 2 6 -2 -7 -9
-12 -8 -20 -17 -16 -20 3 -4 -4 -4 -15 -1 -12 3 -24 10 -27 15 -4 6 1 8 13 4
13 -4 20 -1 21 9 1 8 3 22 4 30 2 19 8 18 33 -1z m108 -43 c17 -2 5 -22 -20
-32 -19 -7 -29 -6 -37 2 -8 9 -6 10 9 5 17 -5 16 -3 -4 13 l-25 19 35 -3 c19
-2 37 -3 42 -4z m-78 -31 c3 -5 2 -10 -4 -10 -5 0 -13 5 -16 10 -3 6 -2 10 4
10 5 0 13 -4 16 -10z"/>
<path d="M4197 509 c7 -7 15 -10 18 -7 3 3 -2 9 -12 12 -14 6 -15 5 -6 -5z"/>
<path d="M4430 935 c0 -28 4 -35 20 -35 13 0 20 -7 20 -20 0 -11 6 -20 14 -20
7 0 20 -7 27 -17 13 -15 12 -15 -8 -5 -27 15 -33 15 -33 2 0 -5 6 -10 14 -10
20 0 29 -17 15 -26 -8 -4 -9 -3 -5 4 4 7 2 12 -3 12 -23 0 -9 -26 25 -48 20
-13 33 -18 28 -11 -5 9 -2 11 9 6 14 -5 17 4 19 56 l3 62 50 5 c33 3 44 7 33
12 -10 4 -26 5 -35 2 -14 -5 -15 -4 -4 4 11 8 7 13 -18 26 -39 20 -39 26 -2
23 16 -1 29 -5 28 -10 -1 -4 23 -23 53 -42 30 -19 50 -35 45 -35 -6 0 -17 6
-25 13 -7 6 -6 1 3 -13 10 -13 17 -37 17 -52 0 -30 -31 -68 -55 -68 -20 0 -19
-10 3 -26 16 -13 16 -14 -2 -7 -13 4 -17 3 -12 -5 5 -8 1 -10 -10 -5 -11 4
-13 8 -6 11 14 4 6 22 -9 22 -6 0 -7 -4 -4 -10 9 -15 -2 -12 -31 6 -13 9 -27
14 -30 12 -3 -3 24 -22 60 -42 61 -34 97 -63 62 -50 -9 3 -16 1 -16 -5 0 -6 8
-11 18 -11 9 0 26 -8 37 -17 20 -16 16 -16 -30 3 -11 5 -13 2 -9 -10 3 -9 9
-14 13 -12 4 3 20 -4 37 -16 18 -13 22 -18 9 -14 -16 5 -15 3 5 -13 l25 -20
-24 6 c-13 3 -26 14 -28 25 -3 10 -9 18 -13 18 -5 0 -6 -9 -3 -20 3 -12 -1
-22 -11 -26 -10 -4 -16 -18 -16 -39 l0 -34 58 4 c75 4 74 3 67 15 -3 6 1 13 9
16 9 3 13 10 10 15 -3 5 2 6 11 2 12 -4 13 -8 5 -13 -9 -6 -9 -9 1 -14 8 -3 3
-3 -11 0 -24 5 -24 4 -6 -10 15 -12 23 -13 33 -4 10 8 11 13 2 18 -8 6 -8 9 1
15 14 8 -43 64 -85 83 -14 7 -23 16 -20 22 3 5 -4 14 -16 20 -11 7 -18 14 -16
17 3 2 17 -3 32 -13 17 -11 22 -20 15 -24 -8 -5 -4 -9 8 -12 18 -5 19 -3 10
18 -6 13 -16 24 -22 24 -6 0 -22 10 -36 21 l-25 20 32 -16 33 -15 -12 25 c-10
22 -8 27 15 45 37 30 52 91 36 149 -7 25 -14 40 -17 33 -2 -8 -12 -7 -34 4
-35 18 -31 31 4 14 22 -11 22 -10 4 4 -11 9 -28 16 -37 16 -10 0 -21 5 -24 10
-4 7 -45 10 -101 9 -54 -1 -91 -5 -88 -11 3 -5 15 -6 27 -3 12 2 16 2 9 -1 -6
-3 -10 -10 -6 -15 3 -5 -6 -4 -20 3 -14 6 -26 15 -26 20 0 4 -16 8 -35 8 -33
0 -35 -2 -35 -35z m27 10 c0 -8 -4 -15 -9 -15 -10 0 -11 14 -1 23 9 10 10 9
10 -8z m208 5 c3 -6 -1 -7 -9 -4 -18 7 -21 14 -7 14 6 0 13 -4 16 -10z m-75
-44 c0 -2 -7 -7 -16 -10 -8 -3 -12 -2 -9 4 6 10 25 14 25 6z m-42 -25 c18 -11
13 -81 -6 -74 -7 3 -10 9 -5 12 14 10 9 51 -7 61 -8 5 -10 10 -5 10 6 0 16 -4
23 -9z m257 -31 c-3 -5 -13 -6 -21 -3 -12 4 -13 8 -3 14 15 9 32 2 24 -11z
m-58 -55 c0 -8 -4 -15 -9 -15 -5 0 -6 -5 -2 -12 4 -6 3 -8 -4 -5 -5 4 -8 16
-5 27 6 23 20 27 20 5z m-192 -13 c-3 -3 -11 0 -18 7 -9 10 -8 11 6 5 10 -3
15 -9 12 -12z m207 -42 c-9 -10 -20 -16 -24 -13 -11 6 13 30 29 30 9 0 7 -6
-5 -17z m-32 -30 c8 -5 12 -11 9 -14 -3 -3 -14 1 -25 9 -21 16 -8 20 16 5z
m10 -186 c0 -2 -7 -4 -15 -4 -8 0 -15 4 -15 10 0 5 7 7 15 4 8 -4 15 -8 15
-10z m-35 -24 c3 -5 1 -10 -4 -10 -6 0 -11 5 -11 10 0 6 2 10 4 10 3 0 8 -4
11 -10z"/>
<path d="M4898 965 c-11 -11 5 -65 19 -65 13 0 13 3 3 15 -18 21 3 19 31 -3
17 -15 19 -21 9 -27 -9 -5 -11 -4 -6 3 4 7 3 12 -3 12 -5 0 -11 -39 -13 -90
-2 -75 0 -90 13 -93 9 -2 16 -12 16 -21 0 -21 -14 -21 -20 2 -3 9 -5 -3 -6
-28 0 -25 3 -40 7 -33 5 8 13 9 22 3 12 -8 12 -10 1 -10 -11 0 -11 -3 0 -17
13 -15 12 -15 -8 -4 -22 11 -23 10 -23 -18 0 -22 -8 -35 -26 -47 -18 -12 -24
-24 -22 -43 3 -25 6 -26 60 -26 31 0 54 3 51 8 -3 5 3 5 13 -1 16 -8 39 -9 77
-3 5 0 5 6 1 12 -3 6 5 3 20 -6 29 -19 36 -10 9 12 -11 9 -12 12 -3 7 8 -4 22
-13 31 -21 9 -7 23 -11 32 -7 17 6 14 24 -4 24 -6 0 -7 -5 -3 -12 5 -7 3 -8
-5 -3 -9 5 -10 10 -2 18 7 7 18 5 35 -7 41 -26 46 -21 46 50 l0 65 -42 -3
c-35 -2 -42 -6 -40 -21 2 -12 -4 -21 -18 -24 -16 -4 -18 -8 -9 -19 10 -12 9
-13 -5 -8 -9 3 -16 11 -16 16 0 6 -14 8 -33 5 -34 -5 -81 13 -83 32 -1 6 -2
12 -4 14 -6 8 -7 37 0 37 10 0 8 20 -3 37 -6 9 -3 11 7 7 11 -4 14 0 11 16 -4
21 -3 21 20 6 16 -11 47 -16 95 -16 60 0 70 2 70 18 0 9 -4 13 -8 7 -8 -12
-47 -13 -58 -2 -5 4 0 5 10 1 13 -5 17 -4 12 4 -5 8 -1 10 10 5 13 -5 15 -3 9
7 -6 10 -4 12 8 7 13 -5 17 -1 17 16 0 18 -2 19 -10 7 -6 -10 -10 -11 -10 -2
0 8 -17 12 -51 12 -45 0 -50 -2 -39 -15 9 -11 9 -15 1 -15 -6 0 -14 7 -17 15
-4 8 -12 15 -20 15 -18 0 -28 42 -20 85 7 34 8 35 57 35 32 0 48 4 44 10 -4 6
-15 8 -25 5 -10 -3 -21 -1 -25 4 -4 7 1 8 12 5 12 -4 10 0 -7 15 -14 11 -30
19 -37 17 -6 -3 -19 2 -30 9 -17 13 -114 21 -125 10z m27 -23 c-3 -3 -11 0
-18 7 -9 10 -8 11 6 5 10 -3 15 -9 12 -12z m105 -64 c0 -5 -9 -4 -20 2 -11 6
-20 12 -20 14 0 2 9 2 20 -1 11 -3 20 -9 20 -15z m-62 -29 c10 -13 10 -18 -1
-22 -8 -3 -14 4 -15 21 -1 14 -1 24 1 21 1 -2 8 -11 15 -20z m20 -55 c12 -8
26 -13 30 -10 5 3 9 -1 9 -8 0 -8 -7 -12 -16 -9 -9 3 -5 -5 9 -16 25 -22 25
-22 -22 0 -32 15 -46 28 -45 41 2 22 6 22 35 2z m-3 -48 c19 -14 18 -14 -6
-13 -14 1 -26 8 -26 15 0 16 9 15 32 -2z m-10 -86 c3 -6 -1 -7 -9 -4 -18 7
-21 14 -7 14 6 0 13 -4 16 -10z m262 -75 c0 -17 -13 -20 -21 -6 -4 5 0 12 6
14 7 3 13 6 14 6 0 1 1 -6 1 -14z m-253 -10 c11 -8 15 -15 10 -15 -6 0 -19 7
-30 15 -10 8 -14 14 -9 14 6 0 19 -6 29 -14z m-24 -46 c13 -9 12 -10 -2 -5
-22 7 -50 -3 -42 -15 3 -5 0 -9 -5 -9 -17 0 -13 18 7 29 22 13 24 13 42 0z
m277 -19 c-1 -21 -10 -18 -13 5 -1 8 2 15 6 15 5 0 8 -9 7 -20z"/>
<path d="M4970 780 c8 -5 20 -10 25 -10 6 0 3 5 -5 10 -8 5 -19 10 -25 10 -5
0 -3 -5 5 -10z"/>
<path d="M5030 961 c8 -6 17 -8 21 -5 5 2 30 -9 58 -26 56 -35 103 -48 99 -28
-2 7 -10 19 -18 26 -13 11 -12 12 9 6 15 -4 21 -2 17 4 -3 6 -2 13 3 16 12 8
8 -37 -4 -46 -6 -5 -5 -8 3 -8 15 0 16 -36 0 -46 -7 -4 -8 -3 -4 4 8 13 -23
31 -41 25 -7 -3 -13 -14 -13 -24 0 -17 6 -20 38 -17 l37 3 3 63 3 62 -113 0
c-73 0 -108 -4 -98 -9z"/>
<path d="M5307 963 c-4 -3 -7 -19 -7 -35 0 -21 5 -28 20 -28 18 0 20 -7 20
-84 0 -78 1 -84 23 -91 13 -4 17 -8 9 -12 -6 -2 -9 -10 -6 -15 4 -7 2 -8 -5
-4 -6 4 -9 12 -6 17 4 5 1 9 -4 9 -7 0 -11 -32 -11 -86 0 -76 -2 -86 -19 -91
-21 -5 -35 -29 -23 -37 5 -3 14 -1 22 5 13 7 13 9 1 9 -8 0 -12 3 -8 6 14 14
26 -7 15 -26 -7 -10 -16 -16 -20 -14 -4 3 -8 0 -8 -7 0 -8 12 -10 38 -5 20 3
46 6 56 6 20 0 20 0 0 15 -19 15 -19 15 1 8 11 -3 23 -11 26 -16 4 -5 32 -10
64 -11 l57 -2 -29 24 -28 24 30 -16 c17 -9 37 -21 46 -28 10 -7 30 -8 54 -4
l38 8 -29 19 c-16 10 -23 19 -16 19 7 0 11 4 8 9 -4 5 3 7 14 4 25 -7 27 14 3
34 -17 14 -17 14 0 9 12 -4 17 0 17 13 0 10 -6 18 -12 18 -7 0 -25 4 -40 8
-26 7 -28 5 -28 -24 0 -27 -4 -31 -27 -32 -16 -1 -35 -1 -43 0 -8 1 -1 -7 15
-18 33 -23 29 -27 -10 -9 -14 6 -25 15 -25 20 0 4 -9 8 -20 8 -18 0 -20 7 -20
65 l0 64 83 3 82 3 3 31 c4 38 -11 44 -105 44 l-63 0 0 59 0 59 61 4 c44 2 68
-2 86 -13 24 -16 24 -16 4 -22 -12 -3 -19 -1 -15 4 3 5 0 9 -5 9 -6 0 -11 -7
-11 -16 0 -12 9 -14 43 -12 l42 3 0 60 0 60 -70 2 c-64 3 -68 2 -51 -12 11 -8
15 -15 9 -15 -7 0 -18 7 -27 15 -16 17 -91 21 -81 5 3 -5 1 -10 -4 -10 -6 0
-11 5 -11 10 0 11 -93 14 -103 3z m53 -29 c0 -2 -9 0 -20 6 -11 6 -20 13 -20
16 0 2 9 0 20 -6 11 -6 20 -13 20 -16z m130 21 c0 -7 -30 -13 -34 -7 -3 4 4 9
15 9 10 1 19 0 19 -2z m140 -35 c0 -5 -2 -10 -4 -10 -3 0 -8 5 -11 10 -3 6 -1
10 4 10 6 0 11 -4 11 -10z m-125 -18 c-3 -3 -11 0 -18 7 -9 10 -8 11 6 5 10
-3 15 -9 12 -12z m-72 -9 c-4 -10 -10 -10 -26 -1 -33 16 -32 18 0 15 19 -1 29
-6 26 -14z m-58 -23 c3 -5 0 -10 -7 -10 -9 0 -9 -3 2 -10 13 -8 13 -10 -2 -10
-11 0 -16 7 -15 20 1 21 12 26 22 10z m45 -20 c-9 -6 -10 -10 -3 -10 6 0 11
-9 10 -20 -1 -21 -12 -26 -22 -10 -3 6 0 10 7 10 7 0 5 5 -6 11 -15 9 -16 13
-5 20 8 5 19 9 24 9 6 0 3 -5 -5 -10z m-25 -55 c30 -11 34 -15 15 -14 -47 2
-57 0 -41 -10 8 -5 19 -8 25 -7 6 2 7 1 3 -2 -4 -2 0 -10 10 -18 15 -12 13
-12 -17 0 -26 10 -36 21 -38 40 -2 14 -2 26 0 26 2 0 21 -7 43 -15z m105 -45
c8 -5 11 -10 5 -10 -5 0 -17 5 -25 10 -8 5 -10 10 -5 10 6 0 17 -5 25 -10z
m100 -10 c0 -5 -7 -7 -15 -4 -8 4 -15 8 -15 10 0 2 7 4 15 4 8 0 15 -4 15 -10z
m-184 -48 c16 -11 13 -61 -4 -55 -10 4 -11 8 -2 13 18 11 17 18 -5 34 -20 15
-10 23 11 8z m-49 -19 c-4 -3 1 -12 11 -19 11 -9 13 -13 4 -14 -7 0 -10 -4 -7
-10 4 -6 -1 -7 -11 -3 -13 5 -14 8 -5 11 10 3 11 6 1 12 -12 7 -6 30 7 30 4 0
3 -3 0 -7z m58 -61 c-3 -3 -11 0 -18 7 -9 10 -8 11 6 5 10 -3 15 -9 12 -12z
m180 -12 c3 -5 1 -10 -5 -10 -6 0 -8 -4 -5 -10 3 -5 1 -10 -4 -10 -6 0 -11 9
-11 20 0 21 15 27 25 10z m-214 -50 l24 -21 -32 16 c-32 15 -42 25 -24 25 5 0
19 -9 32 -20z m199 0 c-8 -5 -19 -10 -25 -10 -5 0 -3 5 5 10 8 5 20 10 25 10
6 0 3 -5 -5 -10z m-105 -60 c3 -5 2 -10 -4 -10 -5 0 -13 5 -16 10 -3 6 -2 10
4 10 5 0 13 -4 16 -10z"/>
<path d="M2080 845 c5 -7 7 -15 3 -18 -3 -4 -1 -7 5 -7 7 0 12 8 12 18 0 10
-7 19 -15 19 -10 0 -12 -4 -5 -12z"/>
<path d="M1290 770 c0 -5 12 -18 28 -30 18 -14 20 -18 5 -11 -16 8 -22 7 -27
-5 -11 -28 -6 -44 12 -44 15 0 15 2 2 11 -13 9 -13 10 0 6 8 -2 14 -10 13 -16
-2 -6 1 -11 6 -11 6 0 9 -9 8 -20 -1 -15 -6 -19 -22 -14 -20 6 -20 6 0 -10 20
-17 20 -17 -2 -11 -21 6 -22 4 -17 -25 6 -26 3 -32 -14 -37 -20 -5 -40 -33
-24 -33 19 0 52 33 53 53 0 21 1 21 8 2 6 -14 3 -24 -11 -33 -10 -7 -15 -18
-12 -24 4 -7 2 -8 -4 -4 -7 4 -20 2 -29 -3 -10 -6 -12 -11 -5 -11 6 0 12 -5
12 -11 0 -5 -4 -7 -10 -4 -5 3 -10 1 -10 -5 0 -6 16 -9 40 -8 22 2 40 8 40 13
0 6 4 4 8 -3 6 -8 22 -10 55 -6 44 6 47 9 47 36 0 21 -6 31 -25 38 -19 7 -25
17 -25 38 0 20 -7 33 -22 41 l-23 12 23 -5 c21 -4 26 4 25 43 -1 9 2 10 10 2
6 -6 23 -11 38 -11 15 0 34 -6 41 -14 8 -7 25 -16 38 -20 23 -6 24 -6 5 5
-100 62 -235 136 -235 129z m85 -118 c-3 -3 -11 0 -18 7 -9 10 -8 11 6 5 10
-3 15 -9 12 -12z m0 -50 c-3 -3 -11 0 -18 7 -9 10 -8 11 6 5 10 -3 15 -9 12
-12z m5 -22 c0 -5 -7 -7 -15 -4 -8 4 -15 8 -15 10 0 2 7 4 15 4 8 0 15 -4 15
-10z m47 -60 c-5 -29 -13 -33 -13 -5 0 14 4 25 8 25 4 0 7 -9 5 -20z"/>
<path d="M4470 755 c0 -9 11 -20 25 -25 31 -12 33 -24 3 -15 -21 5 -21 5 2
-10 l25 -15 -23 2 c-23 3 -24 0 -26 -72 -3 -74 -3 -75 23 -76 26 -2 26 -2 4 9
-13 5 -23 14 -23 19 0 5 15 1 33 -8 17 -10 26 -19 19 -21 -6 -3 -10 -8 -8 -12
6 -9 -42 -7 -51 2 -3 4 -15 7 -25 7 -14 0 -18 -8 -18 -35 l0 -34 70 2 c66 2
69 3 65 25 -3 19 -1 22 17 16 15 -5 19 -3 13 7 -5 8 -4 10 0 6 5 -4 10 -14 11
-23 2 -11 -4 -13 -19 -9 -21 6 -21 6 -3 -9 23 -19 29 -15 32 23 1 23 -3 31
-22 35 -21 6 -24 12 -24 55 0 40 -4 50 -22 59 -21 10 -22 11 -3 11 17 1 18 3
5 12 -13 9 -13 10 0 6 8 -2 14 -10 13 -16 -3 -12 10 -15 20 -4 4 3 2 12 -5 20
-8 11 -7 12 6 7 9 -3 16 -10 16 -15 0 -5 8 -9 18 -9 11 0 5 8 -18 22 -19 12
-54 34 -78 50 -50 33 -52 33 -52 13z m35 -114 c3 -5 0 -13 -6 -17 -7 -4 -9 -3
-5 4 3 5 0 13 -6 15 -9 4 -10 6 -1 6 6 1 14 -3 18 -8z m55 -73 c0 -12 -3 -18
-7 -14 -11 10 -12 36 -2 36 5 0 9 -10 9 -22z m-104 -73 c1 -8 -2 -15 -6 -15
-5 0 -8 9 -7 20 1 21 10 18 13 -5z"/>
<path d="M3533 723 c-7 -2 -13 -17 -12 -31 0 -23 2 -24 8 -8 5 13 10 16 14 9
4 -6 0 -19 -9 -28 -15 -15 -9 -16 80 -14 53 1 96 4 96 8 0 3 -10 12 -21 20
-18 10 -19 15 -8 22 8 5 19 9 24 9 6 0 4 -4 -4 -9 -9 -6 -10 -11 -2 -15 6 -4
14 0 18 9 3 10 0 21 -8 26 -15 9 -155 11 -176 2z m92 -13 c3 -6 -1 -7 -9 -4
-18 7 -21 14 -7 14 6 0 13 -4 16 -10z m60 -40 c3 -5 2 -10 -4 -10 -5 0 -13 5
-16 10 -3 6 -2 10 4 10 5 0 13 -4 16 -10z"/>
<path d="M5025 680 c2 -11 -2 -20 -8 -20 -7 0 -6 -4 3 -10 11 -7 11 -10 2 -10
-7 0 -10 -4 -7 -10 3 -5 0 -10 -7 -10 -7 0 -5 -5 6 -11 15 -9 16 -13 5 -21
-11 -8 -11 -9 1 -5 11 2 15 19 16 56 1 28 -3 54 -7 57 -4 2 -6 -5 -4 -16z"/>
<path d="M1295 660 c-4 -6 3 -10 14 -10 25 0 27 6 6 13 -8 4 -17 2 -20 -3z"/>
<path d="M1976 633 c1 -21 6 -50 9 -65 6 -22 4 -28 -9 -28 -11 0 -16 -9 -16
-33 l0 -33 68 2 c37 2 79 3 94 3 27 1 28 5 19 63 0 4 -8 5 -16 2 -14 -6 -13
-8 2 -21 16 -13 16 -13 -4 -3 -13 6 -22 14 -21 18 1 4 -6 25 -16 47 -13 29
-29 45 -59 59 -23 11 -45 21 -48 23 -3 2 -5 -13 -3 -34z m54 -3 c22 -11 40
-25 40 -31 0 -7 -11 -4 -26 6 -19 12 -29 14 -37 6 -6 -6 -15 -11 -21 -11 -5 0
-1 7 10 15 13 10 14 13 3 10 -10 -4 -16 0 -16 10 0 19 0 19 47 -5z m26 -81 c4
-8 3 -9 -4 -5 -6 4 -20 2 -31 -3 -16 -9 -19 -8 -16 7 1 9 -3 23 -9 31 -8 11
-3 10 21 -2 17 -9 35 -22 39 -28z m29 21 c3 -5 2 -10 -4 -10 -5 0 -13 5 -16
10 -3 6 -2 10 4 10 5 0 13 -4 16 -10z m-100 -50 c3 -5 1 -10 -4 -10 -6 0 -11
5 -11 10 0 6 2 10 4 10 3 0 8 -4 11 -10z m150 -28 c-3 -3 -11 0 -18 7 -9 10
-8 11 6 5 10 -3 15 -9 12 -12z"/>
<path d="M3070 540 c0 -5 5 -10 11 -10 5 0 7 5 4 10 -3 6 -8 10 -11 10 -2 0
-4 -4 -4 -10z"/>
<path d="M5620 516 c0 -2 7 -7 16 -10 8 -3 12 -2 9 4 -6 10 -25 14 -25 6z"/>
</g>
</svg>
