<?xml version="1.0" standalone="no"?>
<!DOCTYPE svg PUBLIC "-//W3C//DTD SVG 20010904//EN"
 "http://www.w3.org/TR/2001/REC-SVG-20010904/DTD/svg10.dtd">
<svg version="1.0" xmlns="http://www.w3.org/2000/svg"
 width="1280.000000pt" height="1280.000000pt" viewBox="0 0 1280.000000 1280.000000"
 preserveAspectRatio="xMidYMid meet">

<g transform="translate(0.000000,1280.000000) scale(0.100000,-0.100000)"
fill="#000000" stroke="none">
<path d="M5458 9460 c-48 -14 -96 -60 -140 -133 l-43 -71 -1 -796 c-1 -652 1
-800 12 -822 11 -21 24 -28 59 -33 25 -4 57 -4 72 0 16 4 97 10 180 14 127 6
156 11 173 26 20 18 20 28 20 810 0 900 3 858 -77 937 -26 26 -65 54 -85 63
-39 16 -125 19 -170 5z"/>
<path d="M3410 9284 c-78 -73 -79 -161 -2 -223 50 -42 122 -43 202 -4 54 27
59 27 285 31 281 4 275 2 275 122 0 63 -4 80 -20 98 -21 22 -24 22 -356 22
l-335 0 -49 -46z"/>
<path d="M4445 9224 c-28 -8 -45 -33 -45 -65 0 -31 2 -31 120 -44 30 -3 70
-11 89 -17 35 -11 151 -93 151 -107 0 -5 13 -25 29 -45 18 -23 32 -54 35 -79
3 -23 8 -314 10 -647 3 -420 8 -618 16 -647 10 -36 16 -42 47 -48 19 -3 38 -3
42 0 3 4 7 298 9 653 l3 647 -26 70 c-15 39 -32 83 -38 99 -6 16 -43 61 -83
100 -62 62 -81 74 -150 98 -79 28 -171 41 -209 32z"/>
<path d="M6875 7893 c-79 -17 -125 -61 -125 -119 0 -45 22 -105 44 -117 15 -9
144 -14 446 -17 l425 -6 55 -27 c30 -15 69 -27 85 -27 49 0 106 40 148 103
l37 57 -19 37 c-29 56 -79 99 -133 112 -45 11 -915 15 -963 4z"/>
<path d="M8120 7771 c-41 -8 -60 -18 -60 -31 0 -15 57 -40 92 -40 86 0 182
-67 199 -137 5 -21 9 -487 9 -1036 l0 -998 -25 -24 c-24 -25 -26 -25 -207 -26
-101 0 -201 -3 -223 -7 -37 -7 -40 -10 -43 -43 -5 -59 4 -61 239 -69 199 -6
211 -7 232 -28 21 -22 22 -29 27 -317 4 -255 7 -297 21 -311 23 -22 54 -4 63
37 3 17 6 667 6 1443 0 1590 6 1472 -76 1540 -63 53 -146 68 -254 47z"/>
<path d="M5505 7470 c-114 -6 -164 -14 -273 -44 -73 -20 -145 -42 -160 -50
-15 -8 -54 -22 -87 -31 -33 -9 -80 -30 -105 -46 -25 -16 -64 -35 -87 -43 -55
-19 -178 -88 -230 -129 -23 -17 -85 -66 -139 -106 -100 -78 -227 -197 -279
-265 -30 -40 -124 -164 -160 -213 -49 -66 -157 -288 -201 -413 -91 -262 -102
-301 -120 -425 -22 -152 -25 -410 -5 -550 17 -128 70 -342 97 -396 13 -26 29
-68 35 -95 14 -56 90 -219 119 -257 11 -13 24 -37 30 -51 9 -23 51 -87 145
-219 42 -59 268 -284 339 -338 140 -105 279 -193 346 -219 19 -7 47 -22 63
-32 26 -18 126 -58 247 -98 127 -43 318 -80 473 -92 502 -39 1002 113 1420
430 78 59 300 279 355 352 85 112 198 291 222 350 7 19 23 53 36 75 12 22 30
65 39 95 10 30 26 71 36 90 9 20 25 72 34 115 8 44 24 112 35 150 56 206 61
566 9 770 -11 43 -27 115 -35 160 -9 44 -29 110 -45 147 -16 36 -29 72 -29 79
0 16 -97 226 -120 259 -10 14 -29 45 -44 70 -69 116 -98 156 -192 263 -92 105
-216 222 -320 302 -49 37 -182 125 -191 125 -3 0 -20 10 -37 23 -101 75 -446
203 -641 237 -154 27 -325 33 -580 20z m504 -351 c73 -10 153 -28 176 -38 24
-10 69 -27 101 -36 96 -28 273 -120 405 -210 150 -102 361 -314 431 -431 10
-16 42 -69 72 -117 30 -49 58 -98 61 -110 4 -12 19 -49 35 -82 41 -88 98 -273
112 -362 16 -104 16 -505 0 -614 -7 -47 -26 -124 -42 -170 -16 -46 -30 -90
-30 -98 0 -14 -70 -176 -95 -221 -8 -14 -26 -47 -40 -73 -14 -26 -41 -69 -60
-95 -19 -26 -49 -67 -67 -92 -48 -65 -214 -236 -277 -284 -121 -93 -159 -119
-211 -147 -30 -17 -66 -36 -80 -44 -48 -28 -196 -95 -208 -95 -6 0 -58 -15
-114 -34 -243 -81 -713 -81 -956 0 -56 19 -108 34 -116 34 -7 0 -40 13 -72 29
-32 17 -79 39 -104 50 -84 38 -225 129 -326 212 -88 72 -245 237 -293 307
-115 171 -195 318 -230 427 -11 33 -29 85 -40 115 -25 70 -71 388 -71 490 0
92 54 449 74 488 7 15 23 59 36 97 26 79 93 225 126 270 11 17 24 38 27 47 12
33 152 213 227 291 143 149 289 254 495 356 55 27 129 58 165 69 36 11 84 28
108 36 49 18 194 43 326 56 119 11 289 4 455 -21z"/>
<path d="M5500 7023 c-73 -9 -205 -53 -223 -75 -16 -20 -18 -43 -15 -284 3
-247 4 -264 24 -290 45 -60 66 -68 194 -74 92 -4 123 -9 136 -22 12 -12 18
-43 21 -130 3 -62 10 -119 16 -125 15 -20 74 -16 97 7 17 17 20 33 20 119 0
84 3 102 21 125 l20 26 273 0 c151 0 288 -3 306 -6 67 -14 59 -26 -162 -252
l-141 -143 9 -42 c9 -41 10 -42 49 -39 37 3 55 18 265 227 124 122 239 230
257 239 24 12 62 16 145 16 158 0 219 19 185 58 -8 9 -22 32 -31 50 -19 38
-220 241 -286 290 -192 140 -174 135 -520 142 -254 4 -300 7 -321 22 -28 18
-44 51 -54 110 -3 22 -14 42 -25 48 -18 10 -187 11 -260 3z"/>
<path d="M4598 6563 c-20 -3 -30 -13 -38 -39 -7 -20 -10 -37 -8 -40 1 -2 153
-155 337 -339 351 -352 358 -358 401 -315 47 47 42 52 -314 408 -183 182 -337
331 -342 331 -5 -1 -21 -4 -36 -6z"/>
<path d="M5575 5853 c-45 -12 -143 -75 -186 -120 -77 -81 -108 -140 -121 -232
-31 -210 56 -381 243 -477 73 -38 75 -39 189 -39 115 0 115 0 190 40 101 53
161 115 210 217 39 79 40 86 40 183 0 95 -2 105 -35 174 -47 97 -110 166 -199
216 -71 39 -71 40 -191 42 -66 1 -129 -1 -140 -4z m236 -147 c52 -18 111 -70
150 -129 33 -51 34 -55 34 -157 0 -104 0 -105 -35 -154 -49 -68 -120 -122
-181 -136 -59 -14 -167 -7 -208 14 -48 25 -119 96 -140 139 -42 88 -36 236 14
307 33 47 99 100 144 116 46 17 176 17 222 0z"/>
<path d="M5623 5583 c-96 -49 -129 -154 -76 -248 65 -117 250 -114 311 5 43
84 12 196 -65 236 -69 36 -110 37 -170 7z"/>
<path d="M4150 5481 c-33 -6 -35 -8 -38 -51 -3 -33 1 -47 14 -57 14 -10 122
-13 496 -13 462 0 478 1 488 19 18 34 12 78 -12 95 -20 14 -79 16 -468 15
-245 -1 -461 -4 -480 -8z"/>
<path d="M6313 5478 c-25 -12 -26 -16 -23 -63 4 -58 -17 -56 501 -53 319 2
482 7 489 14 5 5 11 27 13 48 4 64 -2 64 -513 65 -300 0 -452 -4 -467 -11z"/>
<path d="M4890 4701 c-187 -187 -340 -347 -340 -355 0 -27 38 -56 73 -56 29 0
63 31 354 323 298 297 323 325 329 363 7 45 10 41 -59 61 -13 3 -107 -85 -357
-336z"/>
<path d="M6097 5023 c-4 -3 -7 -23 -7 -42 0 -35 18 -54 313 -348 171 -172 327
-324 346 -339 l34 -28 33 37 c19 20 34 42 34 48 0 6 -149 162 -332 345 -329
331 -332 334 -373 334 -23 0 -45 -3 -48 -7z"/>
<path d="M5651 4822 c-8 -14 -11 -166 -11 -484 0 -490 3 -516 46 -510 56 8 63
13 73 50 17 58 15 913 -2 936 -7 9 -31 20 -54 23 -34 4 -43 2 -52 -15z"/>
<path d="M7520 6813 c-28 -10 -38 -32 -30 -71 6 -33 26 -66 98 -162 11 -14 45
-76 77 -138 64 -126 72 -132 161 -132 67 0 103 15 171 68 43 34 55 51 68 94
20 67 19 147 -1 198 -20 50 -111 127 -157 134 -49 8 -370 15 -387 9z"/>
<path d="M8315 4523 c-11 -3 -63 -23 -115 -46 -153 -65 -204 -121 -334 -364
-14 -26 -21 -64 -24 -134 -8 -164 17 -242 124 -394 55 -77 110 -122 212 -173
153 -77 315 -77 484 -2 147 65 244 167 312 330 38 92 40 98 40 210 -1 107 -3
120 -32 187 -18 39 -32 75 -32 80 0 16 -96 131 -146 177 -28 25 -91 64 -139
87 -87 41 -90 42 -209 45 -67 2 -130 0 -141 -3z m195 -208 c90 -12 183 -82
241 -183 l44 -77 0 -105 0 -105 -46 -80 c-39 -67 -58 -88 -115 -128 -86 -59
-163 -76 -279 -60 -61 9 -86 18 -137 53 -126 84 -175 185 -165 344 8 127 20
157 96 235 73 74 113 97 192 110 53 8 78 8 169 -4z"/>
<path d="M8325 4185 c-153 -62 -209 -229 -125 -369 40 -66 87 -98 171 -116 51
-11 64 -10 126 9 57 17 78 29 111 65 51 55 66 108 59 204 -8 110 -48 164 -155
207 -77 31 -111 31 -187 0z"/>
</g>
</svg>
