<?xml version="1.0" standalone="no"?>
<!DOCTYPE svg PUBLIC "-//W3C//DTD SVG 20010904//EN"
 "http://www.w3.org/TR/2001/REC-SVG-20010904/DTD/svg10.dtd">
<svg version="1.0" xmlns="http://www.w3.org/2000/svg"
 width="5156.000000pt" height="2951.000000pt" viewBox="0 0 5156.000000 2951.000000"
 preserveAspectRatio="xMidYMid meet">

<g transform="translate(0.000000,2951.000000) scale(0.100000,-0.100000)"
fill="#000000" stroke="none">
<path d="M22938 25395 c-100 -16 -148 -38 -235 -107 -77 -61 -130 -121 -163
-185 -14 -26 -46 -79 -73 -118 -26 -39 -59 -105 -75 -150 l-27 -80 0 -595 c1
-400 5 -636 13 -720 14 -137 15 -1205 1 -1430 -15 -243 -22 -1060 -11 -1223
10 -143 14 -162 39 -209 15 -28 41 -59 57 -69 59 -36 208 -46 336 -24 128 22
318 38 540 44 146 5 274 12 285 16 45 18 84 57 102 102 17 46 18 131 18 2078
0 2294 5 2138 -77 2305 -33 68 -58 102 -127 170 -147 147 -219 183 -398 200
-60 5 -110 10 -113 9 -3 -1 -44 -7 -92 -14z"/>
<path d="M17695 25038 c-38 -5 -90 -17 -113 -25 -97 -34 -255 -205 -268 -290
-3 -23 -5 -79 -3 -125 3 -67 10 -95 33 -143 35 -71 114 -152 182 -186 44 -22
62 -24 174 -24 123 0 126 1 215 39 210 91 227 97 328 106 54 5 311 10 570 10
260 1 489 5 511 10 46 10 111 70 126 114 14 45 19 196 9 305 -10 115 -35 161
-107 194 -47 22 -50 22 -817 23 -442 1 -800 -3 -840 -8z"/>
<path d="M20211 24751 c-92 -19 -113 -35 -131 -99 -30 -108 4 -146 140 -157
117 -9 350 -50 439 -77 58 -17 85 -32 129 -72 30 -28 83 -69 116 -91 43 -28
73 -59 104 -105 24 -36 53 -76 66 -90 71 -80 115 -175 131 -286 4 -27 9 -737
11 -1579 4 -1636 5 -1651 54 -1808 24 -74 48 -94 122 -103 45 -5 57 -3 78 16
57 49 54 -32 56 1690 3 1744 5 1679 -59 1845 -19 50 -51 141 -71 204 -45 139
-47 143 -106 206 -26 27 -62 73 -81 101 -19 28 -61 73 -94 100 -33 26 -83 69
-110 94 -28 26 -60 52 -72 58 -20 11 -267 102 -288 106 -5 2 -35 10 -65 19
-50 16 -217 44 -265 44 -11 1 -58 -7 -104 -16z"/>
<path d="M26567 21240 c-52 -9 -160 -65 -211 -111 -53 -46 -69 -91 -72 -200
-5 -152 41 -266 124 -308 105 -52 57 -50 1187 -54 1176 -3 1075 3 1235 -77
103 -52 211 -84 261 -77 21 3 75 22 119 43 89 42 175 121 225 209 15 28 46 73
67 101 36 48 51 104 28 104 -6 0 -9 3 -8 8 5 20 -81 163 -129 213 -80 85 -118
106 -229 134 l-99 25 -1225 -1 c-674 -1 -1246 -5 -1273 -9z"/>
<path d="M29944 20930 c-104 -9 -169 -36 -185 -77 -11 -30 -2 -45 53 -79 29
-19 66 -27 170 -39 218 -26 245 -37 380 -160 123 -112 125 -114 148 -244 11
-59 14 -5248 4 -5313 -4 -21 -21 -55 -41 -77 -62 -73 -68 -74 -648 -81 -528
-7 -557 -9 -600 -50 -19 -18 -22 -30 -19 -80 3 -70 24 -114 61 -128 92 -36
261 -49 645 -51 484 -3 568 -25 599 -160 5 -20 9 -286 10 -591 2 -700 9 -880
36 -941 27 -61 68 -80 115 -52 18 10 40 32 50 48 43 75 43 35 43 2790 1 1441
4 2978 7 3415 6 796 -2 1298 -23 1420 -20 113 -48 186 -88 224 -207 198 -205
197 -330 220 -87 17 -229 19 -387 6z"/>
<path d="M23475 20153 c-22 -2 -93 -10 -158 -18 -66 -8 -201 -15 -300 -16
-275 0 -381 -11 -532 -54 -71 -21 -155 -43 -185 -50 -164 -38 -337 -91 -454
-140 -72 -30 -192 -71 -266 -91 -119 -33 -146 -44 -224 -97 -93 -62 -175 -103
-287 -142 -87 -30 -135 -52 -184 -86 -22 -14 -85 -50 -140 -78 -55 -29 -116
-64 -135 -79 -19 -15 -60 -45 -91 -66 -31 -21 -97 -74 -145 -117 -49 -44 -120
-101 -159 -126 -38 -26 -116 -82 -172 -125 -56 -43 -106 -78 -111 -78 -11 0
-122 -110 -122 -121 0 -4 -29 -30 -64 -58 -35 -28 -87 -80 -116 -115 -28 -34
-69 -76 -91 -92 -22 -16 -64 -63 -94 -104 -29 -41 -70 -91 -90 -110 -20 -19
-65 -78 -100 -130 -35 -52 -76 -108 -92 -125 -33 -35 -44 -51 -120 -165 -31
-47 -73 -106 -94 -131 -21 -25 -64 -101 -97 -170 -32 -68 -82 -159 -110 -202
-28 -43 -60 -101 -70 -130 -11 -29 -49 -113 -85 -187 -59 -120 -111 -265 -162
-444 -9 -32 -32 -93 -52 -135 -63 -136 -74 -164 -113 -291 -65 -213 -81 -280
-101 -420 -11 -74 -24 -162 -29 -195 -40 -239 -52 -399 -55 -710 -2 -176 0
-351 5 -390 5 -38 12 -110 15 -160 10 -143 25 -272 45 -380 10 -55 21 -116 24
-135 8 -55 116 -486 146 -585 16 -49 46 -124 68 -165 22 -41 52 -115 67 -165
67 -226 88 -286 128 -355 24 -41 60 -115 80 -163 42 -97 83 -170 126 -225 29
-37 61 -95 100 -183 11 -26 36 -67 55 -92 19 -24 69 -98 112 -163 42 -66 96
-140 118 -165 56 -62 68 -78 91 -122 11 -21 39 -57 63 -80 24 -23 72 -77 107
-119 35 -43 78 -90 97 -105 18 -15 49 -45 68 -68 19 -22 62 -65 95 -95 33 -30
89 -85 125 -122 36 -37 88 -85 117 -106 28 -21 72 -61 98 -90 25 -28 69 -65
98 -81 29 -17 81 -57 117 -89 36 -32 106 -84 155 -115 50 -31 115 -77 145
-102 30 -25 100 -68 154 -97 55 -28 133 -72 173 -99 41 -26 111 -62 156 -79
117 -44 144 -57 217 -104 73 -48 104 -61 275 -118 66 -22 163 -60 215 -85 101
-48 166 -66 485 -138 110 -24 234 -54 275 -65 114 -31 309 -57 635 -85 33 -2
206 -5 385 -5 498 -1 828 33 1110 113 85 24 211 55 280 67 175 32 317 73 408
119 42 21 140 59 217 84 152 48 203 71 309 137 38 23 74 44 80 45 65 17 206
86 265 129 26 19 93 57 151 86 58 28 127 70 153 92 26 22 87 64 134 94 101 63
143 94 199 144 22 21 65 53 95 72 30 19 77 58 104 87 28 29 78 73 113 97 34
25 80 69 102 99 21 29 54 63 72 76 48 34 277 266 320 324 20 28 59 72 87 98
29 27 68 74 88 105 19 32 61 84 92 118 31 33 83 107 116 165 32 57 79 128 102
157 24 29 63 93 88 142 24 48 64 116 88 151 53 76 76 120 118 226 17 43 55
121 84 173 39 68 68 140 103 255 27 88 70 201 95 250 49 99 65 153 108 383 33
175 37 191 85 352 40 132 68 320 84 565 6 94 18 212 26 262 18 118 18 259 0
370 -8 49 -17 140 -21 203 -14 287 -41 470 -94 645 -12 39 -42 171 -66 295
-56 279 -72 337 -124 436 -23 44 -53 117 -67 164 -53 176 -75 234 -128 333
-30 56 -68 137 -86 180 -42 108 -61 143 -122 229 -29 40 -66 103 -82 138 -16
36 -54 99 -86 140 -31 41 -81 118 -110 170 -31 55 -80 122 -116 160 -34 36
-75 85 -90 110 -16 25 -53 68 -83 95 -29 28 -68 71 -86 97 -34 52 -192 225
-265 292 -25 22 -81 77 -125 122 -44 45 -100 95 -125 112 -25 17 -63 49 -85
72 -22 23 -71 63 -110 88 -38 24 -95 68 -126 96 -31 28 -101 78 -155 110 -54
33 -127 81 -161 107 -33 26 -90 60 -125 77 -35 17 -102 56 -147 87 -46 32
-118 73 -160 92 -135 62 -214 102 -286 143 -38 22 -115 53 -170 70 -183 56
-199 62 -312 106 -146 58 -208 77 -377 115 -77 17 -177 44 -222 60 -95 34
-261 59 -385 59 -48 0 -181 11 -296 24 -195 23 -427 36 -518 29z m445 -898
c25 -3 101 -13 170 -21 124 -15 380 -54 495 -75 78 -15 180 -48 280 -91 44
-20 141 -52 215 -73 134 -37 179 -55 320 -131 41 -23 101 -51 133 -63 84 -31
135 -58 194 -103 28 -21 100 -65 160 -96 60 -31 134 -79 164 -105 30 -27 84
-65 121 -85 36 -20 90 -58 120 -85 29 -26 85 -72 123 -103 205 -164 485 -447
637 -644 36 -47 83 -104 105 -128 21 -23 54 -72 73 -108 19 -36 58 -92 86
-125 28 -32 77 -110 109 -171 33 -62 80 -145 107 -183 27 -41 63 -113 83 -170
20 -55 61 -146 91 -203 38 -72 66 -142 90 -230 51 -183 69 -240 114 -352 45
-115 63 -194 84 -370 66 -561 70 -947 16 -1485 -29 -284 -53 -407 -101 -528
-36 -89 -69 -193 -110 -342 -31 -110 -45 -147 -90 -225 -27 -47 -67 -134 -90
-195 -47 -128 -72 -178 -106 -219 -13 -16 -40 -61 -60 -100 -53 -107 -103
-186 -150 -240 -24 -26 -60 -80 -80 -119 -21 -39 -60 -96 -88 -126 -28 -31
-67 -78 -85 -105 -36 -54 -297 -335 -395 -427 -169 -157 -223 -204 -288 -248
-40 -27 -90 -68 -112 -91 -22 -23 -68 -57 -103 -77 -35 -19 -89 -57 -120 -84
-31 -27 -111 -76 -177 -110 -66 -34 -142 -78 -170 -99 -61 -46 -93 -63 -187
-96 -80 -29 -214 -93 -256 -122 -31 -22 -120 -52 -242 -82 -47 -12 -116 -33
-155 -47 -38 -14 -111 -40 -161 -58 -50 -19 -129 -41 -175 -50 -117 -22 -487
-61 -714 -76 -298 -19 -766 2 -1136 51 -175 23 -259 44 -411 101 -58 22 -177
60 -264 85 -119 34 -187 60 -269 103 -60 32 -155 75 -209 96 -57 22 -134 61
-180 93 -45 30 -123 75 -174 99 -51 25 -125 71 -164 103 -39 32 -90 68 -112
80 -23 11 -62 37 -88 58 -25 20 -95 75 -155 122 -59 46 -135 111 -168 145 -33
33 -89 86 -125 117 -36 31 -80 76 -99 100 -19 24 -56 61 -83 83 -27 22 -68 65
-90 95 -23 30 -67 84 -98 120 -73 84 -132 164 -159 219 -12 24 -39 62 -60 84
-57 65 -85 106 -125 187 -21 41 -53 95 -73 120 -19 25 -57 92 -84 150 -47 101
-62 130 -151 301 -22 43 -59 142 -83 220 -23 79 -61 187 -83 240 -68 163 -83
232 -147 684 -20 138 -38 261 -40 275 -47 310 -45 508 10 875 105 709 108 721
178 889 27 66 67 180 88 253 38 132 64 193 117 277 16 25 50 96 77 158 26 62
74 152 106 199 32 48 76 123 98 166 21 44 61 106 88 139 27 32 74 97 104 144
31 47 85 117 119 155 34 39 81 94 103 124 35 48 135 156 240 259 21 20 77 76
125 123 48 47 108 100 133 117 26 17 71 53 100 80 73 64 120 99 211 155 42 26
98 65 125 87 26 22 80 56 118 75 39 20 95 54 124 76 73 55 160 102 250 135 41
14 97 39 125 55 113 65 208 104 343 140 79 21 157 45 175 53 18 8 51 22 73 32
22 10 45 19 50 21 6 1 47 14 92 27 126 38 588 107 836 125 120 9 672 6 747 -4z"/>
<path d="M23140 18959 c-188 -17 -316 -38 -390 -62 -41 -14 -109 -35 -150 -47
-147 -43 -167 -51 -197 -83 -61 -64 -58 -31 -61 -675 -2 -361 1 -629 7 -685
13 -118 53 -200 124 -260 108 -90 137 -97 422 -107 132 -5 265 -14 295 -19 64
-13 106 -48 119 -101 18 -67 30 -216 31 -364 0 -169 9 -213 50 -259 26 -29 34
-32 82 -31 114 2 177 37 197 110 6 22 11 122 12 224 1 199 17 324 46 365 10
14 36 36 58 48 l40 22 670 2 c814 2 882 -4 919 -76 17 -33 12 -44 -60 -122
-23 -25 -51 -64 -62 -85 -11 -21 -40 -55 -64 -74 -23 -19 -71 -64 -104 -100
-34 -36 -79 -81 -100 -100 -21 -19 -59 -57 -84 -84 -25 -27 -70 -73 -100 -102
-30 -29 -68 -67 -85 -84 -16 -16 -72 -73 -124 -125 -92 -94 -93 -96 -93 -144
0 -68 20 -146 43 -167 16 -14 31 -16 94 -11 42 4 90 14 108 23 18 9 287 270
598 581 311 310 585 577 610 594 102 68 122 71 479 79 297 6 330 9 385 29 45
16 66 30 79 52 l18 31 -31 42 c-17 22 -51 80 -75 128 -32 61 -59 97 -92 124
-26 22 -65 64 -87 94 -69 93 -432 440 -503 481 -21 12 -66 48 -99 79 -33 31
-97 78 -142 104 -46 26 -104 65 -130 87 -82 68 -187 115 -303 138 -99 20 -146
21 -800 23 l-695 3 -56 26 c-114 54 -174 135 -198 269 -23 124 -48 175 -100
201 -32 16 -359 22 -501 8z"/>
<path d="M20602 17725 c-29 -7 -63 -22 -76 -34 -27 -26 -52 -102 -47 -146 3
-31 101 -146 215 -254 33 -31 80 -78 105 -105 25 -27 66 -68 91 -90 25 -22 70
-67 100 -100 30 -33 73 -76 95 -95 21 -20 64 -63 95 -96 30 -33 75 -78 99
-100 25 -22 65 -62 90 -89 25 -28 71 -73 101 -100 30 -28 75 -73 100 -101 25
-27 65 -68 89 -90 59 -54 129 -123 167 -165 17 -19 58 -60 90 -91 32 -30 82
-80 110 -110 77 -82 208 -197 237 -208 34 -13 131 18 162 52 26 28 49 122 39
161 -4 16 -74 97 -168 193 -263 271 -1417 1422 -1502 1499 -88 79 -113 88
-192 69z"/>
<path d="M23270 15869 c-102 -13 -220 -54 -280 -97 -30 -22 -87 -56 -125 -75
-91 -47 -286 -242 -329 -328 -15 -31 -44 -78 -65 -105 -73 -97 -117 -261 -127
-479 -12 -253 35 -470 133 -617 29 -44 63 -101 75 -127 13 -25 45 -66 72 -91
27 -25 79 -75 115 -112 47 -48 90 -79 151 -111 47 -24 114 -59 150 -79 36 -20
94 -45 130 -57 130 -42 363 -53 549 -26 115 17 156 34 382 157 103 56 129 76
233 181 l118 118 88 177 c83 170 105 220 115 273 16 77 26 237 21 321 -13 185
-25 226 -130 440 -89 181 -101 201 -152 245 -31 26 -76 73 -101 105 -35 46
-60 66 -116 95 -40 19 -99 54 -132 76 -140 95 -282 128 -550 126 -88 -1 -189
-5 -225 -10z m492 -388 c81 -21 101 -32 219 -122 86 -66 136 -118 169 -174 13
-22 41 -61 63 -88 93 -112 123 -388 67 -608 -23 -88 -35 -112 -90 -175 -19
-23 -52 -68 -72 -101 -26 -42 -55 -72 -95 -99 -32 -21 -80 -57 -108 -79 -84
-69 -184 -98 -367 -109 -112 -7 -289 15 -353 43 -51 23 -187 120 -244 174 -60
57 -144 163 -169 213 -12 23 -31 88 -43 145 -18 89 -20 126 -16 254 8 249 43
345 179 490 140 149 257 222 403 249 113 22 353 15 457 -13z"/>
<path d="M23325 15154 c-66 -30 -135 -69 -153 -87 -18 -17 -48 -63 -67 -102
-20 -38 -47 -90 -61 -115 -23 -41 -25 -53 -22 -140 2 -60 9 -105 18 -121 85
-151 106 -185 128 -211 27 -32 83 -60 205 -103 74 -27 81 -27 171 -17 79 9
109 18 197 60 117 56 128 68 185 192 38 84 39 87 39 205 -1 112 -3 126 -34
208 -18 49 -44 101 -57 117 -24 27 -186 123 -249 146 -16 6 -64 14 -105 17
l-75 7 -120 -56z"/>
<path d="M19475 14883 c-110 -14 -135 -24 -161 -63 -23 -34 -25 -44 -19 -106
8 -76 25 -118 55 -134 12 -6 60 -18 108 -25 72 -12 279 -15 1192 -14 608 0
1136 4 1174 9 94 12 120 37 136 132 7 38 9 84 6 102 -8 42 -54 85 -102 97 -37
8 -2324 10 -2389 2z"/>
<path d="M25155 14877 c-90 -35 -110 -70 -102 -171 7 -78 24 -109 78 -141 33
-20 54 -20 1192 -23 1265 -3 1245 -3 1329 55 43 29 58 68 58 149 0 40 -5 55
-22 71 -33 30 -75 49 -136 62 -77 16 -2355 14 -2397 -2z"/>
<path d="M22255 13693 c-11 -3 -52 -37 -91 -76 -39 -40 -95 -95 -125 -123 -30
-27 -72 -70 -94 -95 -22 -24 -61 -64 -88 -89 -26 -25 -74 -72 -106 -105 -32
-33 -78 -78 -102 -100 -24 -22 -62 -61 -84 -85 -23 -25 -68 -69 -100 -98 -33
-29 -72 -70 -87 -92 -15 -21 -52 -57 -82 -79 -31 -23 -74 -66 -98 -97 -23 -30
-61 -69 -85 -85 -23 -16 -68 -61 -98 -98 -31 -38 -80 -88 -110 -111 -31 -24
-69 -61 -85 -84 -16 -22 -60 -66 -97 -97 -37 -30 -83 -75 -101 -100 -19 -24
-61 -72 -93 -105 -47 -49 -59 -69 -59 -93 0 -66 49 -122 126 -146 99 -30 111
-26 226 79 57 51 443 435 859 852 757 759 757 759 768 812 14 67 14 128 0 154
-19 36 -140 75 -194 61z"/>
<path d="M24568 13663 c-26 -27 -28 -35 -28 -112 0 -45 5 -92 11 -104 7 -12
48 -59 93 -104 45 -45 96 -97 113 -115 51 -52 190 -192 205 -206 7 -7 40 -39
73 -71 33 -32 83 -82 111 -112 27 -30 70 -72 95 -94 24 -22 60 -57 79 -77 19
-21 103 -104 185 -185 83 -82 167 -169 189 -196 21 -26 66 -69 100 -95 33 -27
76 -68 95 -93 19 -24 61 -66 93 -93 32 -27 78 -73 101 -102 23 -28 75 -76 115
-105 40 -29 84 -66 99 -81 52 -54 124 -25 192 79 49 73 44 95 -46 210 -42 54
-86 105 -97 113 -17 11 -202 196 -744 742 -286 288 -804 794 -823 804 -15 7
-62 16 -105 20 -78 6 -79 6 -106 -23z"/>
<path d="M23407 13160 c-19 -17 -43 -47 -53 -68 -18 -35 -19 -86 -19 -1212 l0
-1175 22 -71 c31 -96 54 -124 103 -124 21 0 61 5 89 12 45 10 55 17 80 57 16
25 34 70 40 99 8 37 11 407 11 1213 0 1133 0 1161 -20 1198 -21 42 -76 76
-140 86 -19 4 -45 8 -57 11 -15 3 -34 -6 -56 -26z"/>
<path d="M28373 18399 c-118 -14 -160 -63 -148 -171 10 -95 23 -125 84 -199
31 -37 70 -91 86 -121 16 -29 54 -87 86 -128 32 -41 89 -136 127 -210 188
-365 225 -431 256 -455 17 -13 69 -33 116 -46 79 -20 92 -21 193 -10 60 6 127
19 150 28 69 27 288 180 340 238 36 40 88 164 107 256 34 161 24 298 -32 442
-32 84 -53 109 -183 222 -140 122 -184 134 -505 140 -129 3 -300 8 -380 11
-80 4 -165 8 -190 9 -25 1 -73 -2 -107 -6z"/>
<path d="M30505 12349 c-105 -7 -195 -34 -322 -97 -32 -16 -104 -46 -161 -67
-109 -40 -190 -88 -259 -153 -23 -22 -59 -53 -80 -68 -59 -44 -64 -51 -149
-177 -86 -127 -148 -227 -207 -334 -21 -37 -53 -91 -71 -120 -83 -132 -113
-332 -96 -644 12 -213 30 -305 78 -399 135 -261 188 -353 236 -410 30 -35 64
-82 75 -105 21 -42 60 -82 126 -130 22 -16 67 -53 100 -82 44 -39 99 -71 209
-123 82 -39 157 -76 165 -84 9 -8 44 -24 78 -35 248 -83 726 -78 940 11 15 6
30 12 33 13 3 0 32 15 66 32 33 17 98 47 145 65 107 44 147 69 255 164 49 42
101 86 116 97 15 11 49 50 75 86 26 36 74 96 105 133 72 87 111 155 144 254
15 43 38 104 51 134 14 30 30 69 38 85 51 116 71 282 62 515 -8 177 -22 258
-67 362 -18 40 -53 125 -79 188 -52 126 -94 196 -167 280 -27 31 -65 75 -84
99 -61 78 -301 283 -371 318 -344 169 -376 181 -519 189 -152 8 -363 9 -465 3z
m426 -553 c147 -30 183 -47 349 -166 139 -100 164 -126 239 -255 35 -61 74
-126 86 -145 56 -92 85 -231 85 -415 0 -175 -26 -298 -80 -380 -15 -22 -46
-76 -70 -120 -91 -169 -107 -185 -299 -316 -159 -108 -189 -123 -301 -143
-296 -52 -619 -9 -751 100 -30 25 -75 56 -101 70 -66 34 -108 73 -161 151 -26
38 -55 74 -66 80 -53 33 -106 165 -142 348 -34 180 -21 405 35 591 37 122 42
132 104 198 32 33 68 77 80 96 27 46 74 89 142 132 30 19 73 51 95 71 50 46
172 91 297 111 114 19 349 15 459 -8z"/>
<path d="M30600 11513 c-172 -57 -348 -142 -394 -189 -40 -41 -149 -223 -184
-305 -25 -58 -27 -75 -27 -194 0 -127 1 -132 35 -205 40 -87 125 -227 175
-286 45 -55 186 -124 324 -160 131 -34 234 -31 356 11 142 49 197 79 250 134
28 29 69 72 91 96 62 65 77 103 113 283 27 132 -2 360 -58 470 -12 23 -63 84
-114 135 l-92 92 -135 53 c-167 65 -278 86 -340 65z"/>
<path d="M6235 6913 c-137 -6 -331 -23 -368 -34 -23 -6 -54 -27 -80 -55 -32
-34 -49 -44 -74 -44 -28 0 -38 8 -73 56 -56 75 -113 93 -181 58 -38 -19 -56
-62 -64 -150 -4 -38 -8 -82 -10 -97 -5 -40 12 -206 25 -243 9 -25 24 -37 68
-57 31 -14 75 -30 97 -36 74 -21 88 -42 109 -164 35 -197 41 -420 41 -1442 0
-1027 -1 -1055 -41 -1284 -21 -115 -42 -142 -165 -215 -169 -100 -193 -140
-191 -322 1 -185 18 -224 102 -237 50 -9 818 -22 1252 -22 466 0 449 -8 295
138 -59 56 -108 107 -107 113 1 31 74 20 115 -17 11 -10 31 -22 45 -27 14 -5
70 -40 124 -76 124 -83 180 -101 311 -101 183 1 269 48 294 161 7 30 17 56 22
60 5 3 48 -13 95 -37 84 -41 87 -42 161 -35 50 4 87 13 109 27 30 18 34 26 34
62 0 23 -9 62 -20 86 -31 67 -27 92 21 131 76 60 211 129 269 137 40 6 44 3
53 -38 10 -39 -63 -96 -140 -110 -32 -6 -61 -14 -65 -18 -4 -3 -4 -20 0 -36
10 -38 58 -53 99 -31 36 19 91 71 128 121 17 22 43 53 59 70 92 97 166 244
166 330 0 48 -38 88 -107 113 -70 26 -235 156 -226 179 8 20 83 13 148 -15 87
-36 179 -62 202 -56 38 10 55 50 55 126 -1 38 -3 77 -6 86 -3 9 -10 60 -15
112 -6 52 -21 127 -34 165 -56 162 -193 384 -282 455 -53 43 -202 117 -269
134 -69 18 -89 29 -108 58 -22 34 -8 70 53 136 29 31 76 89 105 127 28 39 72
87 97 107 74 61 137 152 169 247 58 165 58 531 1 701 -33 98 -90 170 -134 170
-29 0 -29 1 -44 -74 -5 -23 25 -84 54 -110 12 -11 21 -29 21 -41 0 -13 7 -38
15 -58 20 -49 33 -109 40 -199 8 -91 3 -111 -30 -126 -32 -15 -98 10 -205 75
-143 88 -180 122 -180 163 0 26 36 70 57 70 21 0 63 50 63 75 0 37 -32 94 -78
139 -56 53 -47 66 43 66 102 0 109 12 50 84 -67 83 -71 100 -33 127 l31 23
-34 28 c-63 54 -183 135 -255 171 -111 58 -221 87 -364 98 -69 4 -177 13 -240
18 -102 9 -894 12 -1075 4z m1273 -89 c32 -22 54 -68 39 -83 -23 -23 -75 -8
-109 33 -24 30 -22 43 10 54 37 14 35 14 60 -4z m-624 -24 c49 -5 123 -17 163
-27 l74 -17 -36 -18 c-21 -11 -43 -33 -52 -53 -22 -45 -9 -69 71 -138 34 -29
75 -67 94 -84 18 -18 51 -43 73 -55 23 -13 60 -34 84 -48 24 -14 61 -35 84
-47 90 -51 238 -172 276 -228 33 -48 40 -66 43 -120 9 -131 -27 -343 -69 -412
-33 -54 -169 -192 -240 -243 -56 -40 -86 -54 -171 -77 -98 -26 -116 -28 -372
-31 -267 -3 -268 -3 -292 19 -30 29 -31 48 -4 554 23 443 25 456 55 485 l23
21 247 -14 c232 -13 335 -10 335 11 0 21 -42 71 -71 86 -19 9 -45 25 -59 35
-14 10 -69 45 -123 77 -54 33 -124 76 -155 96 -31 20 -83 51 -115 69 -89 50
-147 105 -147 140 l0 29 98 0 c53 0 137 -5 186 -10z m-330 -362 c22 -31 20
-51 -8 -78 -14 -12 -28 -37 -32 -54 -18 -84 -72 -144 -118 -132 -22 5 -25 13
-30 64 -4 31 -11 79 -16 106 -11 54 -6 67 45 98 20 12 49 18 87 18 47 0 59 -4
72 -22z m-577 -369 c24 -20 25 -49 2 -96 -22 -45 -22 -48 -6 -107 13 -49 14
-63 4 -74 -27 -26 -113 31 -147 97 -16 30 -16 140 -1 169 6 11 21 23 33 25 32
7 99 -2 115 -14z m484 -186 c14 -43 8 -129 -12 -164 -39 -71 -81 -127 -103
-137 -21 -9 -25 -7 -36 16 -7 15 -15 55 -18 89 -5 62 -4 63 36 107 28 31 44
58 48 85 4 26 13 42 28 49 27 12 42 1 57 -45z m1517 -216 c8 -6 21 -25 28 -42
14 -34 7 -54 -38 -101 -16 -17 -32 -44 -36 -60 -6 -20 -20 -35 -48 -49 -23
-11 -55 -32 -73 -48 -50 -42 -80 -46 -108 -12 -40 45 -27 88 46 156 49 46 63
66 76 113 21 71 51 92 104 70 19 -8 41 -20 49 -27z m356 -240 c-12 -58 -55
-136 -90 -162 l-33 -25 -12 21 c-6 12 -9 36 -6 54 12 71 119 193 140 158 5 -8
5 -28 1 -46z m-2261 -76 c56 -34 127 -79 157 -101 30 -22 70 -47 88 -56 17
-10 32 -23 32 -30 0 -6 7 -18 16 -25 14 -12 13 -14 -12 -21 -22 -6 -37 -2 -64
17 -57 39 -245 104 -330 114 -106 12 -120 21 -120 77 0 35 6 51 26 71 38 38
83 28 207 -46z m1451 -194 c60 -48 0 -90 -74 -52 -31 16 -39 42 -18 63 19 19
60 14 92 -11z m-339 -108 c17 -10 55 -43 85 -73 53 -55 54 -57 61 -129 5 -55
15 -88 38 -129 24 -42 31 -67 31 -107 0 -45 10 -82 27 -101 3 -3 66 -7 141
-11 173 -7 186 -13 244 -116 53 -94 103 -136 297 -245 36 -21 76 -43 88 -49
26 -14 38 -69 15 -69 -18 0 -135 44 -174 65 -32 18 -90 19 -106 3 -20 -20 -14
-60 13 -88 14 -15 29 -40 34 -56 13 -44 -13 -128 -64 -207 -51 -80 -62 -117
-44 -159 20 -49 101 -66 139 -28 18 18 20 31 18 109 -3 98 4 116 53 126 36 8
72 -13 94 -54 14 -28 13 -32 -19 -79 l-33 -49 28 -55 28 -55 -40 -44 c-22 -24
-49 -61 -60 -81 -22 -43 -54 -53 -156 -52 -78 1 -111 16 -145 64 -33 47 -63
53 -133 27 -27 -10 -97 -27 -155 -37 -58 -11 -143 -26 -190 -35 -75 -14 -446
-43 -603 -48 -53 -2 -61 1 -83 26 l-24 28 0 287 c-1 386 -11 546 -38 599 -29
55 -66 98 -118 134 -31 21 -44 37 -44 54 0 21 6 24 58 31 79 9 99 18 152 68
48 45 75 57 174 76 68 14 116 52 116 93 0 58 67 66 153 17 31 -18 57 -36 57
-41 0 -5 14 -15 30 -24 33 -17 70 -7 70 20 0 21 -160 159 -223 191 -15 8 -46
28 -70 45 -23 16 -60 41 -82 56 -79 51 -115 99 -87 117 16 10 133 -21 162 -43
45 -33 195 -117 231 -130 24 -8 35 -8 45 0 22 18 17 33 -26 85 -47 57 -56 110
-17 99 12 -4 36 -16 52 -26z m-1240 -216 c4 -21 20 -69 36 -107 31 -72 29 -85
-14 -86 -32 0 -128 61 -139 89 -17 44 -3 93 38 128 45 39 68 32 79 -24z m2598
-352 c78 -80 84 -106 41 -179 -36 -61 -28 -108 30 -177 34 -39 42 -55 35 -67
-9 -15 -13 -15 -56 -1 -100 34 -310 156 -346 201 -10 12 -25 22 -33 22 -10 0
-14 7 -12 18 2 9 11 15 19 13 148 -40 171 -44 226 -35 49 8 60 13 71 36 21 45
6 97 -45 147 -24 24 -46 55 -49 68 -5 20 -3 23 23 23 24 0 44 -14 96 -69z
m-2532 -108 c53 -40 67 -70 53 -112 -11 -30 -66 -60 -126 -68 l-41 -6 7 34
c19 96 20 94 -14 122 -17 15 -36 27 -41 27 -11 0 -12 33 -1 44 4 5 31 6 60 3
41 -4 64 -14 103 -44z m389 -255 c32 -22 55 -69 46 -94 -7 -20 -69 -23 -96 -6
-48 30 -61 63 -40 103 14 25 49 24 90 -3z m-434 -309 c60 -31 104 -73 104 -98
0 -21 -95 -9 -154 19 -54 26 -92 75 -74 97 17 21 61 15 124 -18z m486 -160
c38 -74 15 -196 -53 -272 -21 -25 -39 -49 -39 -54 0 -6 -8 -18 -19 -27 -18
-16 -23 -16 -102 4 -45 12 -93 30 -106 40 -14 10 -41 24 -61 31 -84 27 -240
152 -229 183 10 25 79 20 150 -11 53 -23 76 -26 167 -27 128 -1 173 15 195 68
8 20 15 46 15 59 0 15 9 28 23 35 31 15 39 11 59 -29z m-462 -324 c36 -15 83
-40 105 -56 22 -16 74 -52 115 -81 41 -28 77 -55 78 -60 2 -5 22 -18 45 -29
38 -20 40 -22 22 -35 -20 -15 -35 -12 -100 16 -22 10 -58 21 -80 24 -22 4 -69
16 -105 27 -50 15 -90 19 -173 18 -89 -1 -111 2 -127 16 -44 40 -33 96 33 157
37 35 47 39 82 35 22 -2 69 -17 105 -32z m2045 -387 c33 -15 32 -25 -5 -30
-33 -5 -45 4 -36 27 7 18 8 18 41 3z m-515 -88 c6 -22 4 -26 -14 -28 -23 -1
-68 36 -60 50 3 5 20 8 37 6 23 -2 32 -9 37 -28z"/>
<path d="M10058 6910 c-60 -11 -114 -43 -133 -80 -30 -57 -45 -301 -24 -390
14 -59 38 -83 107 -105 165 -51 155 -45 185 -107 19 -36 29 -72 28 -100 0 -47
-42 -161 -71 -193 -36 -41 -52 -87 -47 -134 4 -40 12 -52 71 -107 85 -81 99
-136 40 -162 -36 -17 -65 -15 -88 7 -12 11 -32 22 -46 26 -21 5 -31 0 -56 -32
-16 -21 -38 -60 -49 -88 -10 -27 -25 -60 -32 -72 -8 -12 -23 -48 -33 -80 -28
-90 -96 -277 -110 -303 -21 -39 -106 -298 -160 -485 -16 -55 -36 -120 -45
-145 -32 -85 -76 -265 -86 -353 -9 -76 -9 -91 5 -112 24 -36 69 -57 89 -42 13
10 14 20 4 65 l-11 53 36 33 c19 18 39 42 42 54 7 21 9 20 42 -13 32 -32 34
-38 34 -102 0 -44 -6 -79 -16 -98 -9 -16 -16 -43 -15 -60 0 -16 -8 -45 -19
-63 -16 -26 -26 -32 -55 -32 -20 0 -54 9 -77 21 -59 30 -152 37 -178 14 -45
-41 -14 -121 84 -217 74 -72 136 -147 136 -165 0 -7 -18 -16 -40 -19 -55 -9
-74 -34 -75 -97 l0 -52 50 -17 c29 -9 51 -23 53 -32 6 -27 -38 -106 -62 -112
-21 -5 -270 69 -293 88 -22 18 -14 38 41 105 62 74 80 128 50 150 -27 20 -43
16 -134 -28 -71 -34 -101 -57 -187 -143 -119 -119 -139 -157 -156 -285 -12
-96 1 -212 28 -248 13 -16 16 -17 41 -3 15 8 38 35 51 59 13 25 24 46 26 47 2
2 21 -13 42 -33 56 -49 117 -74 205 -82 136 -11 438 22 486 54 18 11 24 25 24
50 0 59 15 85 50 85 37 0 77 -19 105 -50 38 -42 135 -82 215 -90 112 -12 176
2 220 45 l35 35 3 112 c5 138 -3 190 -32 225 -13 16 -27 39 -31 53 -9 30 -9
29 -117 145 -105 113 -120 136 -120 192 0 65 37 115 113 154 113 57 185 68
492 79 154 5 317 16 365 25 111 19 418 39 501 33 60 -4 67 -7 97 -42 22 -26
37 -57 45 -95 23 -110 81 -271 109 -301 25 -26 35 -30 83 -30 70 0 86 -13 138
-115 38 -75 39 -80 22 -93 -13 -10 -33 -12 -68 -7 -146 18 -154 18 -178 2 -15
-10 -27 -30 -32 -53 -12 -67 -30 -84 -91 -84 -43 0 -56 -4 -68 -22 -14 -20
-14 -24 4 -54 22 -34 17 -45 -27 -58 -51 -16 -135 70 -135 137 0 66 40 107
157 162 84 39 107 54 112 74 10 39 -24 59 -91 56 -110 -7 -212 -78 -256 -178
-18 -40 -23 -75 -27 -200 -6 -168 3 -223 39 -246 19 -12 148 -15 813 -18 914
-5 828 -15 846 102 6 38 9 130 7 204 -4 122 -7 142 -31 191 -27 56 -28 57
-142 110 -56 27 -155 100 -197 145 -16 17 -42 59 -59 95 -17 36 -44 92 -59
125 -29 61 -63 144 -94 227 -9 25 -31 66 -49 89 -32 43 -62 95 -90 155 -42 89
-233 215 -402 265 -52 16 -86 20 -133 16 -69 -5 -86 -16 -134 -84 -24 -36 -35
-43 -61 -43 -18 0 -43 8 -57 17 -77 54 -202 106 -320 134 -142 33 -176 36
-496 49 -213 8 -240 11 -352 41 -118 31 -122 33 -122 59 0 25 5 29 57 41 49
12 62 21 90 57 61 80 36 178 -72 287 -48 48 -55 59 -49 82 10 41 18 46 76 51
49 3 55 1 82 -26 25 -27 31 -29 57 -20 33 11 72 74 99 158 10 30 28 81 39 112
12 34 21 82 21 117 0 44 7 74 30 122 42 91 48 160 20 243 -25 77 -22 86 40
106 45 15 68 42 93 111 32 85 85 119 186 119 80 0 166 -33 209 -79 31 -33 32
-37 15 -49 -13 -10 -38 -12 -93 -8 -89 7 -120 -4 -132 -51 -6 -22 -3 -45 8
-75 9 -24 26 -79 38 -123 12 -44 34 -114 48 -155 43 -123 95 -291 107 -346 5
-28 19 -73 29 -100 11 -27 27 -80 35 -119 9 -38 26 -96 37 -127 11 -32 20 -63
20 -70 0 -7 11 -34 24 -59 14 -25 39 -86 55 -136 34 -98 87 -203 103 -203 5 0
26 16 46 36 20 20 49 40 64 45 37 10 137 2 187 -16 22 -7 77 -19 123 -26 77
-11 236 -63 283 -93 34 -22 77 -29 86 -14 16 24 9 80 -15 137 -14 31 -41 94
-61 141 -48 111 -80 195 -115 303 -16 48 -33 93 -38 100 -5 7 -18 41 -28 77
-9 36 -26 85 -37 110 -34 77 -107 273 -107 284 0 6 -14 40 -32 76 -17 36 -57
139 -89 230 -83 240 -116 329 -127 343 -5 7 -17 39 -27 72 -9 32 -27 80 -39
105 -13 25 -31 70 -41 100 -21 69 -86 210 -95 210 -4 0 -13 -14 -20 -30 -7
-17 -28 -44 -47 -61 -28 -24 -41 -29 -62 -24 -14 4 -28 8 -30 11 -9 9 -11 100
-3 112 5 8 34 22 63 31 53 18 54 19 57 60 6 76 -77 181 -155 198 -21 4 -162 8
-313 7 -274 -1 -376 -11 -399 -38 -13 -16 28 -59 92 -94 107 -60 267 -167 267
-180 0 -7 -4 -21 -10 -31 -9 -18 -12 -18 -76 0 -37 10 -74 25 -83 33 -9 7 -36
24 -61 36 -83 42 -164 102 -245 181 -44 43 -93 83 -110 89 -39 15 -216 22
-277 10z m112 -322 c14 -10 51 -36 84 -58 145 -95 191 -181 87 -166 -45 7
-103 46 -215 146 -98 88 -105 105 -48 112 30 4 54 -5 92 -34z m1171 -312 c45
-19 135 -81 179 -123 29 -28 32 -35 20 -43 -27 -18 -61 -10 -128 27 -87 47
-125 80 -134 111 -13 45 5 52 63 28z m-941 -181 c26 -13 30 -21 30 -55 0 -38
-2 -40 -29 -40 -48 0 -81 66 -49 98 15 15 13 15 48 -3z m1242 -207 c7 -13 15
-50 18 -83 5 -59 6 -61 55 -93 63 -43 70 -54 50 -92 -21 -41 -58 -40 -175 5
-50 19 -110 35 -131 35 -54 0 -114 -33 -143 -78 -13 -20 -31 -44 -41 -52 -15
-13 -19 -12 -32 5 -17 23 -15 167 3 185 5 5 46 13 89 16 117 10 193 53 225
130 16 35 24 44 44 44 16 0 30 -9 38 -22z m-1042 -403 c32 -39 -26 -145 -80
-145 -21 0 -60 33 -60 50 0 29 34 70 72 88 52 26 53 26 68 7z m1163 -65 c26
-23 33 -36 30 -55 -4 -20 -10 -24 -33 -21 -15 2 -42 13 -59 26 -39 27 -39 61
-1 71 14 4 26 7 27 8 1 1 18 -12 36 -29z m-368 -80 c14 -5 37 -21 52 -34 25
-24 25 -24 5 -35 -50 -27 -112 -6 -112 38 0 42 10 48 55 31z m534 -351 c28
-10 61 -51 61 -77 0 -4 -9 -18 -20 -30 -18 -18 -24 -20 -48 -10 -61 25 -94 94
-54 117 22 13 23 13 61 0z m-1981 -187 c22 -28 14 -70 -21 -108 -30 -33 -34
-35 -60 -23 -47 21 -48 88 -3 134 26 26 61 25 84 -3z m1648 -58 c59 -31 104
-72 104 -94 0 -61 -101 -50 -191 21 -43 34 -44 36 -29 73 13 34 51 34 116 0z
m-1750 -373 c33 -16 85 -54 116 -84 50 -50 54 -57 37 -62 -26 -8 -67 2 -86 20
-8 8 -26 18 -41 21 -47 12 -102 62 -102 93 0 23 7 41 15 41 1 0 28 -13 61 -29z
m2310 -277 c196 -106 201 -111 164 -193 -31 -67 -27 -81 40 -139 33 -29 60
-59 60 -65 0 -7 -9 -30 -21 -51 -13 -25 -19 -50 -16 -70 2 -17 1 -39 -4 -48
-8 -15 -14 -16 -52 -4 -23 7 -62 27 -86 44 -24 18 -51 32 -60 32 -9 0 -3 8 15
19 65 40 81 92 40 130 -30 29 -74 40 -108 29 -26 -9 -27 -12 -21 -60 l6 -50
-34 7 c-41 8 -106 45 -134 75 -11 11 -31 32 -44 46 l-24 24 38 0 c32 0 44 7
77 42 21 23 38 45 38 49 0 4 17 13 38 20 40 12 62 27 62 39 0 4 -18 30 -40 56
-43 52 -47 63 -28 82 18 18 41 15 94 -14z m-1281 -57 c104 -48 205 -113 205
-132 0 -27 -13 -45 -31 -45 -38 0 -230 108 -289 163 -86 80 -42 85 115 14z
m1069 -487 c13 -13 -3 -30 -28 -30 -27 0 -51 24 -41 40 7 12 53 5 69 -10z
m960 -384 c25 -10 37 -24 46 -52 11 -33 11 -39 -6 -51 -39 -28 -101 -9 -134
42 -19 29 -19 30 2 52 25 27 45 29 92 9z m-2646 -18 l35 -21 -6 -68 c-5 -65
-42 -158 -68 -174 -6 -4 -32 14 -59 40 -43 43 -47 50 -39 73 5 14 21 35 34 48
13 12 27 39 31 60 6 37 20 64 32 64 2 0 20 -10 40 -22z m-1151 -210 c23 -18
14 -55 -23 -100 -37 -44 -79 -74 -87 -61 -14 23 -25 89 -20 115 11 55 87 82
130 46z"/>
<path d="M13290 6893 l-31 -28 0 -170 c1 -179 15 -271 48 -308 37 -40 118 -76
213 -92 52 -9 151 -29 220 -45 69 -16 215 -44 325 -61 109 -17 212 -37 227
-45 57 -29 77 -200 29 -248 -20 -19 -21 -19 -41 -1 -16 15 -20 30 -20 82 0 60
-2 64 -31 82 -18 11 -61 22 -103 26 -39 4 -115 13 -168 21 -54 8 -117 14 -141
14 -51 0 -102 -30 -128 -75 -21 -36 -36 -170 -45 -400 -6 -143 -4 -176 9 -208
18 -41 52 -60 101 -55 43 4 49 49 11 88 l-26 27 32 27 31 27 -16 49 c-9 27
-16 63 -16 81 l0 32 53 -6 c152 -15 210 -105 121 -186 -30 -28 -34 -37 -34
-84 0 -63 33 -138 85 -196 51 -56 119 -76 232 -68 79 6 83 5 102 -18 13 -17
19 -41 19 -76 0 -56 5 -65 43 -74 21 -5 31 -1 52 24 32 38 34 66 42 439 6 339
13 503 25 596 10 78 32 110 87 125 19 6 187 15 373 22 371 14 431 10 519 -36
57 -30 67 -38 116 -99 108 -134 159 -286 157 -471 -1 -110 -25 -201 -74 -275
-56 -87 -63 -118 -43 -202 20 -78 13 -93 -35 -83 -94 19 -147 17 -249 -9 -56
-15 -139 -29 -184 -33 -45 -3 -88 -10 -95 -16 -22 -18 -3 -69 44 -116 46 -47
52 -62 31 -79 -16 -13 -52 -4 -87 21 -144 104 -235 143 -306 132 -37 -5 -45
-10 -50 -33 -3 -15 -7 -32 -9 -38 -5 -15 71 -91 136 -137 71 -50 346 -221 534
-332 167 -100 416 -264 457 -303 43 -40 51 -75 25 -113 -30 -45 -68 -52 -218
-46 -89 5 -129 3 -137 -5 -16 -16 -15 -65 3 -96 25 -46 83 -177 94 -213 5 -19
19 -59 30 -89 16 -44 20 -80 21 -187 0 -156 8 -185 47 -180 38 5 69 54 77 121
8 63 37 106 70 106 48 0 196 -66 314 -141 31 -19 65 -76 58 -95 -5 -14 -19
-15 -94 -10 -93 8 -142 0 -237 -35 -38 -14 -84 -23 -126 -23 -59 -1 -71 3
-128 38 -81 49 -128 57 -165 25 -25 -22 -26 -27 -15 -57 10 -30 36 -52 153
-131 95 -65 97 -138 5 -197 -46 -29 -59 -24 -80 29 -16 41 -38 67 -57 67 -28
0 -81 -81 -82 -125 -1 -116 152 -137 676 -91 160 13 303 30 318 37 22 10 27
18 25 44 -7 80 36 74 125 -19 74 -77 116 -99 172 -89 52 10 66 31 62 93 l-3
55 35 -4 c19 -1 68 -19 108 -38 45 -21 80 -32 92 -28 29 9 43 42 35 83 -9 48
-70 170 -104 207 -15 17 -35 42 -45 58 l-17 27 46 20 c26 11 51 20 56 20 4 0
15 14 24 30 30 57 -15 95 -108 92 -98 -4 -133 11 -212 92 -82 82 -112 125
-185 255 -54 97 -81 167 -131 333 -16 54 -46 133 -67 175 -32 66 -42 79 -65
81 -16 2 -38 -5 -53 -17 -47 -37 -106 -25 -180 35 -33 27 -44 43 -44 65 0 31
31 49 54 30 7 -6 32 -18 56 -26 24 -8 65 -29 92 -45 26 -17 50 -30 53 -30 13
0 3 50 -15 70 -11 13 -20 27 -20 31 0 5 -31 42 -69 81 -82 87 -86 95 -110 196
-23 98 -15 157 31 224 18 27 20 27 48 13 16 -8 40 -15 54 -15 68 0 296 234
296 305 0 16 -15 20 -24 6 -3 -4 -24 -11 -47 -15 -32 -5 -48 -2 -75 15 -40 24
-37 35 33 113 23 26 43 52 43 56 0 11 49 -1 58 -14 4 -6 9 -40 12 -76 4 -55 8
-65 23 -65 21 0 97 133 97 170 0 44 -61 142 -146 233 -82 88 -99 122 -61 122
8 0 63 -16 123 -36 201 -66 213 -36 134 321 -34 152 -116 421 -131 431 -5 3
-19 24 -31 47 -30 59 -60 93 -144 162 -94 77 -316 191 -419 216 -27 6 -76 20
-108 31 -108 35 -287 34 -287 -2 0 -5 23 -19 50 -31 28 -12 50 -25 50 -30 0
-4 -26 -13 -57 -20 -105 -22 -133 -46 -133 -111 0 -47 22 -74 73 -87 57 -14
74 -33 59 -66 -15 -32 -57 -48 -102 -40 -40 7 -312 146 -352 181 -16 12 -38
26 -50 30 -38 12 -127 74 -144 100 -14 20 -15 29 -5 51 11 25 14 25 79 21 85
-6 139 -34 172 -87 16 -26 32 -41 45 -41 30 1 99 34 152 75 25 19 57 38 70 41
20 5 24 12 21 37 -2 25 -10 32 -40 43 -70 24 -282 38 -590 38 -297 1 -307 0
-335 -20 -23 -18 -28 -29 -28 -63 0 -47 -14 -61 -62 -61 -48 0 -82 16 -134 65
-26 24 -64 48 -85 54 -82 22 -230 31 -511 31 l-293 0 -30 -27z m245 -249 c44
-15 94 -37 112 -50 17 -13 36 -24 40 -24 17 0 133 -80 143 -99 23 -44 14 -54
-42 -49 -73 7 -317 136 -360 190 -51 65 -20 74 107 32z m2512 -50 c-3 -3 -12
-4 -19 -1 -8 3 -5 6 6 6 11 1 17 -2 13 -5z m111 -48 c9 -10 -7 -36 -20 -31
-68 24 -70 25 -59 39 9 11 20 12 43 5 17 -4 33 -11 36 -13z m-1558 -141 c31
-16 33 -19 15 -26 -11 -4 -60 -8 -110 -8 -152 -1 -196 14 -134 47 35 19 184
11 229 -13z m381 -5 c28 -16 23 -30 -10 -30 -46 0 -64 10 -50 26 14 17 33 18
60 4z m1082 -20 c31 -11 62 -20 69 -20 17 0 159 -72 200 -102 53 -37 77 -70
78 -105 0 -42 -14 -42 -100 -5 -95 41 -267 165 -282 203 -4 11 -16 19 -27 19
-21 0 -35 13 -24 24 10 10 25 7 86 -14z m-119 -371 c63 -11 221 -72 276 -106
19 -12 47 -25 63 -28 15 -4 27 -10 27 -14 0 -3 3 -16 6 -28 6 -21 3 -23 -28
-23 -50 0 -433 67 -457 80 -59 31 -50 107 14 123 32 8 39 8 99 -4z m-1578
-531 c-8 -13 -17 -50 -21 -82 -8 -71 -22 -96 -53 -96 -58 0 -110 60 -97 113
12 47 77 86 143 87 42 0 42 0 28 -22z m1638 -64 c10 -26 7 -79 -5 -91 -19 -19
-66 4 -78 39 -15 43 1 68 43 68 22 0 36 -6 40 -16z m248 -1638 c32 -7 57 -63
33 -73 -23 -8 -61 5 -92 31 -24 21 -26 26 -14 40 8 9 21 15 30 12 9 -2 28 -7
43 -10z m-459 -139 c7 -22 6 -33 -6 -45 -23 -22 -81 -5 -85 27 -6 40 5 52 45
49 30 -2 38 -8 46 -31z"/>
<path d="M21558 6909 c-69 -4 -152 -13 -184 -19 -60 -13 -104 -45 -104 -77 0
-33 118 -135 215 -187 28 -14 77 -42 110 -60 33 -19 78 -44 100 -56 73 -41
171 -110 205 -145 29 -30 32 -37 20 -45 -51 -32 -261 41 -439 153 -94 60 -150
52 -181 -24 -7 -16 -9 -40 -6 -54 9 -34 84 -81 153 -95 67 -14 113 -53 141
-118 28 -66 32 -102 42 -462 5 -173 12 -328 17 -345 9 -29 12 -30 79 -36 94
-8 149 -27 185 -63 35 -36 36 -55 4 -104 -13 -20 -27 -51 -31 -67 -6 -33 37
-267 61 -328 26 -64 20 -118 -19 -175 -25 -35 -37 -67 -43 -108 -8 -57 -9 -59
-40 -62 -32 -3 -83 17 -115 46 -30 26 -23 74 17 112 23 22 41 53 51 86 11 38
25 60 59 89 25 21 44 42 42 48 -5 17 -111 48 -143 42 -39 -7 -53 -23 -90 -105
-27 -61 -29 -73 -29 -190 0 -123 1 -126 36 -200 34 -71 51 -90 143 -167 15
-12 26 -32 26 -46 0 -20 -7 -26 -44 -37 -107 -30 -148 -82 -176 -229 -37 -189
-33 -195 164 -295 208 -106 251 -154 196 -223 -11 -15 -20 -41 -20 -60 0 -50
-27 -99 -67 -124 -73 -46 -183 -3 -183 71 0 24 10 37 53 68 75 57 89 75 81
106 -12 49 -105 106 -172 106 -27 0 -48 -33 -57 -90 -9 -59 -35 -92 -142 -181
-127 -106 -199 -195 -214 -267 -15 -72 -6 -178 19 -236 46 -103 63 -106 848
-106 639 0 641 0 668 21 38 30 44 52 61 210 26 242 -12 327 -181 414 -90 46
-192 124 -305 232 -102 98 -138 152 -139 205 0 14 -12 40 -26 57 l-25 31 25
25 c21 21 34 25 86 25 98 0 148 36 170 120 7 25 23 77 36 117 29 86 30 118 5
159 -23 37 -72 58 -178 74 -90 14 -135 38 -145 76 -4 16 -4 32 0 36 4 4 34 13
67 21 32 7 60 18 62 24 2 5 -12 33 -31 61 -42 63 -34 73 56 77 54 2 64 5 89
32 19 22 28 46 32 79 9 89 8 278 -3 329 -13 63 -71 142 -129 174 -52 28 -64
57 -55 131 6 57 6 57 -28 78 -18 11 -44 35 -57 52 -44 61 -2 137 90 161 71 19
81 11 74 -63 l-6 -63 40 -28 41 -28 -2 -68 c-2 -47 1 -73 11 -85 13 -16 16
-15 43 10 24 24 28 35 28 83 0 31 -9 101 -20 156 -11 55 -22 133 -23 175 -4
99 -29 148 -100 195 -28 19 -79 44 -111 55 -68 23 -96 44 -96 72 0 33 18 55
89 106 72 53 88 81 71 126 -6 18 -27 34 -62 49 -63 28 -85 61 -71 104 19 57
190 94 278 60 64 -25 70 -33 70 -84 0 -45 -4 -53 -76 -138 -42 -49 -88 -111
-103 -137 l-27 -46 23 -16 c38 -27 56 -19 125 54 86 90 123 115 218 146 44 14
96 38 117 52 59 43 69 81 75 288 6 198 3 224 -29 254 -21 20 -32 20 -592 19
-314 -1 -628 -5 -698 -10z m1176 -141 c23 -32 20 -73 -8 -104 l-23 -28 -19 28
c-21 34 -20 83 3 108 21 23 29 23 47 -4z m-830 -927 c32 -34 27 -51 -14 -51
-47 0 -77 16 -82 44 -6 32 -2 36 37 36 22 0 40 -9 59 -29z m347 -827 c7 -9 29
-22 49 -30 45 -18 77 -66 56 -83 -43 -36 -179 83 -139 122 10 11 19 8 34 -9z
m111 -823 c10 -9 20 -30 24 -47 5 -25 1 -33 -20 -48 -24 -15 -29 -15 -56 -1
-26 14 -80 73 -80 88 0 4 12 13 28 21 31 18 79 12 104 -13z m-535 -322 c11
-55 17 -66 65 -109 50 -44 52 -48 40 -74 -20 -45 -93 -29 -177 39 -70 58 -80
121 -27 178 17 18 36 27 57 27 29 0 31 -2 42 -61z m824 -811 c38 -21 67 -44
76 -63 18 -34 20 -117 3 -160 -17 -45 -70 -95 -99 -95 -32 0 -92 53 -110 98
-16 39 -11 45 52 62 20 6 37 16 37 22 0 6 -15 32 -34 58 -79 109 -47 143 75
78z"/>
<path d="M24110 6914 c-273 -13 -429 -31 -453 -53 -4 -4 3 -19 15 -33 21 -23
33 -26 118 -32 150 -10 230 -27 230 -47 0 -9 -13 -11 -76 -13 -40 -1 -60 -19
-75 -64 -7 -20 -20 -44 -31 -53 -17 -16 -24 -15 -94 7 -41 13 -87 30 -102 38
-104 54 -159 -15 -90 -113 18 -25 75 -85 128 -132 140 -127 172 -207 100 -247
-43 -24 -74 -3 -115 80 -20 40 -47 84 -59 98 -12 14 -42 52 -66 85 -24 33 -61
78 -81 100 -66 73 -92 137 -97 239 -5 105 -12 120 -49 103 -53 -24 -86 -139
-87 -307 0 -87 3 -113 21 -151 23 -52 80 -92 146 -104 94 -18 150 -97 196
-279 36 -142 42 -216 45 -621 2 -299 2 -300 28 -362 29 -69 73 -128 120 -163
30 -22 32 -22 45 -5 18 25 18 25 -19 80 l-32 49 -1 195 c0 185 -1 198 -23 239
-12 23 -20 47 -17 52 11 17 73 28 111 20 35 -8 103 -51 153 -96 23 -21 69 -38
175 -63 69 -16 132 -62 140 -102 9 -44 -15 -79 -53 -79 -31 0 -178 72 -212
103 -25 24 -82 47 -113 47 -14 0 -37 -10 -51 -23 -23 -19 -27 -31 -27 -73 1
-50 31 -146 61 -194 8 -14 35 -47 59 -74 24 -28 50 -62 57 -77 16 -30 13 -35
-42 -63 -27 -14 -33 -22 -33 -49 0 -45 -25 -77 -60 -77 -15 0 -59 14 -97 31
-90 41 -140 51 -174 34 -42 -22 -53 -63 -46 -170 8 -118 39 -200 88 -232 68
-44 89 -65 89 -88 0 -12 -27 -57 -60 -101 -33 -43 -65 -97 -71 -119 -6 -22
-17 -59 -24 -81 -24 -71 -34 -162 -39 -354 -4 -124 -11 -202 -21 -237 -19 -65
-67 -115 -153 -162 -56 -31 -68 -44 -111 -115 -26 -45 -51 -89 -55 -100 -3
-10 -7 -65 -7 -122 0 -92 3 -111 27 -164 49 -110 102 -132 272 -110 153 19
217 55 257 146 13 30 26 54 29 54 3 0 31 -11 63 -25 31 -14 111 -39 177 -56
99 -25 141 -30 252 -32 148 -2 165 3 142 46 -16 32 -168 170 -223 204 -22 14
-44 30 -50 37 -46 53 -260 176 -331 191 -26 5 -32 2 -42 -20 -7 -14 -12 -38
-12 -53 0 -37 -17 -52 -58 -52 -27 0 -42 8 -69 36 -39 41 -38 55 10 121 20 29
31 58 35 92 4 46 7 51 34 56 40 9 171 -57 266 -133 95 -76 154 -122 198 -152
19 -14 60 -44 91 -68 30 -24 82 -61 116 -82 34 -21 74 -48 88 -59 53 -41 319
-172 394 -194 89 -27 131 -25 139 6 7 30 -25 77 -94 137 -37 32 -60 60 -60 72
0 18 5 20 44 16 26 -3 61 -17 87 -36 56 -38 268 -158 294 -165 11 -4 119 -18
240 -33 167 -20 264 -27 400 -26 239 0 301 16 326 80 16 40 28 234 19 302 -24
189 -34 227 -71 263 -11 10 -19 28 -19 41 0 16 -18 39 -54 71 -30 26 -60 60
-67 76 -10 26 -9 32 7 44 11 8 31 17 46 20 37 9 40 15 27 75 -9 43 -8 55 5 75
l17 25 37 -19 c21 -11 44 -27 51 -35 19 -22 31 -10 31 30 0 61 -37 87 -170
119 -91 21 -132 26 -203 23 -79 -3 -90 -6 -106 -26 -10 -13 -26 -23 -37 -22
-63 7 -86 -1 -134 -46 -52 -49 -63 -73 -75 -174 -9 -72 -44 -122 -103 -151
-41 -19 -72 -23 -237 -30 -273 -12 -683 -11 -727 2 -65 17 -65 20 -71 439 -6
454 -19 543 -86 604 -51 46 11 55 409 57 454 3 653 12 834 38 82 12 161 24
175 28 38 9 101 42 101 53 0 15 -56 40 -92 40 -54 0 -78 10 -78 33 0 12 -12
59 -26 105 -14 46 -24 86 -21 89 3 3 43 -7 88 -21 90 -29 125 -28 155 6 16 17
19 37 19 118 0 94 -1 100 -31 137 -56 71 -78 76 -349 84 -132 4 -420 8 -641 8
l-401 1 -28 26 -28 26 7 101 c3 56 11 165 16 242 5 77 12 231 16 343 8 235 9
237 94 252 80 14 658 29 776 20 126 -10 272 -54 337 -101 25 -19 46 -39 46
-44 2 -19 -30 -55 -48 -55 -37 0 -68 -37 -80 -97 -11 -55 -10 -59 11 -75 34
-26 83 -30 303 -26 294 5 300 10 293 264 -4 145 -5 152 -36 215 -18 35 -58 95
-90 132 -32 38 -63 81 -69 96 l-10 29 88 4 c98 5 117 14 150 80 13 26 19 58
19 106 0 62 -3 71 -27 94 -85 79 -94 80 -1138 83 -495 1 -934 1 -975 -1z
m1092 -127 c29 -35 27 -42 -14 -52 -23 -6 -34 -1 -65 30 -36 36 -37 38 -18 52
28 20 65 8 97 -30z m-477 3 c85 -22 112 -41 152 -105 34 -53 91 -107 188 -177
44 -32 98 -73 119 -91 l39 -34 -23 -23 c-22 -22 -27 -23 -141 -17 -138 7 -184
23 -194 67 -4 16 -20 47 -36 70 -31 42 -70 71 -247 181 -109 68 -174 134 -149
152 20 14 207 -1 292 -23z m-508 -409 c21 -10 56 -27 77 -37 22 -10 56 -34 78
-54 32 -31 38 -44 38 -77 0 -34 -5 -44 -39 -71 -55 -45 -86 -35 -110 36 -17
48 -98 157 -143 190 -46 34 37 44 99 13z m1563 -51 c0 -5 -6 -10 -14 -10 -8 0
-18 5 -21 10 -3 6 3 10 14 10 12 0 21 -4 21 -10z m173 -58 c46 -25 107 -88
107 -111 0 -21 -54 -11 -129 25 -77 37 -147 96 -136 114 11 17 106 0 158 -28z
m142 -176 c13 -20 14 -31 5 -63 -20 -71 -68 -105 -109 -77 -35 25 -27 67 22
119 24 25 49 45 55 45 6 0 19 -11 27 -24z m-995 -1021 c65 -34 59 -92 -8 -79
-34 7 -97 68 -87 85 9 14 63 11 95 -6z m-824 -963 c32 -21 48 -134 22 -160
-17 -17 -54 -15 -72 4 -16 16 -23 115 -10 148 6 17 41 21 60 8z m1568 -421
c-3 -14 -15 -38 -25 -53 -30 -43 -25 -92 11 -118 51 -36 55 -90 13 -152 -33
-49 -85 -68 -114 -42 -19 17 -19 18 6 44 33 34 32 54 -6 124 -40 74 -42 133
-8 202 19 39 30 50 54 55 41 8 77 -24 69 -60z m-1956 -92 c48 -22 96 -49 107
-59 11 -10 33 -24 49 -29 23 -10 26 -14 16 -26 -16 -19 -63 -18 -115 1 -22 8
-60 22 -85 31 -25 9 -69 32 -97 52 -49 33 -52 36 -36 53 25 28 66 22 161 -23z
m1324 -345 c80 -18 125 -52 134 -101 6 -28 3 -34 -27 -52 -19 -12 -51 -21 -73
-21 -105 0 -258 73 -270 128 -12 61 85 80 236 46z m985 -21 c5 -16 8 -104 8
-198 0 -206 -7 -228 -72 -233 -84 -6 -193 79 -193 151 0 33 9 47 79 122 44 46
82 94 86 107 9 28 54 78 72 78 7 0 16 -12 20 -27z m-2743 -144 c26 -12 42 -59
23 -71 -31 -20 -86 2 -108 44 -9 16 -8 23 2 29 19 12 54 11 83 -2z"/>
<path d="M27090 6913 c-14 -3 -36 -14 -48 -26 -21 -20 -23 -29 -20 -87 3 -51
9 -73 29 -100 31 -41 43 -94 29 -121 -6 -10 -24 -26 -41 -35 -29 -14 -37 -14
-103 2 -39 9 -84 23 -101 32 -32 15 -74 60 -75 78 0 13 63 38 129 53 24 5 51
17 60 26 15 15 12 20 -36 65 -42 41 -58 50 -87 50 -49 0 -67 -31 -76 -132 -4
-49 -12 -83 -20 -88 -19 -12 -25 -123 -9 -163 21 -53 65 -101 105 -116 22 -8
86 -24 143 -35 l105 -21 41 -60 c38 -54 46 -60 82 -63 37 -3 40 -1 58 37 10
22 21 38 26 36 4 -3 17 -35 29 -71 20 -58 21 -75 14 -157 -13 -130 -7 -171 32
-250 42 -85 44 -114 8 -128 -56 -21 -123 27 -136 96 -4 16 -1 70 5 120 13 116
7 145 -33 145 -36 0 -46 -17 -67 -113 -13 -60 -16 -198 -20 -835 -3 -420 -2
-778 1 -797 9 -44 37 -61 76 -45 21 9 38 9 71 0 48 -13 138 -69 139 -86 0 -18
-24 -41 -49 -47 -30 -7 -122 27 -160 59 -29 24 -57 24 -73 0 -4 -6 -8 -78 -8
-161 0 -144 1 -152 28 -210 17 -35 45 -74 68 -93 21 -18 48 -42 60 -52 19 -20
34 -29 114 -75 43 -25 100 -82 100 -100 0 -8 -10 -19 -21 -26 -23 -12 -69 -3
-134 26 -111 50 -146 51 -191 4 -22 -23 -29 -40 -32 -88 -5 -73 16 -101 77
-101 21 0 52 -5 70 -11 25 -9 31 -17 31 -39 0 -26 -4 -29 -50 -39 -28 -6 -81
-11 -118 -11 -66 -1 -212 -16 -219 -24 -6 -6 91 -96 104 -96 14 0 33 -31 33
-54 0 -23 -42 -20 -73 4 -14 11 -28 20 -32 20 -4 0 -34 18 -67 40 l-60 40 -28
-20 c-52 -37 -84 -172 -61 -256 15 -55 62 -118 113 -151 38 -24 52 -27 123
-26 46 0 98 7 123 17 58 21 207 56 240 56 15 0 53 -18 85 -39 71 -49 103 -54
288 -49 160 4 192 14 208 61 9 25 8 32 -6 42 -18 13 -83 25 -134 25 -16 0 -38
9 -49 20 -41 41 -15 96 51 106 43 7 145 -43 309 -150 66 -44 126 -76 140 -76
26 0 66 23 87 50 46 58 57 339 17 410 -24 41 -80 75 -147 90 -119 25 -201 85
-227 166 -18 53 -69 134 -102 162 -34 29 -38 80 -8 107 12 11 20 31 20 49 0
29 -5 34 -77 69 -87 42 -173 115 -173 147 0 29 29 26 154 -15 206 -67 229 -51
224 168 -3 132 -3 134 24 169 33 43 55 51 218 78 171 28 235 45 305 82 78 40
115 39 207 -11 40 -21 124 -66 186 -100 62 -33 116 -61 118 -61 3 0 42 -18 87
-39 142 -68 249 -108 332 -126 135 -28 128 -24 153 -94 12 -34 36 -79 52 -99
17 -20 30 -45 30 -56 0 -31 -94 -16 -172 27 -82 45 -232 93 -333 107 -43 6
-90 17 -103 26 -13 9 -39 48 -57 88 -18 39 -40 77 -48 85 -26 21 -73 5 -87
-30 -11 -26 -9 -41 23 -132 95 -273 134 -356 187 -395 36 -27 61 -23 84 13 9
14 25 25 35 25 53 0 221 -99 221 -130 0 -37 -27 -45 -88 -26 -66 21 -139 54
-164 74 -15 13 -18 13 -24 -3 -12 -30 32 -97 109 -167 53 -48 77 -77 87 -108
8 -23 28 -61 45 -84 18 -22 34 -52 38 -64 l6 -24 -83 7 c-89 8 -92 7 -131 -60
-17 -29 -81 -22 -155 15 -36 18 -75 41 -86 52 -31 28 -81 21 -108 -15 -18 -25
-21 -45 -24 -162 -5 -160 10 -228 58 -269 50 -41 95 -48 309 -44 174 3 200 5
229 23 36 22 38 34 17 95 -28 81 5 86 142 24 41 -19 89 -34 107 -34 31 0 34 3
46 46 25 88 65 96 156 32 94 -66 174 -95 284 -103 131 -10 204 5 249 49 31 31
34 40 39 109 8 136 -50 317 -119 370 -19 14 -63 35 -98 47 -97 32 -150 63
-213 123 -37 34 -73 58 -100 66 -90 27 -113 37 -116 52 -1 8 11 35 27 59 17
25 31 56 31 70 0 41 -36 161 -64 216 -14 29 -26 57 -26 63 0 24 -155 328 -183
359 -9 10 -19 32 -23 48 -3 17 -32 67 -65 113 -32 45 -64 91 -70 103 -16 31
-13 106 7 136 9 15 97 106 194 202 97 96 185 189 196 205 10 17 34 50 53 75
64 85 91 156 91 241 0 41 7 98 15 125 21 73 37 223 39 366 1 113 -1 129 -20
154 -34 46 -66 64 -133 75 -102 16 -116 -12 -52 -102 54 -77 71 -113 71 -154
0 -75 -30 -91 -105 -56 -92 41 -140 118 -154 246 -11 90 -33 141 -108 248 -18
26 -33 54 -33 62 0 7 -8 19 -17 24 -16 9 -15 10 8 11 14 0 29 -4 35 -9 5 -4
31 -14 58 -20 28 -7 73 -23 100 -36 78 -37 146 -51 157 -34 20 32 6 57 -94
159 -137 139 -291 265 -385 314 -37 19 -92 21 -115 4 -9 -7 -24 -38 -34 -68
-15 -47 -22 -55 -45 -58 -55 -6 -203 76 -234 130 -13 22 -30 61 -39 84 -15 44
-308 69 -695 61 -251 -5 -307 -12 -345 -42 -17 -13 -18 -16 -5 -25 34 -23 96
-31 310 -40 329 -15 328 -14 309 -97 -17 -72 -5 -95 99 -189 47 -44 93 -87
101 -96 9 -10 21 -18 28 -18 6 0 24 -11 39 -25 15 -14 32 -25 39 -25 17 0 164
-79 205 -110 19 -14 71 -48 115 -74 100 -59 152 -103 160 -137 6 -24 2 -28
-35 -43 -66 -26 -74 -57 -66 -251 8 -181 -2 -284 -35 -365 -54 -131 -150 -245
-248 -294 -69 -35 -134 -49 -310 -66 -168 -16 -208 -33 -246 -104 -17 -31 -25
-36 -55 -36 -19 0 -55 7 -80 14 -43 14 -197 82 -250 110 -14 8 -65 35 -115 61
-124 64 -182 105 -196 138 -6 15 -10 30 -7 32 2 3 33 9 67 13 35 5 67 15 71
22 5 9 -8 30 -42 64 -43 44 -49 54 -44 80 4 17 12 34 19 38 17 11 112 38 134
38 45 0 61 12 73 53 6 24 14 161 17 321 6 270 7 281 28 301 28 29 58 32 370
45 378 15 401 18 433 45 l26 23 -27 36 c-15 19 -49 46 -75 59 -115 58 -142 73
-227 122 -50 29 -108 58 -130 65 -22 7 -56 21 -75 32 -49 29 -242 92 -358 118
-114 26 -180 57 -240 112 -56 52 -109 74 -205 87 -76 11 -316 13 -367 4z
m1614 -185 c11 -15 12 -27 4 -49 -11 -32 -33 -37 -63 -15 -17 12 -24 63 -11
85 9 14 55 0 70 -21z m-928 -390 c104 -51 125 -115 61 -188 -40 -47 -64 -59
-113 -60 -44 0 -76 25 -87 68 -4 18 1 25 28 36 18 8 35 19 39 24 3 6 -7 34
-24 62 -35 59 -36 65 -12 79 21 13 53 7 108 -21z m1674 -563 l23 -25 -31 0
c-27 0 -32 4 -32 25 0 14 4 25 8 25 5 0 19 -11 32 -25z m-2079 -274 c42 -42
41 -99 -2 -135 -37 -31 -58 -33 -91 -6 -48 37 -41 140 10 158 42 16 52 14 83
-17z m2047 18 c17 -6 42 -25 56 -43 30 -40 26 -66 -18 -117 -17 -20 -38 -49
-47 -66 -20 -37 -76 -49 -112 -24 -19 13 -22 22 -17 51 4 19 12 45 18 57 7 12
15 45 20 75 6 42 12 55 32 65 31 16 30 15 68 2z m507 -9 c8 -7 15 -25 15 -41
0 -60 -79 -63 -146 -5 l-39 34 35 16 c39 18 111 16 135 -4z m-147 -261 c47
-16 71 -98 40 -137 -29 -34 -118 -29 -138 8 -22 41 -9 113 23 128 29 14 38 14
75 1z m-2406 -259 c38 -22 109 -70 159 -106 76 -57 89 -70 89 -95 0 -25 -4
-29 -29 -29 -52 0 -247 115 -308 181 -18 21 -28 54 -24 82 3 17 49 4 113 -33z
m1358 -146 c30 -18 68 -47 83 -63 24 -25 27 -33 17 -50 -6 -12 -15 -21 -20
-21 -27 0 -167 82 -183 107 -4 6 -15 20 -24 29 -16 15 -16 17 3 31 25 18 55
10 124 -33z m477 -139 c38 -38 38 -44 10 -120 -14 -36 -14 -42 1 -67 18 -29
64 -64 124 -97 67 -37 166 -111 198 -147 l32 -37 -20 -20 c-18 -18 -25 -19
-66 -8 -68 17 -128 59 -259 184 -113 106 -149 153 -168 222 -13 44 5 90 44
109 47 23 65 20 104 -19z m-986 -35 c10 0 31 -13 46 -30 14 -16 35 -30 45 -30
10 0 18 -4 18 -10 0 -16 -70 -12 -76 4 -3 8 -16 17 -29 20 -13 3 -36 11 -51
16 -22 9 -24 13 -13 26 6 8 19 12 26 9 8 -3 23 -5 34 -5z m-867 -895 c18 -9
39 -28 48 -43 14 -24 14 -30 2 -55 -12 -22 -22 -27 -50 -27 -72 0 -130 106
-71 130 31 12 35 12 71 -5z m636 -655 c169 -55 259 -135 204 -180 -24 -21
-106 11 -210 80 -129 86 -153 108 -134 120 19 13 56 8 140 -20z m2193 -54 c18
-7 75 -56 126 -107 l92 -94 -39 -17 c-37 -16 -44 -17 -83 -3 -87 31 -247 117
-279 150 -30 31 -32 37 -22 60 11 24 16 25 92 25 46 0 95 -6 113 -14z m-1085
-166 c39 -24 41 -47 5 -61 -21 -8 -36 -6 -65 7 -31 14 -38 22 -38 46 0 25 3
28 33 28 17 0 47 -9 65 -20z"/>
<path d="M32878 6907 c-59 -17 -72 -28 -99 -84 -19 -39 -23 -67 -27 -207 -3
-112 -1 -174 7 -199 18 -53 75 -94 163 -116 151 -37 167 -66 188 -349 14 -191
38 -350 59 -398 20 -45 33 -56 182 -154 131 -87 154 -109 136 -134 -17 -23
-93 -32 -140 -17 -26 9 -43 24 -59 54 -19 34 -30 43 -54 45 -25 2 -37 -3 -53
-24 -41 -52 -21 -117 68 -215 27 -31 64 -62 81 -69 36 -15 37 -20 5 -50 -38
-36 -33 -70 18 -102 132 -86 157 -113 138 -155 -10 -22 -16 -24 -43 -19 -18 3
-55 17 -83 30 -28 13 -75 29 -103 37 -52 13 -53 13 -80 -14 -25 -26 -27 -33
-26 -115 1 -56 7 -100 17 -123 20 -45 109 -139 164 -173 23 -14 47 -34 53 -45
14 -27 12 -71 -5 -101 -8 -14 -14 -39 -15 -56 0 -19 -9 -39 -24 -53 -32 -30
-76 -21 -113 24 -23 27 -33 32 -55 28 -34 -6 -35 -15 -42 -218 -2 -82 -16
-240 -30 -349 -27 -208 -41 -254 -94 -318 -27 -32 -93 -67 -127 -68 -11 0 -40
-10 -65 -23 -60 -30 -77 -68 -91 -203 -19 -188 -2 -306 48 -330 43 -21 829
-11 850 10 3 2 -11 30 -31 61 -26 40 -35 62 -30 80 8 33 55 43 92 19 44 -29
52 -45 50 -104 -2 -54 -2 -54 33 -63 59 -16 231 -3 275 20 35 18 47 19 112 10
110 -15 223 4 284 48 60 44 118 154 118 226 0 55 -33 125 -81 175 -40 41 -118
58 -232 48 -73 -6 -89 -4 -135 16 -29 13 -63 35 -76 51 -34 40 -63 124 -71
200 -13 130 -25 169 -71 229 -25 33 -65 71 -90 87 -178 111 -201 133 -191 181
7 33 77 153 93 159 17 6 72 -24 84 -47 8 -15 6 -34 -6 -76 -16 -54 -15 -56 6
-79 21 -22 132 -65 169 -65 53 0 59 89 17 245 -46 172 -105 310 -157 368 -25
29 -49 64 -53 80 -5 23 -3 29 19 37 32 12 66 0 118 -46 23 -19 66 -47 97 -62
54 -27 58 -27 250 -27 185 0 197 1 231 23 54 33 62 45 48 75 -13 29 -34 37
-100 37 -51 0 -64 10 -98 78 -12 23 -25 42 -30 42 -4 0 -29 18 -53 40 -48 42
-61 85 -29 95 22 7 156 -45 251 -97 100 -55 183 -127 237 -209 41 -64 47 -68
96 -79 34 -8 122 -11 257 -8 198 4 207 5 275 33 97 40 110 49 144 109 46 82
44 128 -7 158 -26 15 -31 16 -50 2 -16 -11 -22 -27 -24 -67 -3 -50 -4 -52 -33
-55 -25 -2 -32 2 -44 30 -19 42 -19 163 -2 206 16 38 56 62 101 62 78 0 118
105 65 168 -54 64 -214 80 -883 87 -347 3 -541 9 -554 16 -44 23 -46 49 -50
534 -3 413 -1 463 13 490 29 52 54 68 121 74 63 6 63 6 60 36 -2 18 -14 39
-31 52 -101 80 -66 160 78 179 l51 7 0 -52 c0 -74 20 -104 93 -146 47 -26 76
-35 109 -35 56 0 84 24 41 35 -46 11 -71 32 -78 67 -6 26 -3 35 15 50 27 22
42 19 128 -25 70 -36 82 -57 64 -115 -6 -19 -9 -39 -6 -43 8 -14 105 -39 148
-39 50 1 115 15 128 28 6 6 7 24 3 40 -4 22 -15 34 -38 43 -54 21 -198 103
-224 127 -13 12 -27 22 -32 22 -7 0 -97 59 -226 147 -105 72 -158 134 -139
164 10 17 77 9 143 -16 109 -43 362 -165 391 -190 8 -7 44 -27 80 -43 36 -17
103 -52 150 -77 195 -107 416 -163 477 -120 20 14 21 17 8 72 -16 67 -8 83 39
83 51 0 96 17 118 45 17 22 26 26 51 21 17 -4 41 -13 53 -21 l23 -15 -26 -56
-25 -56 47 -48 c30 -31 46 -54 42 -64 -3 -8 -31 -23 -63 -33 -86 -27 -90 -47
-20 -113 45 -43 54 -56 44 -67 -35 -43 -83 -35 -155 25 -74 61 -108 75 -169
69 -61 -6 -105 -25 -157 -68 -44 -36 -69 -82 -87 -157 -11 -46 -10 -59 4 -97
25 -65 60 -78 227 -83 149 -5 249 7 309 38 40 20 95 77 104 107 20 71 45 260
44 333 -2 47 -1 199 0 338 3 176 0 257 -7 266 -30 36 -60 37 -542 33 -261 -2
-485 -8 -499 -11 -14 -4 -36 -15 -49 -25 l-23 -18 17 -58 c14 -49 14 -60 3
-71 -23 -23 -71 -1 -143 67 -37 35 -77 69 -89 76 -47 25 -159 35 -446 40 -402
7 -480 -6 -464 -81 3 -17 13 -41 21 -54 20 -32 10 -52 -27 -52 -40 0 -105 44
-154 104 -56 69 -95 78 -356 82 -158 3 -227 0 -262 -9z m100 -327 c12 -16 22
-43 22 -60 0 -26 -4 -30 -28 -30 -29 0 -48 22 -63 74 -15 53 34 64 69 16z
m417 -305 c14 -13 25 -31 25 -38 0 -21 -48 -30 -81 -17 -27 11 -46 51 -34 70
12 19 66 10 90 -15z m406 -201 c17 -21 14 -89 -5 -119 -27 -42 -58 -57 -92
-45 -54 19 -79 88 -50 140 24 43 118 58 147 24z m804 -1048 c18 -13 18 -14 -3
-25 -16 -8 -28 -9 -42 -1 -23 12 -26 26 -7 33 21 9 33 7 52 -7z m-1205 -1256
c31 -17 50 -60 37 -87 -24 -52 -130 -17 -139 47 -2 16 0 34 6 40 13 13 72 13
96 0z m397 -202 c51 -40 -1 -178 -67 -178 -96 0 -120 163 -28 188 35 10 75 6
95 -10z m-448 -85 c68 -51 165 -143 157 -150 -4 -5 -44 -8 -89 -9 -94 0 -123
-12 -132 -53 -8 -37 13 -78 54 -109 17 -12 31 -26 31 -30 0 -5 -29 -32 -64
-61 -36 -30 -70 -67 -77 -83 -17 -41 -65 -78 -102 -78 -51 0 -179 50 -215 84
-25 24 -32 38 -30 61 l3 30 87 -3 c76 -3 90 -1 116 18 36 27 45 58 65 228 15
127 30 165 70 182 34 15 84 4 126 -27z m695 -414 c37 -5 78 -15 90 -21 13 -7
62 -10 127 -9 194 4 245 -50 142 -152 -61 -61 -212 -142 -298 -160 -46 -9 -63
-8 -109 6 -31 10 -58 22 -62 28 -13 21 6 56 41 72 19 9 35 21 35 25 0 5 -27
32 -60 59 -74 63 -107 102 -115 135 -6 22 -3 27 17 31 26 5 91 0 192 -14z"/>
<path d="M34207 2934 c-12 -13 4 -24 34 -24 20 0 29 4 27 13 -5 13 -50 22 -61
11z"/>
<path d="M36305 6909 c-50 -12 -67 -25 -91 -69 -27 -51 -33 -307 -9 -397 23
-83 23 -84 220 -143 59 -17 80 -53 115 -190 7 -25 18 -55 26 -68 19 -29 80
-67 148 -93 30 -11 71 -33 92 -50 39 -31 69 -83 58 -101 -10 -16 -75 -1 -159
38 -65 30 -83 35 -109 27 -35 -10 -53 -45 -43 -85 6 -22 60 -58 88 -58 5 0 42
-14 82 -31 58 -24 77 -37 92 -65 15 -28 16 -39 7 -59 -19 -42 -41 -42 -76 -2
-44 51 -69 55 -96 17 -29 -41 -21 -70 41 -158 54 -77 148 -154 304 -248 100
-61 135 -67 174 -30 19 18 41 26 84 30 88 8 113 31 126 114 14 84 27 246 46
572 17 275 24 309 74 329 14 6 82 15 151 21 221 18 252 21 329 36 100 19 124
29 144 63 l17 29 -45 11 c-24 6 -77 11 -118 11 -41 0 -87 5 -104 10 -27 10
-29 14 -29 65 1 78 -23 99 -233 207 -137 69 -176 123 -122 166 21 18 168 11
271 -13 73 -17 75 -19 166 -110 51 -51 125 -115 165 -142 41 -26 112 -77 159
-111 47 -34 119 -84 160 -111 41 -27 97 -71 124 -99 47 -49 48 -51 32 -73 -24
-34 -20 -62 20 -147 64 -136 95 -247 101 -357 5 -93 3 -106 -26 -193 -34 -103
-91 -195 -172 -279 -78 -81 -141 -120 -226 -139 -89 -20 -137 -49 -141 -88 -3
-22 7 -39 52 -86 69 -72 73 -98 17 -121 -25 -11 -49 -32 -65 -58 -15 -23 -33
-41 -40 -41 -29 0 -65 20 -81 43 -15 23 -14 28 5 77 24 60 20 97 -13 128 -54
50 -123 26 -129 -45 -2 -23 -10 -41 -24 -50 -20 -13 -32 -9 -136 46 -64 32
-134 71 -156 85 -93 59 -153 22 -70 -42 81 -62 405 -262 425 -262 5 0 45 -25
89 -56 43 -30 104 -69 134 -85 175 -95 338 -225 312 -251 -5 -5 -37 -13 -70
-18 -76 -10 -82 -14 -82 -50 0 -49 34 -73 140 -95 80 -17 188 -65 240 -107 19
-15 40 -28 47 -28 8 0 13 -12 13 -29 0 -29 -1 -30 -37 -24 -21 3 -63 14 -93
25 -102 37 -128 43 -157 32 -34 -12 -42 -57 -18 -103 21 -42 46 -56 140 -81
89 -25 226 -99 293 -159 39 -36 41 -41 32 -67 -18 -46 -3 -75 81 -155 43 -42
79 -81 79 -88 0 -19 -84 -13 -145 11 -79 30 -176 139 -208 233 -13 39 -25 53
-59 71 -27 14 -29 13 -47 -18 -18 -28 -19 -44 -14 -130 6 -93 5 -99 -20 -137
-14 -21 -48 -57 -74 -79 -62 -53 -109 -131 -122 -206 -6 -33 -11 -131 -11
-217 l0 -158 27 -21 c26 -20 36 -21 123 -16 52 3 174 11 270 16 282 17 562 40
602 51 46 12 68 42 68 94 0 49 22 83 83 130 27 21 57 56 71 84 31 61 62 76
107 53 55 -28 58 -57 12 -138 -38 -68 -39 -69 -91 -78 -48 -9 -52 -12 -52 -37
0 -47 123 -129 193 -129 74 0 167 68 167 123 0 16 -9 42 -20 57 -30 42 -34 82
-16 138 26 79 5 135 -92 244 -147 164 -384 353 -544 434 -75 38 -172 109 -211
154 -18 22 -41 65 -51 99 -15 49 -27 69 -69 107 -113 102 -157 147 -157 162 0
17 62 23 79 9 9 -8 43 -24 76 -37 58 -24 151 -97 188 -149 15 -21 17 -38 13
-91 -8 -93 4 -113 76 -123 74 -12 112 5 116 50 4 42 -62 172 -122 240 -34 38
-59 56 -98 69 -28 9 -67 27 -86 40 -19 13 -39 24 -45 24 -18 0 -117 71 -117
84 0 8 -7 19 -15 26 -43 35 40 41 99 6 23 -13 57 -26 77 -30 72 -13 75 37 13
176 -42 94 -53 162 -31 204 8 16 77 90 152 164 146 145 203 222 255 340 60
139 68 165 95 303 23 117 26 158 23 267 -3 114 -5 131 -24 152 -12 13 -26 32
-32 43 -11 19 -11 18 -12 -7 0 -22 -10 -34 -47 -58 -27 -16 -59 -30 -73 -30
-43 0 -96 19 -117 42 -20 21 -20 26 -8 56 26 60 122 80 209 42 l46 -19 11 21
c24 45 -15 217 -79 348 -26 54 -28 55 -67 53 -22 -1 -59 -2 -82 -3 -24 -1 -72
8 -107 20 -70 23 -223 114 -269 159 l-27 27 20 22 c17 17 32 22 75 22 30 0 55
3 54 8 -3 32 -135 90 -291 126 -42 9 -87 28 -119 51 -63 43 -124 61 -254 74
-266 27 -918 19 -1160 -15 -110 -15 -123 -19 -152 -47 -42 -39 -31 -47 64 -47
52 0 76 -4 87 -16 22 -21 20 -86 -2 -114 -16 -20 -21 -21 -62 -10 -85 23 -200
95 -307 191 -28 26 -69 53 -90 59 -50 15 -346 22 -398 9z m1868 -121 c15 -16
27 -33 27 -38 0 -4 -12 -13 -27 -18 -35 -11 -78 8 -111 49 l-24 29 24 10 c35
14 80 1 111 -32z m-1779 -20 c34 -49 5 -144 -48 -161 -25 -8 -32 -6 -48 13
-30 37 -23 84 18 130 41 46 56 49 78 18z m1095 -410 c5 -13 5 -27 1 -31 -14
-16 -78 -25 -89 -14 -20 20 -12 34 27 50 50 20 51 20 61 -5z m-308 -194 c43
-27 87 -104 108 -189 35 -138 -8 -380 -77 -432 -20 -16 -64 -17 -80 -1 -21 21
-14 79 16 127 25 43 27 53 27 166 0 117 -1 122 -34 185 -36 69 -75 127 -99
147 -13 11 -12 14 9 22 33 14 84 4 130 -25z m1477 -41 c-10 -2 -28 -2 -40 0
-13 2 -5 4 17 4 22 1 32 -1 23 -4z m258 -668 c9 -64 -2 -108 -39 -153 -18 -22
-37 -47 -42 -57 -7 -12 -17 -15 -37 -10 -21 5 -29 15 -34 41 -15 80 30 208 80
229 43 18 63 4 72 -50z m-1707 -125 c-16 -11 -59 1 -59 15 0 19 43 24 57 6 9
-10 10 -17 2 -21z m1898 -289 c41 -65 -188 -249 -242 -194 -8 8 -15 29 -15 48
0 27 9 41 53 81 86 77 178 107 204 65z m-365 -350 c103 -49 124 -116 36 -116
-78 1 -210 109 -175 144 17 18 65 8 139 -28z m34 -1571 c24 -17 44 -35 44 -40
0 -17 -44 -40 -77 -40 -37 0 -85 16 -95 33 -7 11 -1 51 9 70 11 18 77 6 119
-23z m-244 -237 c32 -28 18 -93 -19 -93 -23 0 -63 47 -63 74 0 35 51 48 82 19z"/>
<path d="M40327 6910 c-85 -22 -107 -59 -107 -186 0 -106 17 -181 62 -267 42
-80 62 -100 109 -112 20 -5 32 -1 47 15 l21 22 -26 57 c-14 31 -28 68 -30 83
-5 24 -1 27 31 33 43 8 104 -20 207 -96 96 -71 144 -132 144 -185 0 -53 -8
-61 -39 -40 -30 19 -82 21 -89 3 -3 -7 -10 -65 -16 -128 -7 -63 -16 -136 -22
-164 -25 -132 -32 -285 -33 -650 0 -489 -4 -473 139 -580 59 -43 73 -60 88
-101 24 -69 22 -107 -9 -143 -14 -17 -31 -31 -38 -31 -7 0 -32 14 -55 30 -23
17 -47 28 -52 24 -27 -17 -39 -76 -39 -197 0 -141 4 -173 29 -206 17 -22 19
-22 78 -10 68 14 104 5 141 -34 l21 -22 -30 -44 c-34 -51 -34 -50 -14 -116 14
-45 14 -51 0 -62 -18 -12 -51 -6 -103 21 -42 21 -85 20 -106 -3 -17 -19 -22
-45 -49 -257 -16 -131 -37 -168 -151 -274 -194 -179 -195 -181 -221 -255 -31
-89 -32 -175 -2 -265 20 -59 26 -67 67 -87 72 -36 138 -43 394 -43 268 1 361
12 452 55 l57 27 86 -26 c195 -59 308 -69 499 -40 129 19 166 33 187 73 28 56
48 53 201 -28 60 -32 106 -37 128 -16 11 12 15 25 11 39 -3 12 -7 28 -8 36 -3
26 51 12 107 -27 121 -86 255 -109 338 -60 62 36 77 100 37 151 -31 39 -78 36
-115 -7 -16 -19 -34 -42 -39 -51 -9 -16 -12 -14 -26 15 -14 29 -14 39 -2 66
l13 33 84 0 c77 0 89 -3 157 -38 41 -21 94 -50 119 -64 83 -49 172 -79 205
-70 38 10 84 75 96 133 5 24 12 233 16 464 5 393 5 423 -12 459 l-18 38 -171
-7 c-265 -10 -344 -20 -408 -48 -31 -14 -62 -36 -69 -48 -7 -13 -15 -55 -19
-94 -4 -39 -13 -84 -21 -100 -19 -39 -86 -89 -156 -115 -32 -12 -63 -26 -70
-32 -18 -14 -16 -80 2 -104 8 -10 15 -31 15 -45 0 -67 -110 -28 -175 62 -64
89 -70 91 -295 83 -170 -5 -210 -3 -311 14 -152 27 -247 71 -325 150 -70 72
-94 119 -134 265 -44 160 -41 213 19 291 56 72 57 102 7 223 -29 74 -35 97
-26 113 13 24 41 40 73 40 13 0 37 10 52 22 27 21 28 22 21 109 -6 85 -6 89
17 103 28 19 71 9 128 -29 21 -14 41 -25 44 -25 3 0 35 -14 70 -30 69 -32 241
-70 410 -91 131 -16 605 -15 710 1 162 24 246 94 204 169 -19 33 -45 31 -142
-12 -76 -32 -160 -40 -252 -23 -37 7 -38 9 -21 22 11 8 31 35 45 61 l26 48 60
3 c70 4 85 13 85 58 0 51 29 71 93 64 34 -3 83 21 100 49 26 44 21 143 -8 179
-1 1 -25 -9 -53 -23 -27 -14 -56 -25 -65 -25 -8 0 -34 17 -58 38 -57 50 -90
61 -208 67 -53 3 -121 7 -151 9 -30 2 -124 0 -209 -3 -150 -7 -154 -8 -177
-34 -24 -28 -23 -49 8 -113 19 -40 12 -73 -17 -80 -35 -9 -79 22 -124 86 -58
81 -98 115 -171 144 -81 33 -114 62 -147 133 -69 152 -70 532 -1 736 26 79 73
130 135 146 21 6 121 13 223 16 327 11 419 29 439 85 14 42 -19 52 -170 51
-129 -1 -179 8 -179 32 0 7 14 27 30 45 17 18 30 41 30 52 0 19 -31 54 -95
108 -117 97 -148 110 -275 119 -61 4 -98 12 -130 29 -25 13 -65 28 -90 34 -25
7 -59 20 -75 30 -35 22 -206 64 -345 86 -114 18 -567 28 -623 14z m86 -174
c-3 -40 -7 -41 -42 -10 -34 30 -27 46 19 42 21 -3 25 -8 23 -32z m847 -501
c45 -23 70 -52 70 -80 0 -32 -30 -49 -56 -31 -10 7 -35 19 -54 26 -43 17 -110
69 -110 86 0 7 6 15 13 18 21 9 104 -2 137 -19z m-458 -302 c54 -76 88 -138
88 -162 0 -12 -12 -33 -27 -47 -22 -20 -34 -24 -57 -20 -64 13 -96 77 -96 188
0 60 6 74 35 81 11 2 21 5 22 6 0 0 16 -20 35 -46z m82 -447 c34 -19 98 -59
144 -90 87 -59 120 -71 219 -82 66 -7 77 -14 86 -55 8 -33 -14 -64 -63 -89
-21 -11 -40 -25 -43 -32 -6 -17 9 -46 43 -83 28 -31 50 -95 32 -95 -20 0 -148
42 -182 60 -19 10 -69 34 -110 53 -42 20 -104 61 -142 94 -118 103 -155 166
-144 246 10 73 17 87 50 96 46 13 44 14 110 -23z m-14 -423 c56 -19 139 -82
163 -122 17 -30 17 -30 -8 -47 -52 -34 -221 0 -268 54 -29 33 -33 92 -7 120
23 24 38 24 120 -5z m-18 -795 c29 -36 23 -48 -27 -48 -36 0 -48 7 -64 38 -32
61 42 69 91 10z m2303 -629 c33 -63 -10 -159 -70 -159 -16 0 -38 12 -56 29
-64 65 -18 159 78 161 26 0 36 -6 48 -31z m-2230 -101 c128 -87 156 -158 48
-122 -47 16 -156 86 -182 118 -11 13 -11 19 0 32 20 24 75 12 134 -28z m-232
-391 c30 -19 27 -45 -7 -51 -11 -2 -61 -9 -111 -16 -49 -6 -104 -18 -121 -26
-32 -16 -64 -69 -64 -108 0 -13 -8 -34 -18 -46 -36 -45 -120 0 -107 58 7 32
111 123 156 137 13 4 36 18 50 32 14 13 39 28 55 33 43 14 138 6 167 -13z
m2463 -102 c7 -19 14 -50 14 -70 0 -46 -25 -105 -44 -105 -8 0 -24 12 -35 26
-28 36 -31 157 -3 173 32 19 53 12 68 -24z"/>
<path d="M40888 5313 c-21 -5 -23 -26 -5 -41 22 -19 100 -32 114 -20 42 35
-39 80 -109 61z"/>
<path d="M41650 6909 c-127 -9 -210 -30 -210 -53 0 -8 9 -25 21 -40 17 -22 28
-26 72 -26 78 0 187 -26 209 -50 10 -11 23 -20 29 -20 6 0 43 -15 82 -34 40
-19 97 -46 127 -60 30 -14 116 -62 190 -106 218 -128 362 -193 538 -240 96
-26 132 -22 191 20 l41 30 -51 78 c-29 42 -74 102 -100 133 -62 73 -55 80 74
76 86 -2 98 0 111 18 9 11 16 30 16 43 0 28 27 82 40 82 6 0 18 -16 27 -35 24
-50 6 -184 -36 -277 -17 -37 -31 -75 -31 -83 0 -9 19 -35 43 -58 23 -23 56
-59 73 -80 l30 -37 17 36 c22 46 34 135 41 319 4 83 9 189 12 237 6 84 5 88
-20 112 l-25 26 -693 -1 c-381 -1 -749 -6 -818 -10z"/>
<path d="M43949 6909 c-172 -18 -205 -62 -225 -300 -5 -63 -2 -100 10 -149 21
-84 50 -112 143 -134 88 -22 125 -44 146 -89 22 -46 35 -263 46 -787 5 -217
11 -406 14 -419 33 -133 51 -158 152 -211 33 -17 67 -38 76 -46 23 -21 29 -60
13 -81 -8 -10 -18 -35 -24 -56 -8 -26 -19 -41 -37 -48 -34 -13 -47 0 -66 66
-12 42 -18 50 -40 53 -35 4 -40 -8 -66 -195 -18 -125 -24 -230 -31 -600 -5
-246 -14 -474 -19 -506 -15 -86 -50 -128 -153 -183 -48 -25 -106 -62 -129 -82
-93 -80 -106 -205 -23 -232 40 -13 59 -9 137 32 55 28 59 29 82 14 67 -44 -14
-162 -146 -215 -49 -19 -58 -27 -61 -52 -5 -33 24 -64 71 -76 31 -8 219 10
391 37 69 11 179 24 246 29 66 5 131 14 142 20 l22 12 -20 39 c-11 21 -30 50
-42 64 -47 50 -48 54 -28 59 11 3 24 -1 31 -9 6 -8 33 -20 60 -28 26 -8 77
-35 113 -59 100 -69 141 -85 251 -97 177 -20 229 -5 194 57 -10 17 -13 40 -10
58 5 26 11 30 44 33 52 4 101 -44 112 -108 4 -25 12 -50 17 -57 13 -17 65 -23
219 -25 161 -3 179 4 153 56 -9 17 -50 64 -92 104 -60 58 -73 75 -61 83 24 15
56 10 86 -14 15 -13 55 -36 87 -51 33 -14 96 -51 140 -80 121 -80 173 -104
256 -117 78 -12 225 -6 329 12 78 15 234 59 248 71 19 15 -16 55 -97 108 -82
54 -135 94 -177 133 -27 26 -30 33 -22 60 5 17 15 35 24 39 8 5 23 29 35 54
l20 46 82 -2 c114 -3 116 -3 143 25 52 51 28 123 -77 234 -48 51 -67 104 -38
108 8 1 36 5 63 8 61 8 80 35 78 109 -2 114 -38 147 -186 170 -55 8 -125 22
-155 29 -55 14 -153 33 -220 43 -41 6 -96 -23 -109 -59 -5 -12 -12 -85 -16
-162 -10 -197 -34 -246 -129 -264 -28 -6 -140 -13 -249 -17 -155 -5 -200 -10
-204 -20 -8 -21 37 -74 122 -146 60 -51 75 -68 75 -92 0 -23 -3 -27 -17 -21
-10 3 -39 10 -65 15 -26 5 -82 27 -125 49 -61 30 -95 57 -153 119 -81 85 -90
90 -219 111 -73 12 -96 28 -125 91 -20 43 -21 62 -24 508 -4 522 -8 496 72
506 22 3 311 17 640 32 339 15 616 31 639 38 22 6 48 23 58 36 23 31 39 135
39 261 0 142 -39 212 -150 269 -117 59 -193 67 -775 75 -247 3 -463 9 -478 11
-18 4 -32 15 -38 31 -5 15 -9 216 -9 481 0 435 1 457 19 475 16 16 47 21 197
33 99 7 206 18 239 23 39 7 131 7 265 1 310 -13 462 -52 596 -151 60 -44 75
-76 50 -114 -15 -22 -68 -45 -108 -45 -31 0 -63 21 -91 62 -24 34 -32 39 -55
34 -84 -20 -93 -159 -13 -201 47 -24 168 -29 372 -16 226 15 251 21 278 65 20
32 21 46 21 478 0 445 0 445 -22 478 -13 19 -35 37 -49 41 -14 3 -230 12 -480
19 -409 11 -458 11 -491 -3 -22 -9 -38 -23 -38 -32 0 -22 24 -67 48 -88 23
-21 16 -70 -11 -75 -9 -2 -61 26 -115 63 -79 53 -119 72 -198 96 -176 52 -229
61 -361 57 -140 -3 -171 -17 -186 -81 -11 -46 -39 -71 -67 -62 -12 4 -46 29
-76 55 -31 29 -70 53 -94 60 -100 27 -447 38 -621 19z m1336 -121 c-13 -43
-32 -53 -103 -53 -60 0 -67 2 -67 20 0 28 58 54 123 55 51 0 53 -1 47 -22z
m-1238 -43 c3 -9 22 -23 42 -31 31 -13 34 -17 18 -25 -26 -15 -80 8 -100 42
-16 29 -16 29 9 29 13 0 27 -7 31 -15z m2489 -210 c32 -32 29 -66 -8 -79 -37
-13 -58 6 -58 54 0 58 24 67 66 25z m-1086 -152 c0 -16 -66 -18 -75 -3 -4 6
-2 17 5 24 8 11 17 12 40 3 17 -6 30 -17 30 -24z m-648 -31 c39 -16 60 -62 47
-101 -25 -72 -115 -57 -274 45 -58 37 -62 43 -42 63 15 16 225 10 269 -7z
m-479 -256 c32 -41 34 -69 7 -103 -11 -14 -20 -38 -20 -53 0 -15 9 -39 20 -53
11 -14 20 -29 20 -33 0 -15 -33 -44 -50 -44 -34 0 -82 33 -96 66 -32 77 -7
211 45 239 37 20 43 19 74 -19z m425 -162 c25 -7 29 -26 7 -44 -22 -18 -19
-73 6 -96 48 -43 67 -164 39 -250 -18 -55 -27 -64 -70 -64 -30 0 -44 6 -64 31
-31 37 -32 41 -5 95 19 37 20 47 9 73 -7 17 -27 40 -45 51 -42 26 -65 61 -65
100 0 25 8 36 46 63 56 40 99 52 142 41z m-426 -445 c20 -10 58 -23 84 -29 93
-21 254 -103 254 -129 0 -18 -61 -30 -175 -33 -132 -5 -165 -15 -165 -53 0
-31 51 -65 131 -88 30 -9 64 -27 75 -39 33 -37 62 -91 66 -123 3 -30 3 -30
-44 -28 -52 1 -163 50 -235 102 -78 57 -151 225 -152 351 -1 63 5 75 39 89 30
12 72 5 122 -20z m994 -424 c16 -8 37 -15 47 -15 10 0 31 -7 48 -15 25 -13 28
-19 19 -35 -6 -11 -21 -20 -33 -20 -30 0 -87 36 -87 55 0 9 -7 18 -15 21 -8 4
-15 10 -15 15 0 12 3 12 36 -6z m948 -76 c17 -14 26 -30 26 -49 0 -26 -5 -30
-37 -36 -46 -9 -81 4 -106 38 -20 27 -20 28 -2 48 24 27 84 27 119 -1z m-1578
-451 c82 -62 118 -131 94 -187 l-12 -29 -53 52 c-29 28 -71 66 -94 85 -30 24
-41 41 -41 60 0 15 3 31 7 34 14 15 71 6 99 -15z m-386 -183 c0 -56 24 -100
85 -161 61 -61 63 -65 53 -94 -5 -17 -20 -38 -33 -48 -13 -10 -30 -35 -38 -55
-26 -60 -93 -63 -123 -5 -15 29 -15 34 0 65 22 46 20 70 -9 105 -58 69 -53
154 13 207 38 30 51 27 52 -14z m486 -142 c33 -44 -2 -136 -56 -148 -39 -9
-70 9 -70 41 0 17 16 43 47 75 52 54 60 57 79 32z m-46 -338 l25 -14 -32 -1
c-23 0 -33 5 -33 15 0 18 8 18 40 0z m1595 -123 c29 -45 24 -76 -20 -115 -13
-12 -35 -51 -47 -87 -14 -38 -29 -65 -37 -65 -8 0 -27 16 -43 36 -39 48 -48
129 -24 194 22 56 48 75 103 75 38 0 45 -4 68 -38z m-1991 -352 c104 -67 156
-113 156 -138 0 -19 -3 -21 -19 -12 -11 5 -28 10 -38 10 -10 0 -34 8 -53 19
-19 10 -51 23 -70 30 -19 6 -54 29 -78 49 -40 36 -41 39 -26 60 22 32 58 27
128 -18z m1901 -60 c3 -6 -5 -14 -18 -19 -13 -5 -27 -16 -30 -25 -15 -39 -118
-60 -125 -25 -3 16 36 39 67 39 10 0 26 9 36 20 19 21 60 27 70 10z m-2295
-255 c11 -13 10 -22 -3 -51 l-17 -35 -35 34 c-19 19 -35 39 -35 45 0 24 71 30
90 7z"/>
<path d="M17495 6901 c-115 -10 -157 -24 -194 -66 -37 -42 -45 -87 -45 -265
-1 -160 7 -184 74 -217 49 -25 123 -30 164 -12 13 6 32 27 43 46 31 58 69 57
199 -9 59 -30 84 -49 93 -70 8 -17 10 -33 5 -38 -5 -4 -41 -17 -80 -29 -81
-24 -118 -49 -132 -90 -14 -39 4 -55 97 -86 39 -14 81 -30 93 -36 27 -14 57
-49 58 -66 0 -19 -46 -45 -72 -42 -54 7 -63 -33 -22 -105 20 -36 25 -55 20
-81 -4 -19 -11 -37 -16 -40 -16 -10 -50 14 -50 35 0 25 -13 32 -44 24 -37 -9
-66 -93 -66 -187 0 -229 76 -400 204 -461 69 -33 142 -49 185 -41 l34 6 -30
19 c-17 10 -32 23 -34 28 -2 5 -33 30 -69 56 -77 57 -96 84 -105 147 -16 112
59 185 134 133 20 -15 22 -22 16 -58 -4 -22 -8 -59 -9 -80 -1 -36 3 -43 39
-68 56 -39 126 -58 212 -58 117 0 176 -38 159 -103 -7 -29 -21 -36 -105 -51
-58 -10 -65 -14 -72 -38 -8 -32 26 -92 85 -151 20 -20 36 -41 36 -47 0 -17
-69 -11 -111 10 -56 29 -99 20 -130 -28 -13 -20 -32 -38 -42 -40 -29 -6 -73
17 -87 44 -11 20 -11 29 4 56 28 52 18 89 -30 115 -84 47 -189 43 -225 -8 -21
-30 -21 -31 -4 -76 11 -28 42 -71 77 -107 100 -102 109 -128 48 -141 -51 -11
-98 -60 -115 -119 -31 -112 -39 -246 -18 -306 3 -8 6 -40 7 -71 3 -85 27 -112
129 -143 104 -32 143 -56 151 -94 15 -66 -47 -126 -105 -102 -15 7 -31 20 -34
30 -3 9 -14 25 -25 35 -20 18 -21 17 -46 -6 -40 -36 -51 -72 -64 -204 -20
-199 -57 -268 -220 -404 -174 -145 -218 -238 -193 -402 18 -112 55 -150 171
-174 108 -22 1347 -22 1379 0 27 19 29 31 48 243 21 239 18 246 -117 255 -69
4 -120 35 -178 108 -41 52 -53 85 -87 244 -17 78 -20 125 -18 360 1 290 7 334
52 393 27 36 47 46 138 69 33 9 80 29 106 44 25 16 60 29 76 29 35 0 201 -75
252 -114 19 -14 40 -26 45 -26 19 0 161 -98 193 -132 21 -22 53 -7 53 26 0 24
-135 157 -214 208 -22 16 -48 32 -56 38 -8 5 -28 15 -45 21 -29 10 -29 11 -10
25 23 17 68 11 105 -16 14 -9 41 -21 59 -25 19 -4 57 -18 85 -31 30 -14 70
-24 97 -24 38 0 50 5 75 31 46 48 75 39 364 -105 69 -35 144 -69 165 -76 22
-7 57 -22 77 -32 24 -13 52 -18 80 -16 42 3 43 4 41 37 -2 51 -49 92 -151 131
-48 19 -112 46 -142 61 -30 15 -65 30 -77 33 -38 12 -192 100 -238 136 -24 19
-44 44 -45 54 0 17 6 18 65 13 53 -5 92 -19 203 -73 145 -70 177 -78 199 -48
18 25 17 33 -17 119 -43 109 -26 150 74 174 134 33 233 130 389 382 26 42 47
80 47 84 0 4 14 38 31 76 22 52 29 82 27 117 l-3 47 -65 6 c-87 9 -98 15 -105
57 -4 21 -14 60 -24 87 -11 33 -15 61 -10 78 10 36 -14 63 -136 158 -79 62
-95 78 -95 101 0 24 4 28 29 28 23 0 39 11 74 52 l44 51 66 -16 c114 -29 170
-19 180 31 16 82 -45 162 -181 240 -71 40 -104 62 -177 120 -5 4 -26 14 -47
22 -20 8 -35 20 -35 25 3 16 71 10 110 -8 48 -23 87 -7 87 35 0 33 -37 63
-180 143 -94 52 -212 92 -335 114 -100 18 -442 51 -585 57 -74 3 -151 7 -170
9 -68 8 -1426 13 -1515 6z m1252 -105 c166 -26 207 -43 242 -100 64 -103 203
-224 359 -313 53 -31 124 -71 157 -90 85 -49 214 -140 258 -181 40 -39 47 -70
25 -117 -10 -23 -8 -29 18 -56 40 -42 125 -99 207 -138 56 -27 67 -36 67 -57
0 -13 1 -27 3 -31 1 -4 -10 -14 -25 -21 -22 -10 -34 -10 -70 4 -125 47 -179
51 -212 18 -33 -32 -4 -92 93 -194 39 -41 71 -78 71 -82 0 -12 -35 -27 -81
-34 -65 -11 -100 -28 -140 -71 -71 -76 -96 -144 -70 -192 12 -21 17 -23 65
-17 62 8 80 -6 90 -69 6 -33 3 -46 -14 -68 -33 -42 -84 -33 -166 30 -72 54
-202 53 -367 -3 -40 -14 -115 -29 -167 -34 -71 -7 -98 -13 -107 -26 -19 -26
-17 -34 22 -91 82 -121 5 -136 -124 -24 -32 28 -120 92 -196 143 -157 106
-158 107 -175 257 -15 132 -52 601 -66 827 -6 108 -6 112 17 133 30 28 40 30
189 33 102 3 130 7 153 22 32 21 36 63 11 101 -10 16 -14 34 -10 50 5 20 13
25 39 25 64 0 77 51 25 95 -39 32 -139 91 -171 100 -45 14 -272 127 -280 140
-4 8 -23 19 -42 25 -19 6 -33 16 -30 21 12 18 246 10 402 -15z m1290 -202 c-3
-3 -12 -4 -19 -1 -8 3 -5 6 6 6 11 1 17 -2 13 -5z m183 -332 c19 -9 35 -24 35
-32 0 -9 -33 -32 -80 -55 -44 -22 -92 -48 -107 -58 -22 -15 -30 -16 -47 -5
-53 33 -36 114 30 149 44 23 124 24 169 1z m-1865 -633 c0 -61 -65 -66 -98 -7
l-19 33 27 23 27 23 31 -20 c25 -16 32 -27 32 -52z m1943 -416 c15 -20 16 -48
2 -73 -8 -14 -16 -17 -37 -11 -39 10 -58 48 -44 85 10 24 15 27 39 21 15 -3
33 -13 40 -22z m-1845 -755 c16 -12 15 -16 -8 -51 -53 -76 -144 -120 -175 -82
-23 28 -3 68 57 108 58 38 97 46 126 25z m-628 -253 c55 -22 73 -87 30 -107
-34 -15 -88 10 -115 54 l-20 33 21 18 c26 21 39 21 84 2z m462 -308 c22 -14
46 -40 53 -58 13 -29 12 -33 -9 -50 -45 -37 -119 -17 -165 44 -31 40 -31 45
-10 76 14 19 23 22 54 18 20 -2 55 -16 77 -30z m4 -217 c24 -16 57 -40 74 -54
30 -24 30 -24 11 -45 -17 -18 -27 -21 -65 -15 -25 3 -65 14 -88 24 -47 21 -63
55 -44 96 15 33 57 31 112 -6z m-370 -310 c105 -54 181 -210 133 -278 -19 -28
-52 -28 -147 -1 -49 14 -114 22 -202 25 -71 3 -136 7 -143 10 -9 3 12 28 54
67 37 34 99 95 138 135 78 80 87 82 167 42z m795 -304 c46 -46 45 -76 -6 -117
-31 -25 -40 -39 -40 -63 l-1 -31 -14 26 c-8 15 -23 29 -34 32 -30 8 -47 76
-32 128 20 66 75 77 127 25z m-1218 -166 c32 -20 42 -53 26 -94 -11 -30 -62
-19 -106 23 -42 38 -42 39 -25 65 21 32 59 34 105 6z m927 -76 c18 -7 47 -58
38 -68 -4 -3 -23 -6 -44 -6 -33 0 -41 5 -54 30 -9 17 -13 35 -10 40 7 11 45
13 70 4z"/>
<path d="M19011 6364 c-19 -24 -19 -28 -6 -55 37 -70 216 -102 239 -42 11 29
-40 78 -106 101 -81 29 -102 28 -127 -4z"/>
<path d="M42667 6170 c-93 -18 -138 -74 -145 -184 -11 -176 51 -197 469 -157
109 10 132 19 154 61 18 35 19 71 4 142 l-12 53 -57 -63 -57 -64 -34 42 c-106
132 -132 153 -209 165 -25 3 -52 8 -60 9 -8 2 -32 0 -53 -4z"/>
<path d="M8249 6111 c-35 -35 -36 -42 -8 -59 28 -18 72 0 115 44 29 31 29 33
10 38 -50 14 -88 6 -117 -23z"/>
<path d="M20458 5919 c-23 -13 -23 -37 3 -101 12 -29 23 -64 25 -78 9 -57 15
-67 40 -79 19 -8 30 -9 39 -1 23 19 45 77 45 117 0 45 -41 137 -65 146 -24 10
-67 8 -87 -4z"/>
<path d="M21653 5304 c-10 -26 4 -146 24 -199 16 -42 23 -50 50 -56 48 -10 93
16 93 53 0 52 -81 178 -115 178 -7 0 -15 9 -18 20 -6 24 -25 26 -34 4z"/>
<path d="M36587 5162 c-36 -5 -50 -34 -45 -97 3 -40 12 -62 37 -94 38 -47 125
-109 190 -135 57 -22 131 -73 131 -91 0 -37 -12 -45 -66 -45 -45 0 -55 -4 -65
-22 -10 -19 -9 -24 11 -37 13 -9 41 -34 62 -55 l39 -40 -23 -13 c-13 -7 -46
-12 -74 -13 -55 0 -113 -19 -133 -44 -27 -32 -43 -114 -47 -241 -2 -71 -8
-182 -14 -245 -18 -217 -23 -471 -10 -560 19 -142 56 -182 169 -184 60 -1 74
2 93 21 l22 22 -38 16 c-54 23 -151 91 -170 120 -14 22 -14 25 0 39 8 9 23 16
33 16 63 0 254 -89 325 -152 43 -38 48 -81 14 -137 -43 -73 -77 -99 -134 -107
-90 -11 -250 12 -319 47 -174 86 -320 77 -360 -23 -28 -70 -46 -367 -26 -438
4 -13 22 -33 40 -44 33 -19 44 -19 462 -7 235 6 455 16 489 22 74 12 130 38
160 76 21 26 22 35 16 117 -6 85 -5 91 20 124 24 31 30 33 63 28 101 -17 132
-18 160 -6 27 11 34 9 62 -10 35 -26 63 -82 54 -110 -3 -10 -26 -29 -51 -41
-37 -17 -56 -20 -99 -15 -49 5 -55 4 -66 -15 -10 -20 -7 -26 27 -56 22 -19 63
-45 92 -59 50 -23 55 -23 83 -8 46 24 81 118 94 260 16 167 -38 256 -192 314
-107 40 -150 80 -183 165 -20 54 -23 87 -31 320 -9 277 -13 312 -50 374 -24
40 -96 106 -136 124 -12 5 -27 23 -34 40 -12 28 -11 32 12 46 13 9 34 26 47
39 13 12 35 22 50 22 23 0 32 -8 49 -43 25 -52 59 -72 107 -63 41 8 76 50 76
92 0 15 -9 53 -21 84 l-21 57 26 38 c14 21 26 43 26 50 0 17 -86 81 -200 149
-52 31 -122 75 -155 99 -33 23 -100 67 -150 97 -49 30 -110 68 -135 86 -41 28
-197 118 -245 140 -11 6 -32 8 -48 6z m210 -1070 c31 -19 40 -73 17 -106 -25
-39 -54 -31 -71 19 -7 22 -20 46 -27 54 -11 10 -12 21 -4 42 9 26 12 27 36 16
15 -6 37 -17 49 -25z m480 -524 c37 -34 48 -155 17 -189 -21 -23 -37 -24 -69
-3 -29 19 -45 62 -45 125 0 73 13 98 47 91 15 -2 38 -13 50 -24z m-902 -682
c26 -39 29 -117 7 -145 -19 -24 -19 -24 -45 -5 -48 35 -57 141 -14 162 32 15
35 15 52 -12z"/>
<path d="M13667 5154 c-18 -19 0 -46 92 -138 109 -109 120 -136 53 -136 -45 0
-118 -35 -138 -66 -24 -36 -54 -162 -55 -226 0 -62 19 -114 53 -145 16 -14 37
-18 102 -19 44 0 88 -4 96 -8 23 -11 103 -112 118 -148 9 -21 13 -60 10 -110
-3 -69 -6 -81 -31 -105 -22 -23 -39 -29 -89 -33 -79 -6 -95 -26 -55 -68 18
-19 27 -39 27 -60 l0 -32 -87 1 c-80 2 -88 0 -105 -21 -17 -21 -18 -34 -13
-99 4 -42 13 -116 20 -164 24 -157 -10 -223 -138 -266 -68 -23 -131 -72 -188
-143 -46 -58 -50 -91 -14 -114 49 -32 95 -15 245 94 72 53 136 141 194 272 21
47 45 96 53 109 l15 24 15 -34 c8 -19 17 -61 20 -95 7 -77 -12 -120 -78 -175
-58 -50 -124 -142 -134 -189 -14 -67 -19 -70 -99 -70 -112 0 -216 -53 -216
-110 0 -9 12 -27 26 -41 14 -13 32 -37 40 -52 l15 -28 -56 -25 c-48 -22 -55
-29 -55 -54 0 -46 38 -55 245 -55 192 0 224 6 341 61 28 13 60 24 71 24 12 0
56 -17 99 -37 l79 -38 145 0 c108 0 177 6 270 23 240 44 226 39 279 91 59 58
64 77 59 229 l-3 109 -41 44 c-22 25 -48 58 -58 74 -21 35 -95 86 -149 104
-44 15 -117 85 -142 137 -10 22 -21 80 -26 148 -14 164 -37 223 -120 311 -65
68 -68 73 -53 93 8 12 21 22 28 22 6 0 34 11 62 25 74 37 86 64 95 219 4 72
11 139 14 149 9 22 58 15 130 -18 67 -32 107 -41 258 -60 137 -17 307 -65 343
-97 11 -10 26 -18 32 -18 7 0 29 -15 49 -33 21 -18 65 -45 98 -61 33 -15 72
-34 87 -42 14 -8 38 -14 53 -14 l26 0 -18 30 c-9 17 -25 32 -34 35 -10 3 -34
19 -54 35 -20 16 -45 32 -56 35 -22 7 -187 104 -209 123 -32 27 -217 142 -229
142 -4 0 -52 28 -106 62 -55 34 -122 74 -150 88 -27 15 -140 78 -250 140 -255
143 -423 233 -604 321 -145 71 -190 87 -204 73z m603 -914 c26 -16 -3 -35 -30
-20 -18 10 -20 14 -9 21 18 11 21 11 39 -1z m0 -446 c0 -13 -4 -24 -10 -24 -5
0 -10 5 -10 10 0 6 -12 16 -26 22 -23 11 -24 13 -8 18 31 11 54 0 54 -26z m20
-170 c21 -5 38 -17 51 -38 24 -39 24 -41 -6 -54 -58 -26 -124 0 -140 55 -4 17
0 23 22 31 36 13 35 13 73 6z m495 -488 c15 -11 17 -21 12 -69 -8 -62 -58
-202 -72 -202 -31 0 -42 189 -16 258 12 30 44 36 76 13z"/>
<path d="M37650 4465 c0 -15 7 -39 14 -54 31 -59 114 -83 137 -39 11 20 8 26
-31 60 -23 21 -51 38 -61 38 -10 0 -21 5 -24 10 -12 20 -35 10 -35 -15z"/>
<path d="M41345 4472 c-3 -3 -5 -22 -5 -42 0 -63 -19 -143 -40 -165 -11 -12
-23 -36 -26 -54 -6 -26 -2 -37 21 -61 31 -32 28 -59 -11 -99 -14 -14 -24 -36
-24 -53 0 -16 -12 -49 -26 -74 -35 -59 -28 -104 21 -134 18 -11 47 -36 64 -55
26 -30 34 -34 55 -25 30 11 33 20 46 155 17 188 9 535 -15 597 -6 15 -48 22
-60 10z"/>
<path d="M13702 4260 c-53 -22 -36 -83 28 -100 41 -11 144 0 162 18 4 4 -1 22
-12 39 -27 46 -117 67 -178 43z"/>
<path d="M19565 4255 c-19 -15 -20 -27 -18 -163 2 -161 14 -256 38 -304 10
-21 13 -43 9 -65 -4 -19 1 -73 9 -121 32 -177 47 -271 47 -295 0 -36 -38 -76
-106 -112 -93 -48 -116 -97 -130 -282 -9 -127 2 -239 28 -265 20 -20 28 -20
242 -14 121 4 296 11 387 17 91 5 310 14 485 19 374 11 412 18 433 68 23 55
27 128 15 257 -7 72 -13 143 -13 158 -1 18 -12 40 -31 59 -28 28 -35 30 -81
26 -68 -7 -88 -29 -96 -101 -3 -31 -9 -57 -12 -57 -3 1 -26 11 -51 23 -54 26
-65 47 -115 208 -20 65 -42 125 -49 134 -12 16 -16 15 -49 -19 -47 -47 -87
-48 -140 -5 -46 38 -52 83 -12 101 21 9 36 7 90 -14 l65 -26 0 50 c0 35 -8 63
-27 96 -44 78 -84 130 -103 135 -9 2 -20 18 -23 36 -4 19 -13 31 -22 31 -9 0
-19 10 -24 23 -23 59 -203 193 -361 269 -321 154 -347 163 -385 133z m311
-202 c198 -99 336 -173 352 -189 7 -8 19 -14 25 -14 16 0 77 -75 77 -93 0 -8
-8 -25 -18 -37 -17 -21 -18 -21 -65 -5 -26 9 -99 43 -163 77 -110 57 -119 60
-173 56 -52 -5 -130 -41 -186 -88 -9 -7 -26 -9 -46 -5 -27 6 -29 9 -16 17 9 5
17 16 17 24 0 9 14 29 32 46 27 25 30 33 22 55 -6 19 -20 29 -44 36 -57 14
-70 33 -70 96 0 125 46 130 256 24z m-13 -509 c83 -42 304 -192 332 -226 24
-28 25 -32 10 -48 -12 -13 -37 -19 -98 -22 -63 -4 -100 -12 -157 -36 -41 -18
-85 -32 -97 -32 -33 0 -53 37 -53 96 0 29 -13 94 -30 149 -16 54 -30 106 -30
115 0 37 53 39 123 4z m-272 -485 c45 -32 38 -80 -13 -93 -23 -5 -31 -1 -54
29 -25 33 -26 36 -10 60 20 30 39 31 77 4z m1264 -204 c0 -11 5 -23 10 -27 6
-4 -2 -8 -17 -8 -17 0 -33 9 -42 22 -23 33 -20 40 17 36 24 -2 32 -8 32 -23z"/>
<path d="M29057 3243 c-5 -9 -10 -50 -8 -70 1 -7 15 -20 33 -29 30 -15 32 -15
45 2 19 26 16 61 -7 84 -20 20 -55 27 -63 13z"/>
<path d="M46545 2994 c-12 -13 -13 -19 -4 -31 19 -22 65 -43 94 -43 21 0 25 5
25 30 0 49 -79 79 -115 44z"/>
</g>
</svg>
